<svg width="1800" height="1120" viewBox="0 0 1800 1120" fill="none" xmlns="http://www.w3.org/2000/svg">
  <defs>
    <linearGradient id="rec-bg" x1="90" y1="80" x2="1710" y2="1080" gradientUnits="userSpaceOnUse">
      <stop stop-color="#07111C"/>
      <stop offset="0.56" stop-color="#0C1728"/>
      <stop offset="1" stop-color="#121F34"/>
    </linearGradient>
    <radialGradient id="rec-glow-1" cx="0" cy="0" r="1" gradientUnits="userSpaceOnUse" gradientTransform="translate(1440 180) rotate(150) scale(420 260)">
      <stop stop-color="#FF8E61" stop-opacity="0.22"/>
      <stop offset="1" stop-color="#FF8E61" stop-opacity="0"/>
    </radialGradient>
    <radialGradient id="rec-glow-2" cx="0" cy="0" r="1" gradientUnits="userSpaceOnUse" gradientTransform="translate(352 936) rotate(20) scale(460 220)">
      <stop stop-color="#6AA7FF" stop-opacity="0.2"/>
      <stop offset="1" stop-color="#6AA7FF" stop-opacity="0"/>
    </radialGradient>
    <linearGradient id="shell-fill" x1="0" y1="0" x2="1" y2="1">
      <stop stop-color="#111B2C"/>
      <stop offset="1" stop-color="#16253D"/>
    </linearGradient>
    <linearGradient id="card-fill" x1="0" y1="0" x2="1" y2="1">
      <stop stop-color="#17304D"/>
      <stop offset="0.55" stop-color="#132540"/>
      <stop offset="1" stop-color="#0F1B31"/>
    </linearGradient>
    <linearGradient id="vote-pane-fill" x1="0" y1="0" x2="0" y2="1">
      <stop stop-color="#1B2438"/>
      <stop offset="1" stop-color="#161D2D"/>
    </linearGradient>
    <linearGradient id="live-strip" x1="0" y1="0" x2="1" y2="0">
      <stop stop-color="#FFD0AA"/>
      <stop offset="1" stop-color="#FF895E"/>
    </linearGradient>
    <filter id="screen-shadow" x="-60" y="-40" width="1920" height="1240" filterUnits="userSpaceOnUse" color-interpolation-filters="sRGB">
      <feOffset dy="24"/>
      <feGaussianBlur stdDeviation="28"/>
      <feColorMatrix type="matrix" values="0 0 0 0 0.0117647 0 0 0 0 0.0235294 0 0 0 0 0.0470588 0 0 0 0.4 0"/>
    </filter>
  </defs>

  <rect width="1800" height="1120" fill="url(#rec-bg)"/>
  <rect width="1800" height="1120" fill="url(#rec-glow-1)"/>
  <rect width="1800" height="1120" fill="url(#rec-glow-2)"/>

  <text x="64" y="74" fill="#F7F2EA" font-size="48" font-weight="700" font-family="'Sora', 'Avenir Next', 'Helvetica Neue', Arial, sans-serif">
    Recommended Layout: Infinite Feed + Persistent Voting
  </text>
  <text x="64" y="112" fill="#A7B5C8" font-size="20" font-family="'Sora', 'Avenir Next', 'Helvetica Neue', Arial, sans-serif">
    The active card keeps the voting decision attached to the score while the feed itself becomes more fluid and continuous.
  </text>

  <g filter="url(#screen-shadow)">
    <rect x="54" y="150" width="1200" height="822" rx="42" fill="url(#shell-fill)"/>
    <rect x="1310" y="188" width="334" height="724" rx="44" fill="url(#shell-fill)"/>
  </g>
  <rect x="54" y="150" width="1200" height="822" rx="42" stroke="#FFFFFF18" stroke-width="2"/>
  <rect x="1310" y="188" width="334" height="724" rx="44" stroke="#FFFFFF18" stroke-width="2"/>

  <text x="86" y="204" fill="#FFD0AA" font-size="13" letter-spacing="1.8" font-family="'IBM Plex Mono', 'SFMono-Regular', Menlo, monospace">
    DESKTOP / ACTIVE CARD + FIXED VOTE RAIL
  </text>
  <rect x="86" y="224" width="1140" height="56" rx="20" fill="#0E1624" stroke="#FFFFFF12"/>
  <rect x="104" y="240" width="90" height="24" rx="12" fill="#FF8E61"/>
  <text x="149" y="256" text-anchor="middle" fill="#09111C" font-size="12" font-weight="700" font-family="'Sora', 'Avenir Next', 'Helvetica Neue', Arial, sans-serif">
    For You
  </text>
  <rect x="206" y="240" width="92" height="24" rx="12" fill="#1D2B40"/>
  <text x="252" y="256" text-anchor="middle" fill="#F7F2EA" font-size="12" font-weight="600" font-family="'Sora', 'Avenir Next', 'Helvetica Neue', Arial, sans-serif">
    Trending
  </text>
  <rect x="310" y="240" width="128" height="24" rx="12" fill="#1D2B40"/>
  <text x="374" y="256" text-anchor="middle" fill="#F7F2EA" font-size="12" font-weight="600" font-family="'Sora', 'Avenir Next', 'Helvetica Neue', Arial, sans-serif">
    Near settlement
  </text>
  <rect x="1010" y="238" width="190" height="28" rx="14" fill="#1A2941"/>
  <text x="1105" y="256" text-anchor="middle" fill="#B7C2D1" font-size="12" font-family="'IBM Plex Mono', 'SFMono-Regular', Menlo, monospace">
    infinite prefetch / auto-advance
  </text>

  <rect x="86" y="306" width="728" height="612" rx="34" fill="#0D1523" stroke="#FFFFFF14" stroke-width="2"/>
  <rect x="106" y="326" width="688" height="340" rx="28" fill="url(#card-fill)"/>
  <rect x="136" y="356" width="250" height="16" rx="8" fill="#F7F2EA"/>
  <rect x="136" y="384" width="330" height="10" rx="5" fill="#D6DFE8" fill-opacity="0.58"/>
  <rect x="136" y="414" width="618" height="204" rx="24" fill="#27496E"/>
  <circle cx="194" cy="470" r="30" fill="#FFFFFF14"/>
  <rect x="136" y="694" width="202" height="12" rx="6" fill="#F7F2EA"/>
  <rect x="136" y="720" width="348" height="10" rx="5" fill="#D6DFE8" fill-opacity="0.54"/>
  <rect x="136" y="744" width="268" height="10" rx="5" fill="#D6DFE8" fill-opacity="0.32"/>
  <rect x="136" y="790" width="164" height="28" rx="14" fill="#13243B" stroke="#FFFFFF18"/>
  <text x="218" y="808" text-anchor="middle" fill="#F7F2EA" font-size="12" font-weight="600" font-family="'Sora', 'Avenir Next', 'Helvetica Neue', Arial, sans-serif">
    Watched by 18 curators
  </text>
  <rect x="316" y="790" width="144" height="28" rx="14" fill="#13243B" stroke="#FFFFFF18"/>
  <text x="388" y="808" text-anchor="middle" fill="#F7F2EA" font-size="12" font-weight="600" font-family="'Sora', 'Avenir Next', 'Helvetica Neue', Arial, sans-serif">
    2 hidden votes
  </text>

  <rect x="834" y="306" width="392" height="612" rx="34" fill="url(#vote-pane-fill)" stroke="#FFFFFF14" stroke-width="2"/>
  <text x="870" y="346" fill="#B7C2D1" font-size="12" letter-spacing="2" font-family="'IBM Plex Mono', 'SFMono-Regular', Menlo, monospace">
    PERSISTENT DECISION SURFACE
  </text>
  <text x="870" y="388" fill="#F7F2EA" font-size="32" font-weight="700" font-family="'Sora', 'Avenir Next', 'Helvetica Neue', Arial, sans-serif">
    Community rating
  </text>
  <circle cx="1030" cy="476" r="74" stroke="#243146" stroke-width="16"/>
  <circle cx="1030" cy="476" r="74" stroke="url(#live-strip)" stroke-width="12" stroke-linecap="round" stroke-dasharray="290 180" transform="rotate(-120 1030 476)"/>
  <circle cx="1030" cy="476" r="56" fill="#FF8E61" fill-opacity="0.08"/>
  <text x="1030" y="488" text-anchor="middle" fill="#F7F2EA" font-size="46" font-weight="700" font-family="'Sora', 'Avenir Next', 'Helvetica Neue', Arial, sans-serif">
    6.8
  </text>
  <text x="1030" y="520" text-anchor="middle" fill="#B7C2D1" font-size="15" font-family="'Sora', 'Avenir Next', 'Helvetica Neue', Arial, sans-serif">
    Current round anchor score
  </text>
  <rect x="888" y="554" width="284" height="54" rx="21" fill="#13233A" stroke="#FF8E6142"/>
  <circle cx="914" cy="576" r="7" fill="#FF8E61"/>
  <text x="930" y="581" fill="#FFD0AA" font-size="12" font-weight="700" font-family="'IBM Plex Mono', 'SFMono-Regular', Menlo, monospace">
    ROUND ACTIVITY
  </text>
  <text x="930" y="597" fill="#F7F2EA" font-size="12" font-weight="600" font-family="'Sora', 'Avenir Next', 'Helvetica Neue', Arial, sans-serif">
    3 hidden votes committed recently
  </text>
  <rect x="888" y="626" width="284" height="52" rx="26" fill="#F7F2EA"/>
  <text x="1030" y="659" text-anchor="middle" fill="#09111C" font-size="18" font-weight="700" font-family="'Sora', 'Avenir Next', 'Helvetica Neue', Arial, sans-serif">
    Score too low
  </text>
  <rect x="888" y="692" width="284" height="52" rx="26" fill="#23354F"/>
  <text x="1030" y="725" text-anchor="middle" fill="#F7F2EA" font-size="18" font-weight="700" font-family="'Sora', 'Avenir Next', 'Helvetica Neue', Arial, sans-serif">
    Score too high
  </text>
  <rect x="888" y="772" width="284" height="34" rx="17" fill="#101A2C" stroke="#FFFFFF14"/>
  <text x="1030" y="794" text-anchor="middle" fill="#B7C2D1" font-size="13" font-family="'Sora', 'Avenir Next', 'Helvetica Neue', Arial, sans-serif">
    After commit: animate next card into place
  </text>
  <rect x="888" y="834" width="284" height="14" rx="7" fill="#243146"/>
  <rect x="888" y="834" width="198" height="14" rx="7" fill="#FF8E61"/>
  <text x="888" y="876" fill="#B7C2D1" font-size="13" font-family="'Sora', 'Avenir Next', 'Helvetica Neue', Arial, sans-serif">
    Rating history and deeper stats stay inline below the action.
  </text>

  <rect x="114" y="874" width="660" height="20" rx="10" fill="#15243A" stroke="#FFFFFF10"/>
  <rect x="142" y="880" width="192" height="8" rx="4" fill="#FF8E61" fill-opacity="0.8"/>
  <rect x="350" y="880" width="150" height="8" rx="4" fill="#D5DFE8" fill-opacity="0.32"/>
  <rect x="516" y="880" width="108" height="8" rx="4" fill="#D5DFE8" fill-opacity="0.18"/>
  <text x="114" y="944" fill="#A7B5C8" font-size="15" font-family="'Sora', 'Avenir Next', 'Helvetica Neue', Arial, sans-serif">
    The feed feels continuous, but the user's core decision never leaves the viewport.
  </text>

  <text x="1344" y="240" fill="#FFD0AA" font-size="13" letter-spacing="1.8" font-family="'IBM Plex Mono', 'SFMono-Regular', Menlo, monospace">
    MOBILE / BOTTOM-STICKY VOTE BLOCK
  </text>
  <rect x="1330" y="220" width="294" height="624" rx="38" fill="#0D1523" stroke="#FFFFFF16" stroke-width="2"/>
  <rect x="1348" y="244" width="258" height="500" rx="28" fill="url(#card-fill)"/>
  <rect x="1370" y="272" width="100" height="14" rx="7" fill="#F7F2EA" fill-opacity="0.16"/>
  <rect x="1370" y="560" width="138" height="10" rx="5" fill="#F7F2EA"/>
  <rect x="1370" y="582" width="192" height="8" rx="4" fill="#D6DFE8" fill-opacity="0.54"/>
  <circle cx="1580" cy="328" r="20" fill="#13243B" stroke="#FFFFFF16"/>
  <circle cx="1580" cy="380" r="20" fill="#13243B" stroke="#FFFFFF16"/>
  <circle cx="1580" cy="432" r="20" fill="#13243B" stroke="#FFFFFF16"/>
  <text x="1580" y="335" text-anchor="middle" fill="#F7F2EA" font-size="12" font-weight="700" font-family="'Sora', 'Avenir Next', 'Helvetica Neue', Arial, sans-serif">
    +
  </text>
  <text x="1580" y="386" text-anchor="middle" fill="#F7F2EA" font-size="10" font-weight="700" font-family="'Sora', 'Avenir Next', 'Helvetica Neue', Arial, sans-serif">
    save
  </text>
  <text x="1580" y="438" text-anchor="middle" fill="#F7F2EA" font-size="10" font-weight="700" font-family="'Sora', 'Avenir Next', 'Helvetica Neue', Arial, sans-serif">
    share
  </text>
  <rect x="1348" y="758" width="258" height="66" rx="22" fill="#162338" stroke="#FF8E6138"/>
  <circle cx="1388" cy="791" r="18" fill="#FF8E61" fill-opacity="0.14" stroke="#FF8E6172"/>
  <text x="1388" y="797" text-anchor="middle" fill="#F7F2EA" font-size="13" font-weight="700" font-family="'Sora', 'Avenir Next', 'Helvetica Neue', Arial, sans-serif">
    6.8
  </text>
  <rect x="1418" y="772" width="82" height="18" rx="9" fill="#F7F2EA"/>
  <text x="1459" y="785" text-anchor="middle" fill="#09111C" font-size="10" font-weight="700" font-family="'Sora', 'Avenir Next', 'Helvetica Neue', Arial, sans-serif">
    Too low
  </text>
  <rect x="1418" y="796" width="82" height="18" rx="9" fill="#23354F"/>
  <text x="1459" y="809" text-anchor="middle" fill="#F7F2EA" font-size="10" font-weight="700" font-family="'Sora', 'Avenir Next', 'Helvetica Neue', Arial, sans-serif">
    Too high
  </text>
  <rect x="1512" y="780" width="74" height="34" rx="17" fill="#101A2C" stroke="#FFFFFF14"/>
  <text x="1549" y="801" text-anchor="middle" fill="#FFD0AA" font-size="10" font-family="'IBM Plex Mono', 'SFMono-Regular', Menlo, monospace">
    LIVE
  </text>

  <rect x="54" y="1004" width="1590" height="50" rx="25" fill="#10192A" stroke="#FFFFFF12"/>
  <text x="849" y="1036" text-anchor="middle" fill="#F7F2EA" font-size="16" font-weight="600" font-family="'Sora', 'Avenir Next', 'Helvetica Neue', Arial, sans-serif">
    Key rule: use TikTok-like progression for discovery, but keep the voting decision persistent and score-anchored.
  </text>
</svg>
