<svg xmlns="http://www.w3.org/2000/svg" viewBox="0 0 1600 520" width="1600" height="520" fill="none">
  <defs>
    <linearGradient id="banner-bg" x1="0" y1="0" x2="1600" y2="520" gradientUnits="userSpaceOnUse">
      <stop offset="0%" stop-color="#020307" />
      <stop offset="54%" stop-color="#070B16" />
      <stop offset="100%" stop-color="#0E1627" />
    </linearGradient>
    <radialGradient id="banner-left-glow" cx="286" cy="256" r="290" gradientUnits="userSpaceOnUse">
      <stop offset="0%" stop-color="#141D32" stop-opacity="0.55" />
      <stop offset="56%" stop-color="#0B1222" stop-opacity="0.16" />
      <stop offset="100%" stop-color="#05070D" stop-opacity="0" />
    </radialGradient>
    <radialGradient id="banner-core-glow" cx="334" cy="246" r="158" gradientUnits="userSpaceOnUse">
      <stop offset="0%" stop-color="#FF7E64" stop-opacity="0.16" />
      <stop offset="42%" stop-color="#6D73E0" stop-opacity="0.12" />
      <stop offset="68%" stop-color="#2F86D9" stop-opacity="0.12" />
      <stop offset="100%" stop-color="#2F86D9" stop-opacity="0" />
    </radialGradient>

    <radialGradient id="banner-mark-orb-base" cx="0" cy="0" r="1" gradientUnits="userSpaceOnUse" gradientTransform="translate(874 472) rotate(136) scale(728 704)">
      <stop stop-color="#FFE1B5" />
      <stop offset="0.16" stop-color="#FFBA84" />
      <stop offset="0.34" stop-color="#F57E8A" />
      <stop offset="0.56" stop-color="#6D73E0" />
      <stop offset="0.76" stop-color="#2F86D9" />
      <stop offset="1" stop-color="#0B2134" />
    </radialGradient>
    <radialGradient id="banner-mark-orb-rim" cx="0" cy="0" r="1" gradientUnits="userSpaceOnUse" gradientTransform="translate(500 522) rotate(28) scale(256 552)">
      <stop stop-color="#B7D7FB" stop-opacity="0.7" />
      <stop offset="0.2" stop-color="#76A6D6" stop-opacity="0.28" />
      <stop offset="1" stop-color="#76A6D6" stop-opacity="0" />
    </radialGradient>
    <radialGradient id="banner-mark-soft-white" cx="0" cy="0" r="1" gradientUnits="userSpaceOnUse" gradientTransform="translate(742 504) rotate(136) scale(340 272)">
      <stop stop-color="#FFF4E2" stop-opacity="0.8" />
      <stop offset="0.52" stop-color="#FFF4E2" stop-opacity="0.24" />
      <stop offset="1" stop-color="#FFF4E2" stop-opacity="0" />
    </radialGradient>
    <radialGradient id="banner-mark-coral-bloom" cx="0" cy="0" r="1" gradientUnits="userSpaceOnUse" gradientTransform="translate(910 754) rotate(158) scale(294 236)">
      <stop stop-color="#FF7E64" stop-opacity="0.42" />
      <stop offset="1" stop-color="#FF7E64" stop-opacity="0" />
    </radialGradient>
    <radialGradient id="banner-mark-violet-pocket" cx="0" cy="0" r="1" gradientUnits="userSpaceOnUse" gradientTransform="translate(520 926) rotate(-18) scale(356 258)">
      <stop stop-color="#7E52BA" stop-opacity="0.32" />
      <stop offset="1" stop-color="#7E52BA" stop-opacity="0" />
    </radialGradient>
    <radialGradient id="banner-mark-blue-pocket" cx="0" cy="0" r="1" gradientUnits="userSpaceOnUse" gradientTransform="translate(560 840) rotate(8) scale(358 194)">
      <stop stop-color="#2F8EDF" stop-opacity="0.32" />
      <stop offset="0.56" stop-color="#4D88D7" stop-opacity="0.2" />
      <stop offset="1" stop-color="#4D88D7" stop-opacity="0" />
    </radialGradient>
    <linearGradient id="banner-mark-fold-sheen" x1="290" y1="820" x2="1036" y2="650" gradientUnits="userSpaceOnUse">
      <stop stop-color="#FFF7F0" stop-opacity="0" />
      <stop offset="0.3" stop-color="#FFF7F0" stop-opacity="0.08" />
      <stop offset="0.56" stop-color="#FFF7F0" stop-opacity="0.32" />
      <stop offset="0.82" stop-color="#FFD7B2" stop-opacity="0.16" />
      <stop offset="1" stop-color="#FFD7B2" stop-opacity="0" />
    </linearGradient>
    <linearGradient id="banner-mark-flare-gradient" x1="860" y1="260" x2="1050" y2="736" gradientUnits="userSpaceOnUse">
      <stop stop-color="#F45C4D" />
      <stop offset="0.24" stop-color="#FF8A5D" />
      <stop offset="0.56" stop-color="#FFC37A" />
      <stop offset="0.82" stop-color="#FFE1A7" />
      <stop offset="1" stop-color="#FFF4DB" />
    </linearGradient>
    <linearGradient id="banner-mark-flare-core" x1="870" y1="280" x2="1036" y2="716" gradientUnits="userSpaceOnUse">
      <stop stop-color="#FF9E78" />
      <stop offset="0.48" stop-color="#FFF0CF" />
      <stop offset="1" stop-color="#FFF8ED" />
    </linearGradient>
    <filter id="banner-mark-blur-40" x="0" y="0" width="1400" height="1400" filterUnits="userSpaceOnUse" color-interpolation-filters="sRGB">
      <feGaussianBlur stdDeviation="40" />
    </filter>
    <clipPath id="banner-mark-orb-clip">
      <circle cx="700" cy="700" r="360" />
    </clipPath>

    <symbol id="banner-mark" viewBox="0 0 1400 1400">
      <circle cx="700" cy="700" r="472" stroke="#FFFFFF" stroke-opacity="0.03" stroke-width="2" />
      <circle cx="700" cy="700" r="448" stroke="#342129" stroke-opacity="0.66" stroke-width="12" />
      <circle cx="700" cy="700" r="434" stroke="#1A1E28" stroke-opacity="0.96" stroke-width="20" />
      <circle cx="700" cy="700" r="420" stroke="#FFFFFF" stroke-opacity="0.055" stroke-width="2" />
      <circle cx="700" cy="700" r="408" stroke="#FFFFFF" stroke-opacity="0.038" stroke-width="1.4" />
      <circle cx="700" cy="700" r="448" stroke="#F3A16E" stroke-opacity="0.08" stroke-width="6" stroke-linecap="round" stroke-dasharray="598 2218" transform="rotate(-136 700 700)" />
      <circle cx="700" cy="700" r="434" stroke="#FFFFFF" stroke-opacity="0.04" stroke-width="2.2" stroke-linecap="round" stroke-dasharray="536 2130" transform="rotate(-136 700 700)" />

      <g filter="url(#banner-mark-blur-40)">
        <circle cx="700" cy="700" r="420" stroke="#F45C4D" stroke-opacity="0.54" stroke-width="28" stroke-linecap="round" stroke-dasharray="689.1 1949.9" transform="rotate(-66 700 700)" />
      </g>
      <circle cx="700" cy="700" r="420" stroke="#6D352A" stroke-opacity="0.42" stroke-width="10" stroke-linecap="round" stroke-dasharray="689.1 1949.9" transform="rotate(-66 700 700)" />
      <circle cx="700" cy="700" r="420" stroke="url(#banner-mark-flare-gradient)" stroke-width="8" stroke-linecap="round" stroke-dasharray="689.1 1949.9" transform="rotate(-66 700 700)" />
      <circle cx="700" cy="700" r="420" stroke="url(#banner-mark-flare-core)" stroke-width="2.4" stroke-linecap="round" stroke-dasharray="689.1 1949.9" transform="rotate(-66 700 700)" />
      <circle cx="1070.8" cy="897.2" r="23" fill="#FF8D65" fill-opacity="0.18" />
      <circle cx="1070.8" cy="897.2" r="9" fill="#FFF3DF" />

      <circle cx="700" cy="700" r="360" fill="url(#banner-mark-orb-base)" />
      <circle cx="700" cy="700" r="360" fill="url(#banner-mark-orb-rim)" />
      <g clip-path="url(#banner-mark-orb-clip)">
        <g filter="url(#banner-mark-blur-40)">
          <ellipse cx="700" cy="528" rx="292" ry="192" fill="url(#banner-mark-soft-white)" />
          <ellipse cx="910" cy="700" rx="270" ry="232" fill="url(#banner-mark-coral-bloom)" />
          <ellipse cx="504" cy="926" rx="300" ry="224" fill="url(#banner-mark-violet-pocket)" />
          <ellipse cx="612" cy="818" rx="344" ry="194" fill="url(#banner-mark-blue-pocket)" />
        </g>
        <path d="M330 822C464 734 582 684 704 670C810 658 902 686 1018 760C944 812 868 844 788 858C680 876 560 868 442 840C404 832 368 826 330 822Z" fill="url(#banner-mark-fold-sheen)" />
        <path d="M350 838C466 760 574 724 694 714C808 704 906 726 1012 776C932 814 852 838 766 848C642 864 520 858 402 840C384 838 366 838 350 838Z" fill="#FFF4E2" fill-opacity="0.11" />
        <path d="M404 542C518 494 634 492 752 530C842 560 938 626 1038 724" stroke="#FFF7F1" stroke-opacity="0.16" stroke-width="22" stroke-linecap="round" />
        <path d="M344 930C456 908 574 916 706 956C820 990 910 1040 988 1110" stroke="#C8ADD6" stroke-opacity="0.085" stroke-width="24" stroke-linecap="round" />
        <circle cx="1118" cy="490" r="50" fill="#FFF9F2" fill-opacity="0.9" />
        <circle cx="664" cy="556" r="190" fill="url(#banner-mark-soft-white)" />
      </g>

      <circle cx="700" cy="700" r="360" fill="none" stroke="#FFF8F2" stroke-opacity="0.14" stroke-width="2" />
    </symbol>
  </defs>

  <rect width="1600" height="520" fill="url(#banner-bg)" />
  <circle cx="286" cy="256" r="290" fill="url(#banner-left-glow)" />
  <circle cx="334" cy="246" r="158" fill="url(#banner-core-glow)" />

  <g opacity="0.84">
    <circle cx="1180" cy="98" r="4" fill="#FFDCE7" />
    <circle cx="1308" cy="130" r="3" fill="#359EEE" />
    <circle cx="1452" cy="176" r="5" fill="#F57E8A" />
    <circle cx="1104" cy="390" r="4" fill="#FFBA84" />
    <circle cx="1268" cy="422" r="3" fill="#FFFFFF" fill-opacity="0.72" />
    <circle cx="238" cy="122" r="3" fill="#FFFFFF" fill-opacity="0.72" />
    <circle cx="400" cy="88" r="4" fill="#FFDCE7" />
    <circle cx="174" cy="378" r="4" fill="#2F86D9" />
  </g>

  <use href="#banner-mark" transform="translate(8 52) scale(0.295)" />

  <text
    x="682"
    y="210"
    font-family="'Helvetica Neue', Arial, sans-serif"
    font-size="110"
    font-weight="700"
    fill="#FFFFFF"
    letter-spacing="6"
  >
    CURYO
  </text>
  <text
    x="690"
    y="278"
    font-family="'Helvetica Neue', Arial, sans-serif"
    font-size="27"
    font-weight="400"
    fill="#A7B0C7"
    letter-spacing=".2"
  >
    <tspan x="690" dy="0">A Better Web,</tspan>
    <tspan x="690" dy="34">Guided by Human Reputation</tspan>
  </text>
  <rect x="690" y="342" width="356" height="2" rx="1" fill="#1C2740" />
</svg>
