<svg xmlns="http://www.w3.org/2000/svg" viewBox="0 0 1600 520" width="1600" height="520" fill="none">
  <defs>
    <linearGradient id="banner-bg" x1="0" y1="0" x2="1600" y2="520" gradientUnits="userSpaceOnUse">
      <stop offset="0%" stop-color="#050607" />
      <stop offset="54%" stop-color="#111215" />
      <stop offset="100%" stop-color="#050607" />
    </linearGradient>
    <radialGradient id="banner-left-glow" cx="470" cy="264" r="250" gradientUnits="userSpaceOnUse">
      <stop offset="0%" stop-color="#F26426" stop-opacity="0.16" />
      <stop offset="56%" stop-color="#7E8996" stop-opacity="0.08" />
      <stop offset="100%" stop-color="#7E8996" stop-opacity="0" />
    </radialGradient>
    <radialGradient id="banner-right-glow" cx="1220" cy="160" r="320" gradientUnits="userSpaceOnUse">
      <stop offset="0%" stop-color="#F26426" stop-opacity="0.08" />
      <stop offset="100%" stop-color="#F26426" stop-opacity="0" />
    </radialGradient>

    <radialGradient
      id="orb-base"
      cx="0"
      cy="0"
      r="1"
      gradientUnits="userSpaceOnUse"
      gradientTransform="translate(856 450) rotate(136) scale(720 702)"
    >
      <stop stop-color="#FFF8F2" />
      <stop offset="0.18" stop-color="#F8E1D0" />
      <stop offset="0.34" stop-color="#F7B070" />
      <stop offset="0.56" stop-color="#F26426" />
      <stop offset="0.78" stop-color="#B23C3B" />
      <stop offset="1" stop-color="#6A345F" />
    </radialGradient>
    <radialGradient
      id="orb-rim"
      cx="0"
      cy="0"
      r="1"
      gradientUnits="userSpaceOnUse"
      gradientTransform="translate(438 516) rotate(30) scale(240 540)"
    >
      <stop stop-color="#AFC5D7" stop-opacity="0.82" />
      <stop offset="0.22" stop-color="#7E8996" stop-opacity="0.34" />
      <stop offset="1" stop-color="#7E8996" stop-opacity="0" />
    </radialGradient>
    <radialGradient
      id="soft-white"
      cx="0"
      cy="0"
      r="1"
      gradientUnits="userSpaceOnUse"
      gradientTransform="translate(710 520) rotate(128) scale(330 260)"
    >
      <stop stop-color="#FFF8F3" stop-opacity="0.74" />
      <stop offset="0.52" stop-color="#FFF8F3" stop-opacity="0.2" />
      <stop offset="1" stop-color="#FFF8F3" stop-opacity="0" />
    </radialGradient>
    <radialGradient
      id="gold-bloom"
      cx="0"
      cy="0"
      r="1"
      gradientUnits="userSpaceOnUse"
      gradientTransform="translate(930 612) rotate(166) scale(270 220)"
    >
      <stop stop-color="#FFD77E" stop-opacity="0.82" />
      <stop offset="1" stop-color="#FFD77E" stop-opacity="0" />
    </radialGradient>
    <radialGradient
      id="violet-pocket"
      cx="0"
      cy="0"
      r="1"
      gradientUnits="userSpaceOnUse"
      gradientTransform="translate(500 866) rotate(-26) scale(334 244)"
    >
      <stop stop-color="#6B37A5" stop-opacity="0.54" />
      <stop offset="1" stop-color="#6B37A5" stop-opacity="0" />
    </radialGradient>
    <radialGradient
      id="ember-pocket"
      cx="0"
      cy="0"
      r="1"
      gradientUnits="userSpaceOnUse"
      gradientTransform="translate(620 760) rotate(8) scale(320 180)"
    >
      <stop stop-color="#8C4A53" stop-opacity="0.36" />
      <stop offset="0.58" stop-color="#C46A4A" stop-opacity="0.22" />
      <stop offset="1" stop-color="#C46A4A" stop-opacity="0" />
    </radialGradient>
    <linearGradient id="fold-sheen" x1="290" y1="820" x2="1036" y2="650" gradientUnits="userSpaceOnUse">
      <stop stop-color="#FFF7F0" stop-opacity="0" />
      <stop offset="0.3" stop-color="#FFF7F0" stop-opacity="0.08" />
      <stop offset="0.56" stop-color="#FFF7F0" stop-opacity="0.34" />
      <stop offset="0.82" stop-color="#FFD7B2" stop-opacity="0.18" />
      <stop offset="1" stop-color="#FFD7B2" stop-opacity="0" />
    </linearGradient>
    <linearGradient id="flare-gradient" x1="860" y1="260" x2="1050" y2="736" gradientUnits="userSpaceOnUse">
      <stop stop-color="#F45C4D" />
      <stop offset="0.24" stop-color="#FF8A5D" />
      <stop offset="0.56" stop-color="#FFC37A" />
      <stop offset="0.82" stop-color="#FFE1A7" />
      <stop offset="1" stop-color="#FFF4DB" />
    </linearGradient>
    <linearGradient id="flare-core" x1="870" y1="280" x2="1036" y2="716" gradientUnits="userSpaceOnUse">
      <stop stop-color="#FF9E78" />
      <stop offset="0.48" stop-color="#FFF0CF" />
      <stop offset="1" stop-color="#FFF8ED" />
    </linearGradient>
    <filter
      id="blur-40"
      x="0"
      y="0"
      width="1400"
      height="1400"
      filterUnits="userSpaceOnUse"
      color-interpolation-filters="sRGB"
    >
      <feGaussianBlur stdDeviation="40" />
    </filter>
    <clipPath id="orb-clip">
      <circle cx="700" cy="700" r="360" />
    </clipPath>

    <symbol id="banner-mark" viewBox="0 0 1400 1400">
      <circle cx="700" cy="700" r="472" stroke="#FFFFFF" stroke-opacity="0.03" stroke-width="2" />
      <circle cx="700" cy="700" r="448" stroke="#342129" stroke-opacity="0.66" stroke-width="12" />
      <circle cx="700" cy="700" r="434" stroke="#1A1E28" stroke-opacity="0.96" stroke-width="20" />
      <circle cx="700" cy="700" r="420" stroke="#FFFFFF" stroke-opacity="0.055" stroke-width="2" />
      <circle cx="700" cy="700" r="408" stroke="#FFFFFF" stroke-opacity="0.038" stroke-width="1.4" />
      <circle
        cx="700"
        cy="700"
        r="448"
        stroke="#F3A16E"
        stroke-opacity="0.08"
        stroke-width="6"
        stroke-linecap="round"
        stroke-dasharray="598 2218"
        transform="rotate(-136 700 700)"
      />
      <circle
        cx="700"
        cy="700"
        r="434"
        stroke="#FFFFFF"
        stroke-opacity="0.04"
        stroke-width="2.2"
        stroke-linecap="round"
        stroke-dasharray="536 2130"
        transform="rotate(-136 700 700)"
      />

      <g filter="url(#blur-40)">
        <circle
          cx="700"
          cy="700"
          r="420"
          stroke="#F45C4D"
          stroke-opacity="0.54"
          stroke-width="28"
          stroke-linecap="round"
          stroke-dasharray="688 1952"
          transform="rotate(-66 700 700)"
        />
      </g>
      <circle
        cx="700"
        cy="700"
        r="420"
        stroke="#6D352A"
        stroke-opacity="0.42"
        stroke-width="10"
        stroke-linecap="round"
        stroke-dasharray="688 1952"
        transform="rotate(-66 700 700)"
      />
      <circle
        cx="700"
        cy="700"
        r="420"
        stroke="url(#flare-gradient)"
        stroke-width="8"
        stroke-linecap="round"
        stroke-dasharray="688 1952"
        transform="rotate(-66 700 700)"
      />
      <circle
        cx="700"
        cy="700"
        r="420"
        stroke="url(#flare-core)"
        stroke-width="2.4"
        stroke-linecap="round"
        stroke-dasharray="688 1952"
        transform="rotate(-66 700 700)"
      />
      <circle cx="1072" cy="897" r="23" fill="#FF8D65" fill-opacity="0.18" />
      <circle cx="1072" cy="897" r="9" fill="#FFF3DF" />

      <circle cx="700" cy="700" r="360" fill="url(#orb-base)" />
      <circle cx="700" cy="700" r="360" fill="url(#orb-rim)" />
      <g clip-path="url(#orb-clip)">
        <g filter="url(#blur-40)">
          <ellipse cx="672" cy="538" rx="280" ry="184" fill="url(#soft-white)" />
          <ellipse cx="930" cy="640" rx="246" ry="214" fill="url(#gold-bloom)" />
          <ellipse cx="508" cy="904" rx="286" ry="218" fill="url(#violet-pocket)" />
          <ellipse cx="662" cy="774" rx="316" ry="176" fill="url(#ember-pocket)" />
        </g>

        <path
          d="M330 822C464 734 582 684 704 670C810 658 902 686 1018 760C944 812 868 844 788 858C680 876 560 868 442 840C404 832 368 826 330 822Z"
          fill="url(#fold-sheen)"
        />
        <path
          d="M350 838C466 760 574 724 694 714C808 704 906 726 1012 776C932 814 852 838 766 848C642 864 520 858 402 840C384 838 366 838 350 838Z"
          fill="#F5E3D2"
          fill-opacity="0.11"
        />
        <path
          d="M404 542C518 494 634 492 752 530C842 560 938 626 1038 724"
          stroke="#FFF7F1"
          stroke-opacity="0.16"
          stroke-width="22"
          stroke-linecap="round"
        />
        <path
          d="M344 930C456 908 574 916 706 956C820 990 910 1040 988 1110"
          stroke="#E2B2A0"
          stroke-opacity="0.1"
          stroke-width="24"
          stroke-linecap="round"
        />
        <circle cx="1118" cy="490" r="50" fill="#FFF9F2" fill-opacity="0.9" />
        <circle cx="664" cy="556" r="190" fill="url(#soft-white)" />
      </g>

      <circle cx="700" cy="700" r="360" fill="none" stroke="#FFF8F2" stroke-opacity="0.14" stroke-width="2" />
    </symbol>
  </defs>

  <rect width="1600" height="520" fill="url(#banner-bg)" />
  <circle cx="470" cy="264" r="250" fill="url(#banner-left-glow)" />
  <circle cx="1220" cy="160" r="320" fill="url(#banner-right-glow)" />

  <g opacity="0.84">
    <circle cx="1180" cy="98" r="4" fill="#FFF8F2" fill-opacity="0.72" />
    <circle cx="1308" cy="130" r="3" fill="#7E8996" />
    <circle cx="1452" cy="176" r="5" fill="#F26426" />
    <circle cx="1104" cy="390" r="4" fill="#B23C3B" />
    <circle cx="1268" cy="422" r="3" fill="#FFF8F2" fill-opacity="0.72" />
    <circle cx="238" cy="122" r="3" fill="#FFF8F2" fill-opacity="0.72" />
    <circle cx="400" cy="88" r="4" fill="#F26426" />
    <circle cx="174" cy="378" r="4" fill="#7E8996" />
  </g>

  <svg x="362" y="122" width="276" height="276" viewBox="140 140 1120 1120" overflow="visible">
    <use href="#banner-mark" />
  </svg>

  <text
    x="688"
    y="210"
    font-family="'Helvetica Neue', Arial, sans-serif"
    font-size="110"
    font-weight="700"
    fill="#FFF8F2"
    letter-spacing="6"
  >
    CURYO
  </text>
  <text
    x="696"
    y="274"
    font-family="'Helvetica Neue', Arial, sans-serif"
    font-size="38"
    font-weight="700"
    fill="#FFF8F2"
    letter-spacing=".4"
  >
    <tspan x="696" dy="0">AI Asks.</tspan>
    <tspan x="696" dy="46">Humans Stake.</tspan>
  </text>
  <text
    x="696"
    y="364"
    font-family="'Helvetica Neue', Arial, sans-serif"
    font-size="21"
    font-weight="400"
    fill="#A7AFB8"
    letter-spacing=".2"
  >
    <tspan x="696" dy="0">Get Verified, Rate With Reputation, and Earn USDC</tspan>
  </text>
  <rect x="696" y="420" width="446" height="2" rx="1" fill="#B23C3B" />
</svg>
