<svg width="64" height="64" viewBox="0 0 1024 1024" fill="none" xmlns="http://www.w3.org/2000/svg">
  <defs>
    <radialGradient id="favicon-planet-base" cx="0" cy="0" r="1" gradientUnits="userSpaceOnUse" gradientTransform="translate(636 360) rotate(130) scale(514 494)">
      <stop stop-color="#FFF0E0" />
      <stop offset="0.15" stop-color="#F6A05D" />
      <stop offset="0.34" stop-color="#E55A27" />
      <stop offset="0.58" stop-color="#A6321D" />
      <stop offset="0.8" stop-color="#43201A" />
      <stop offset="1" stop-color="#0F0F12" />
    </radialGradient>
    <radialGradient id="favicon-planet-shadow" cx="0" cy="0" r="1" gradientUnits="userSpaceOnUse" gradientTransform="translate(382 664) rotate(-28) scale(248 162)">
      <stop stop-color="#08090B" stop-opacity="0.86" />
      <stop offset="1" stop-color="#08090B" stop-opacity="0" />
    </radialGradient>
    <radialGradient id="favicon-planet-highlight" cx="0" cy="0" r="1" gradientUnits="userSpaceOnUse" gradientTransform="translate(670 338) rotate(138) scale(192 126)">
      <stop stop-color="#FFF7EF" stop-opacity="0.68" />
      <stop offset="0.48" stop-color="#FFF7EF" stop-opacity="0.23" />
      <stop offset="1" stop-color="#FFF7EF" stop-opacity="0" />
    </radialGradient>
    <linearGradient id="favicon-flare-gradient" x1="674" y1="146" x2="906" y2="704" gradientUnits="userSpaceOnUse">
      <stop stop-color="#F45C4D" />
      <stop offset="0.24" stop-color="#FF8A5D" />
      <stop offset="0.56" stop-color="#FFC37A" />
      <stop offset="0.82" stop-color="#FFE1A7" />
      <stop offset="1" stop-color="#FFF4DB" />
    </linearGradient>
    <linearGradient id="favicon-flare-core" x1="684" y1="160" x2="892" y2="690" gradientUnits="userSpaceOnUse">
      <stop stop-color="#FF9E78" />
      <stop offset="0.48" stop-color="#FFF0CF" />
      <stop offset="1" stop-color="#FFF8ED" />
    </linearGradient>
    <filter id="favicon-soft-blur-20" x="0" y="0" width="1024" height="1024" filterUnits="userSpaceOnUse" color-interpolation-filters="sRGB">
      <feGaussianBlur stdDeviation="20" />
    </filter>
    <filter id="favicon-soft-blur-28" x="0" y="0" width="1024" height="1024" filterUnits="userSpaceOnUse" color-interpolation-filters="sRGB">
      <feGaussianBlur stdDeviation="28" />
    </filter>
    <clipPath id="favicon-planet-clip">
      <circle cx="512" cy="512" r="344" />
    </clipPath>
  </defs>

  <circle cx="512" cy="512" r="458" stroke="#FFFFFF" stroke-opacity="0.03" stroke-width="2" />
  <circle cx="512" cy="512" r="434" stroke="#342129" stroke-opacity="0.66" stroke-width="12" />
  <circle cx="512" cy="512" r="420" stroke="#1A1E28" stroke-opacity="0.96" stroke-width="20" />
  <circle cx="512" cy="512" r="406" stroke="#FFFFFF" stroke-opacity="0.055" stroke-width="2" />
  <circle cx="512" cy="512" r="394" stroke="#FFFFFF" stroke-opacity="0.038" stroke-width="1.4" />
  <circle cx="512" cy="512" r="434" stroke="#F3A16E" stroke-opacity="0.08" stroke-width="6" stroke-linecap="round" stroke-dasharray="580 2147" transform="rotate(-136 512 512)" />
  <circle cx="512" cy="512" r="420" stroke="#FFFFFF" stroke-opacity="0.04" stroke-width="2.2" stroke-linecap="round" stroke-dasharray="520 2119" transform="rotate(-136 512 512)" />

  <g filter="url(#favicon-soft-blur-28)">
    <circle cx="512" cy="512" r="406" stroke="#F45C4D" stroke-opacity="0.54" stroke-width="28" stroke-linecap="round" stroke-dasharray="666 1885" transform="rotate(-66 512 512)" />
  </g>
  <circle cx="512" cy="512" r="406" stroke="#6D352A" stroke-opacity="0.42" stroke-width="10" stroke-linecap="round" stroke-dasharray="666 1885" transform="rotate(-66 512 512)" />
  <circle cx="512" cy="512" r="406" stroke="url(#favicon-flare-gradient)" stroke-width="8" stroke-linecap="round" stroke-dasharray="666 1885" transform="rotate(-66 512 512)" />
  <circle cx="512" cy="512" r="406" stroke="url(#favicon-flare-core)" stroke-width="2.4" stroke-linecap="round" stroke-dasharray="666 1885" transform="rotate(-66 512 512)" />
  <circle cx="871" cy="703" r="23" fill="#FF8D65" fill-opacity="0.18" />
  <circle cx="871" cy="703" r="9" fill="#FFF3DF" />

  <circle cx="512" cy="512" r="344" fill="url(#favicon-planet-base)" />
  <g clip-path="url(#favicon-planet-clip)">
    <g filter="url(#favicon-soft-blur-20)">
      <ellipse cx="330" cy="392" rx="204" ry="154" fill="#B52E1B" fill-opacity="0.32" />
      <ellipse cx="604" cy="320" rx="246" ry="172" fill="#F16A2D" fill-opacity="0.28" />
      <ellipse cx="706" cy="444" rx="234" ry="154" fill="#FFD2AE" fill-opacity="0.2" />
      <ellipse cx="612" cy="656" rx="268" ry="154" fill="#4C261D" fill-opacity="0.28" />
      <ellipse cx="344" cy="706" rx="286" ry="176" fill="#0D0D10" fill-opacity="0.72" />
    </g>
    <path d="M132 312C242 264 356 264 476 290C578 312 678 322 814 316" stroke="#FFFFFF" stroke-opacity="0.11" stroke-width="16" stroke-linecap="round" />
    <path d="M120 418C236 372 354 378 474 406C578 430 676 440 810 434" stroke="#FFFFFF" stroke-opacity="0.1" stroke-width="13" stroke-linecap="round" />
    <path d="M118 522C236 478 356 486 478 516C582 542 676 552 806 546" stroke="#FFFFFF" stroke-opacity="0.08" stroke-width="11" stroke-linecap="round" />
    <path d="M132 648C236 612 356 614 478 642C584 668 680 678 810 668" stroke="#FFFFFF" stroke-opacity="0.075" stroke-width="14" stroke-linecap="round" />
    <path d="M110 760C224 724 350 724 482 748C590 768 684 778 816 770" stroke="#4B261D" stroke-opacity="0.3" stroke-width="24" stroke-linecap="round" />
    <path d="M94 578C206 536 320 538 438 564C540 586 638 604 768 594C828 590 874 578 910 554" stroke="#E59A66" stroke-opacity="0.14" stroke-width="24" stroke-linecap="round" />
    <circle cx="640" cy="430" r="18" fill="#FFF2E2" fill-opacity="0.14" />
    <circle cx="332" cy="414" r="14" fill="#FFF2E2" fill-opacity="0.08" />
    <circle cx="596" cy="570" r="20" fill="#FFF2E2" fill-opacity="0.1" />
    <circle cx="370" cy="804" r="16" fill="#FFF2E2" fill-opacity="0.05" />
  </g>

  <circle cx="512" cy="512" r="344" fill="url(#favicon-planet-shadow)" />
  <g filter="url(#favicon-soft-blur-28)">
    <ellipse cx="644" cy="340" rx="154" ry="106" fill="#FFF4E2" fill-opacity="0.22" />
  </g>
  <circle cx="512" cy="512" r="344" fill="url(#favicon-planet-highlight)" />
  <circle cx="512" cy="512" r="344" fill="none" stroke="#FFFFFF" stroke-opacity="0.15" stroke-width="1.4" />
</svg>
