<svg width="64" height="64" viewBox="0 0 1024 1024" fill="none" xmlns="http://www.w3.org/2000/svg">
  <defs>
    <radialGradient id="favicon-planet-base" cx="0" cy="0" r="1" gradientUnits="userSpaceOnUse" gradientTransform="translate(636 360) rotate(130) scale(514 494)">
      <stop stop-color="#FFF8F2" />
      <stop offset="0.18" stop-color="#F8E1D0" />
      <stop offset="0.34" stop-color="#F7B070" />
      <stop offset="0.56" stop-color="#F26426" />
      <stop offset="0.78" stop-color="#B23C3B" />
      <stop offset="1" stop-color="#6A345F" />
    </radialGradient>
    <radialGradient id="favicon-planet-shadow" cx="0" cy="0" r="1" gradientUnits="userSpaceOnUse" gradientTransform="translate(600 742) rotate(8) scale(324 188)">
      <stop stop-color="#8C4A53" stop-opacity="0.32" />
      <stop offset="0.58" stop-color="#C46A4A" stop-opacity="0.2" />
      <stop offset="1" stop-color="#C46A4A" stop-opacity="0" />
    </radialGradient>
    <radialGradient id="favicon-planet-highlight" cx="0" cy="0" r="1" gradientUnits="userSpaceOnUse" gradientTransform="translate(674 366) rotate(134) scale(280 228)">
      <stop stop-color="#FFF8F3" stop-opacity="0.72" />
      <stop offset="0.5" stop-color="#FFF8F3" stop-opacity="0.18" />
      <stop offset="1" stop-color="#FFF8F3" stop-opacity="0" />
    </radialGradient>
    <radialGradient id="favicon-orb-soft-white" cx="0" cy="0" r="1" gradientUnits="userSpaceOnUse" gradientTransform="translate(612 454) rotate(128) scale(310 236)">
      <stop stop-color="#FFF8F3" stop-opacity="0.74" />
      <stop offset="0.52" stop-color="#FFF8F3" stop-opacity="0.2" />
      <stop offset="1" stop-color="#FFF8F3" stop-opacity="0" />
    </radialGradient>
    <radialGradient id="favicon-orb-gold-bloom" cx="0" cy="0" r="1" gradientUnits="userSpaceOnUse" gradientTransform="translate(724 566) rotate(166) scale(264 216)">
      <stop stop-color="#FFD77E" stop-opacity="0.8" />
      <stop offset="1" stop-color="#FFD77E" stop-opacity="0" />
    </radialGradient>
    <radialGradient id="favicon-orb-violet-pocket" cx="0" cy="0" r="1" gradientUnits="userSpaceOnUse" gradientTransform="translate(370 662) rotate(-26) scale(274 210)">
      <stop stop-color="#6B37A5" stop-opacity="0.52" />
      <stop offset="1" stop-color="#6B37A5" stop-opacity="0" />
    </radialGradient>
    <linearGradient id="favicon-orb-fold-sheen" x1="188" y1="600" x2="744" y2="470" gradientUnits="userSpaceOnUse">
      <stop stop-color="#FFF7F0" stop-opacity="0" />
      <stop offset="0.3" stop-color="#FFF7F0" stop-opacity="0.08" />
      <stop offset="0.56" stop-color="#FFF7F0" stop-opacity="0.34" />
      <stop offset="0.82" stop-color="#FFD7B2" stop-opacity="0.18" />
      <stop offset="1" stop-color="#FFD7B2" stop-opacity="0" />
    </linearGradient>
    <linearGradient id="favicon-flare-gradient" x1="674" y1="146" x2="906" y2="704" gradientUnits="userSpaceOnUse">
      <stop stop-color="#F45C4D" />
      <stop offset="0.24" stop-color="#FF8A5D" />
      <stop offset="0.56" stop-color="#FFC37A" />
      <stop offset="0.82" stop-color="#FFE1A7" />
      <stop offset="1" stop-color="#FFF4DB" />
    </linearGradient>
    <linearGradient id="favicon-flare-core" x1="684" y1="160" x2="892" y2="690" gradientUnits="userSpaceOnUse">
      <stop stop-color="#FF9E78" />
      <stop offset="0.48" stop-color="#FFF0CF" />
      <stop offset="1" stop-color="#FFF8ED" />
    </linearGradient>
    <filter id="favicon-soft-blur-20" x="0" y="0" width="1024" height="1024" filterUnits="userSpaceOnUse" color-interpolation-filters="sRGB">
      <feGaussianBlur stdDeviation="20" />
    </filter>
    <filter id="favicon-soft-blur-28" x="0" y="0" width="1024" height="1024" filterUnits="userSpaceOnUse" color-interpolation-filters="sRGB">
      <feGaussianBlur stdDeviation="28" />
    </filter>
    <clipPath id="favicon-planet-clip">
      <circle cx="512" cy="512" r="344" />
    </clipPath>
  </defs>

  <circle cx="512" cy="512" r="458" stroke="#FFFFFF" stroke-opacity="0.03" stroke-width="2" />
  <circle cx="512" cy="512" r="434" stroke="#342129" stroke-opacity="0.66" stroke-width="12" />
  <circle cx="512" cy="512" r="420" stroke="#1A1E28" stroke-opacity="0.96" stroke-width="20" />
  <circle cx="512" cy="512" r="406" stroke="#FFFFFF" stroke-opacity="0.055" stroke-width="2" />
  <circle cx="512" cy="512" r="394" stroke="#FFFFFF" stroke-opacity="0.038" stroke-width="1.4" />
  <circle cx="512" cy="512" r="434" stroke="#F3A16E" stroke-opacity="0.08" stroke-width="6" stroke-linecap="round" stroke-dasharray="580 2147" transform="rotate(-136 512 512)" />
  <circle cx="512" cy="512" r="420" stroke="#FFFFFF" stroke-opacity="0.04" stroke-width="2.2" stroke-linecap="round" stroke-dasharray="520 2119" transform="rotate(-136 512 512)" />

  <g filter="url(#favicon-soft-blur-28)">
    <circle cx="512" cy="512" r="406" stroke="#F45C4D" stroke-opacity="0.54" stroke-width="28" stroke-linecap="round" stroke-dasharray="666 1885" transform="rotate(-66 512 512)" />
  </g>
  <circle cx="512" cy="512" r="406" stroke="#6D352A" stroke-opacity="0.42" stroke-width="10" stroke-linecap="round" stroke-dasharray="666 1885" transform="rotate(-66 512 512)" />
  <circle cx="512" cy="512" r="406" stroke="url(#favicon-flare-gradient)" stroke-width="8" stroke-linecap="round" stroke-dasharray="666 1885" transform="rotate(-66 512 512)" />
  <circle cx="512" cy="512" r="406" stroke="url(#favicon-flare-core)" stroke-width="2.4" stroke-linecap="round" stroke-dasharray="666 1885" transform="rotate(-66 512 512)" />
  <circle cx="871" cy="703" r="23" fill="#FF8D65" fill-opacity="0.18" />
  <circle cx="871" cy="703" r="9" fill="#FFF3DF" />

  <circle cx="512" cy="512" r="344" fill="url(#favicon-planet-base)" />
  <circle cx="512" cy="512" r="344" fill="url(#favicon-planet-shadow)" />
  <g clip-path="url(#favicon-planet-clip)">
    <g filter="url(#favicon-soft-blur-20)">
      <ellipse cx="502" cy="430" rx="268" ry="176" fill="url(#favicon-orb-soft-white)" />
      <ellipse cx="726" cy="586" rx="236" ry="204" fill="url(#favicon-orb-gold-bloom)" />
      <ellipse cx="370" cy="714" rx="274" ry="208" fill="url(#favicon-orb-violet-pocket)" />
      <ellipse cx="562" cy="650" rx="302" ry="170" fill="url(#favicon-planet-shadow)" />
    </g>
    <path d="M188 602C322 514 440 464 562 452C668 440 760 468 876 542C802 594 726 626 646 640C538 658 418 650 300 620C262 612 226 606 188 602Z" fill="url(#favicon-orb-fold-sheen)" />
    <path d="M210 618C330 560 444 538 550 540C654 542 748 568 826 618C744 658 652 678 546 678C430 676 320 656 210 618Z" fill="#F5E3D2" fill-opacity="0.11" />
    <path d="M244 378C358 326 470 324 582 360C668 388 754 446 842 536" stroke="#FFF7F1" stroke-opacity="0.16" stroke-width="20" stroke-linecap="round" />
    <path d="M184 714C294 692 410 700 538 738C648 772 736 820 810 886" stroke="#E2B2A0" stroke-opacity="0.1" stroke-width="22" stroke-linecap="round" />
    <circle cx="286" cy="400" r="14" fill="#FFF2E2" fill-opacity="0.08" />
    <circle cx="668" cy="360" r="46" fill="#FFF9F2" fill-opacity="0.9" />
  </g>

  <g filter="url(#favicon-soft-blur-28)">
    <ellipse cx="486" cy="406" rx="164" ry="128" fill="#FFF4E2" fill-opacity="0.22" />
  </g>
  <circle cx="512" cy="512" r="344" fill="url(#favicon-planet-highlight)" />
  <circle cx="512" cy="512" r="344" fill="none" stroke="#FFFFFF" stroke-opacity="0.15" stroke-width="1.4" />
</svg>
