<svg xmlns="http://www.w3.org/2000/svg" viewBox="0 0 128 128" width="128" height="128" fill="none">
  <defs>
    <linearGradient id="curyo-top-right" x1="64" y1="18" x2="110" y2="64" gradientUnits="userSpaceOnUse">
      <stop offset="0" stop-color="#FFC43D" />
      <stop offset="1" stop-color="#EF476F" />
    </linearGradient>
    <linearGradient id="curyo-bottom-right" x1="110" y1="64" x2="64" y2="110" gradientUnits="userSpaceOnUse">
      <stop offset="0" stop-color="#EF476F" />
      <stop offset="1" stop-color="#359EEE" />
    </linearGradient>
    <linearGradient id="curyo-bottom-left" x1="64" y1="110" x2="18" y2="64" gradientUnits="userSpaceOnUse">
      <stop offset="0" stop-color="#359EEE" />
      <stop offset="1" stop-color="#03CEA4" />
    </linearGradient>
    <linearGradient id="curyo-top-left" x1="18" y1="64" x2="64" y2="18" gradientUnits="userSpaceOnUse">
      <stop offset="0" stop-color="#03CEA4" />
      <stop offset="1" stop-color="#FFC43D" />
    </linearGradient>
    <mask id="curyo-ring-mask">
      <rect width="128" height="128" fill="black" />
      <g transform="rotate(-22.5 64 64)">
        <circle cx="64" cy="64" r="46" fill="white" />
        <circle cx="64" cy="60.5" r="41.5" fill="black" />
      </g>
    </mask>
  </defs>

  <g mask="url(#curyo-ring-mask)" transform="rotate(-22.5 64 64)">
    <path d="M64 18 A46 46 0 0 1 110 64" stroke="url(#curyo-top-right)" stroke-width="18" stroke-linecap="round" />
    <path
      d="M110 64 A46 46 0 0 1 64 110"
      stroke="url(#curyo-bottom-right)"
      stroke-width="18"
      stroke-linecap="round"
    />
    <path d="M64 110 A46 46 0 0 1 18 64" stroke="url(#curyo-bottom-left)" stroke-width="18" stroke-linecap="round" />
    <path d="M18 64 A46 46 0 0 1 64 18" stroke="url(#curyo-top-left)" stroke-width="18" stroke-linecap="round" />
  </g>
</svg>
