<svg xmlns="http://www.w3.org/2000/svg" viewBox="0 0 1200 630" width="1200" height="630" fill="none">
  <defs>
    <linearGradient id="bg" x1="0" y1="0" x2="1200" y2="630" gradientUnits="userSpaceOnUse">
      <stop offset="0" stop-color="#060812" />
      <stop offset="1" stop-color="#0B0E16" />
    </linearGradient>
    <radialGradient id="halo" cx="600" cy="188" r="240" gradientUnits="userSpaceOnUse">
      <stop offset="0" stop-color="#0F1D33" stop-opacity="0.5" />
      <stop offset="0.65" stop-color="#08101D" stop-opacity="0.18" />
      <stop offset="1" stop-color="#060812" stop-opacity="0" />
    </radialGradient>

    <linearGradient id="curyo-top-right" x1="600" y1="64" x2="724" y2="188" gradientUnits="userSpaceOnUse">
      <stop offset="0" stop-color="#FFC43D" />
      <stop offset="1" stop-color="#EF476F" />
    </linearGradient>
    <linearGradient id="curyo-bottom-right" x1="724" y1="188" x2="600" y2="312" gradientUnits="userSpaceOnUse">
      <stop offset="0" stop-color="#EF476F" />
      <stop offset="1" stop-color="#359EEE" />
    </linearGradient>
    <linearGradient id="curyo-bottom-left" x1="600" y1="312" x2="476" y2="188" gradientUnits="userSpaceOnUse">
      <stop offset="0" stop-color="#359EEE" />
      <stop offset="1" stop-color="#03CEA4" />
    </linearGradient>
    <linearGradient id="curyo-top-left" x1="476" y1="188" x2="600" y2="64" gradientUnits="userSpaceOnUse">
      <stop offset="0" stop-color="#03CEA4" />
      <stop offset="1" stop-color="#FFC43D" />
    </linearGradient>
    <mask id="curyo-ring-mask">
      <rect width="1200" height="630" fill="black" />
      <g transform="rotate(-22.5 600 188)">
        <circle cx="600" cy="188" r="124" fill="white" />
        <circle cx="600" cy="178.5" r="111" fill="black" />
      </g>
    </mask>
  </defs>

  <rect width="1200" height="630" fill="url(#bg)" />
  <circle cx="600" cy="188" r="240" fill="url(#halo)" />

  <g mask="url(#curyo-ring-mask)" transform="rotate(-22.5 600 188)">
    <path d="M600 64 A124 124 0 0 1 724 188" stroke="url(#curyo-top-right)" stroke-width="48" stroke-linecap="round" />
    <path
      d="M724 188 A124 124 0 0 1 600 312"
      stroke="url(#curyo-bottom-right)"
      stroke-width="48"
      stroke-linecap="round"
    />
    <path
      d="M600 312 A124 124 0 0 1 476 188"
      stroke="url(#curyo-bottom-left)"
      stroke-width="48"
      stroke-linecap="round"
    />
    <path d="M476 188 A124 124 0 0 1 600 64" stroke="url(#curyo-top-left)" stroke-width="48" stroke-linecap="round" />
  </g>

  <text
    x="600"
    y="410"
    font-family="'Space Grotesk', 'Inter', 'Segoe UI', sans-serif"
    font-size="116"
    font-weight="700"
    fill="white"
    text-anchor="middle"
    letter-spacing="8"
  >
    CURYO
  </text>
  <text
    x="600"
    y="482"
    font-family="'Inter', 'Segoe UI', sans-serif"
    font-size="28"
    fill="#8A8F9C"
    text-anchor="middle"
    letter-spacing="1.5"
  >
    The Reputation Game for the Age of AI
  </text>
</svg>
