<svg xmlns="http://www.w3.org/2000/svg" viewBox="0 0 1200 630" width="1200" height="630" fill="none">
  <defs>
    <linearGradient id="og-bg" x1="0" y1="0" x2="1200" y2="630" gradientUnits="userSpaceOnUse">
      <stop offset="0%" stop-color="#020307" />
      <stop offset="50%" stop-color="#070B16" />
      <stop offset="100%" stop-color="#101726" />
    </linearGradient>
    <radialGradient id="og-left-glow" cx="248" cy="324" r="314" gradientUnits="userSpaceOnUse">
      <stop offset="0%" stop-color="#162036" stop-opacity="0.56" />
      <stop offset="50%" stop-color="#0B1324" stop-opacity="0.18" />
      <stop offset="100%" stop-color="#05070D" stop-opacity="0" />
    </radialGradient>
    <radialGradient id="og-core-glow" cx="306" cy="308" r="170" gradientUnits="userSpaceOnUse">
      <stop offset="0%" stop-color="#F26426" stop-opacity="0.18" />
      <stop offset="52%" stop-color="#6B37A5" stop-opacity="0.1" />
      <stop offset="100%" stop-color="#7E8996" stop-opacity="0" />
    </radialGradient>

    <radialGradient id="og-mark-orb-base" cx="0" cy="0" r="1" gradientUnits="userSpaceOnUse" gradientTransform="translate(856 450) rotate(136) scale(720 702)">
      <stop stop-color="#FFF8F2" />
      <stop offset="0.18" stop-color="#F8E1D0" />
      <stop offset="0.34" stop-color="#F7B070" />
      <stop offset="0.56" stop-color="#F26426" />
      <stop offset="0.78" stop-color="#B23C3B" />
      <stop offset="1" stop-color="#6A345F" />
    </radialGradient>
    <radialGradient id="og-mark-orb-rim" cx="0" cy="0" r="1" gradientUnits="userSpaceOnUse" gradientTransform="translate(438 516) rotate(30) scale(240 540)">
      <stop stop-color="#AFC5D7" stop-opacity="0.82" />
      <stop offset="0.22" stop-color="#7E8996" stop-opacity="0.34" />
      <stop offset="1" stop-color="#7E8996" stop-opacity="0" />
    </radialGradient>
    <radialGradient id="og-mark-soft-white" cx="0" cy="0" r="1" gradientUnits="userSpaceOnUse" gradientTransform="translate(710 520) rotate(128) scale(330 260)">
      <stop stop-color="#FFF8F3" stop-opacity="0.74" />
      <stop offset="0.52" stop-color="#FFF8F3" stop-opacity="0.2" />
      <stop offset="1" stop-color="#FFF8F3" stop-opacity="0" />
    </radialGradient>
    <radialGradient id="og-mark-coral-bloom" cx="0" cy="0" r="1" gradientUnits="userSpaceOnUse" gradientTransform="translate(910 754) rotate(158) scale(294 236)">
      <stop stop-color="#FFD77E" stop-opacity="0.82" />
      <stop offset="1" stop-color="#FFD77E" stop-opacity="0" />
    </radialGradient>
    <radialGradient id="og-mark-violet-pocket" cx="0" cy="0" r="1" gradientUnits="userSpaceOnUse" gradientTransform="translate(500 866) rotate(-26) scale(334 244)">
      <stop stop-color="#6B37A5" stop-opacity="0.54" />
      <stop offset="1" stop-color="#6B37A5" stop-opacity="0" />
    </radialGradient>
    <radialGradient id="og-mark-blue-pocket" cx="0" cy="0" r="1" gradientUnits="userSpaceOnUse" gradientTransform="translate(620 760) rotate(8) scale(320 180)">
      <stop stop-color="#8C4A53" stop-opacity="0.36" />
      <stop offset="0.58" stop-color="#C46A4A" stop-opacity="0.22" />
      <stop offset="1" stop-color="#C46A4A" stop-opacity="0" />
    </radialGradient>
    <linearGradient id="og-mark-fold-sheen" x1="290" y1="820" x2="1036" y2="650" gradientUnits="userSpaceOnUse">
      <stop stop-color="#FFF7F0" stop-opacity="0" />
      <stop offset="0.3" stop-color="#FFF7F0" stop-opacity="0.08" />
      <stop offset="0.56" stop-color="#FFF7F0" stop-opacity="0.34" />
      <stop offset="0.82" stop-color="#FFD7B2" stop-opacity="0.18" />
      <stop offset="1" stop-color="#FFD7B2" stop-opacity="0" />
    </linearGradient>
    <linearGradient id="og-mark-flare-gradient" x1="860" y1="260" x2="1050" y2="736" gradientUnits="userSpaceOnUse">
      <stop stop-color="#F45C4D" />
      <stop offset="0.24" stop-color="#FF8A5D" />
      <stop offset="0.56" stop-color="#FFC37A" />
      <stop offset="0.82" stop-color="#FFE1A7" />
      <stop offset="1" stop-color="#FFF4DB" />
    </linearGradient>
    <linearGradient id="og-mark-flare-core" x1="870" y1="280" x2="1036" y2="716" gradientUnits="userSpaceOnUse">
      <stop stop-color="#FF9E78" />
      <stop offset="0.48" stop-color="#FFF0CF" />
      <stop offset="1" stop-color="#FFF8ED" />
    </linearGradient>
    <filter id="og-mark-blur-40" x="0" y="0" width="1400" height="1400" filterUnits="userSpaceOnUse" color-interpolation-filters="sRGB">
      <feGaussianBlur stdDeviation="40" />
    </filter>
    <clipPath id="og-mark-orb-clip">
      <circle cx="700" cy="700" r="360" />
    </clipPath>

    <symbol id="og-mark" viewBox="0 0 1400 1400">
      <circle cx="700" cy="700" r="472" stroke="#FFFFFF" stroke-opacity="0.03" stroke-width="2" />
      <circle cx="700" cy="700" r="448" stroke="#342129" stroke-opacity="0.66" stroke-width="12" />
      <circle cx="700" cy="700" r="434" stroke="#1A1E28" stroke-opacity="0.96" stroke-width="20" />
      <circle cx="700" cy="700" r="420" stroke="#FFFFFF" stroke-opacity="0.055" stroke-width="2" />
      <circle cx="700" cy="700" r="408" stroke="#FFFFFF" stroke-opacity="0.038" stroke-width="1.4" />
      <circle cx="700" cy="700" r="448" stroke="#F3A16E" stroke-opacity="0.08" stroke-width="6" stroke-linecap="round" stroke-dasharray="598 2218" transform="rotate(-136 700 700)" />
      <circle cx="700" cy="700" r="434" stroke="#FFFFFF" stroke-opacity="0.04" stroke-width="2.2" stroke-linecap="round" stroke-dasharray="536 2130" transform="rotate(-136 700 700)" />

      <g filter="url(#og-mark-blur-40)">
        <circle cx="700" cy="700" r="420" stroke="#F45C4D" stroke-opacity="0.54" stroke-width="28" stroke-linecap="round" stroke-dasharray="689.1 1949.9" transform="rotate(-66 700 700)" />
      </g>
      <circle cx="700" cy="700" r="420" stroke="#6D352A" stroke-opacity="0.42" stroke-width="10" stroke-linecap="round" stroke-dasharray="689.1 1949.9" transform="rotate(-66 700 700)" />
      <circle cx="700" cy="700" r="420" stroke="url(#og-mark-flare-gradient)" stroke-width="8" stroke-linecap="round" stroke-dasharray="689.1 1949.9" transform="rotate(-66 700 700)" />
      <circle cx="700" cy="700" r="420" stroke="url(#og-mark-flare-core)" stroke-width="2.4" stroke-linecap="round" stroke-dasharray="689.1 1949.9" transform="rotate(-66 700 700)" />
      <circle cx="1070.8" cy="897.2" r="23" fill="#FF8D65" fill-opacity="0.18" />
      <circle cx="1070.8" cy="897.2" r="9" fill="#FFF3DF" />

      <circle cx="700" cy="700" r="360" fill="url(#og-mark-orb-base)" />
      <circle cx="700" cy="700" r="360" fill="url(#og-mark-orb-rim)" />
      <g clip-path="url(#og-mark-orb-clip)">
        <g filter="url(#og-mark-blur-40)">
          <ellipse cx="672" cy="538" rx="280" ry="184" fill="url(#og-mark-soft-white)" />
          <ellipse cx="930" cy="640" rx="246" ry="214" fill="url(#og-mark-coral-bloom)" />
          <ellipse cx="508" cy="904" rx="286" ry="218" fill="url(#og-mark-violet-pocket)" />
          <ellipse cx="662" cy="774" rx="316" ry="176" fill="url(#og-mark-blue-pocket)" />
        </g>
        <path d="M330 822C464 734 582 684 704 670C810 658 902 686 1018 760C944 812 868 844 788 858C680 876 560 868 442 840C404 832 368 826 330 822Z" fill="url(#og-mark-fold-sheen)" />
        <path d="M350 838C466 760 574 724 694 714C808 704 906 726 1012 776C932 814 852 838 766 848C642 864 520 858 402 840C384 838 366 838 350 838Z" fill="#F5E3D2" fill-opacity="0.11" />
        <path d="M404 542C518 494 634 492 752 530C842 560 938 626 1038 724" stroke="#FFF7F1" stroke-opacity="0.16" stroke-width="22" stroke-linecap="round" />
        <path d="M344 930C456 908 574 916 706 956C820 990 910 1040 988 1110" stroke="#E2B2A0" stroke-opacity="0.1" stroke-width="24" stroke-linecap="round" />
        <circle cx="1118" cy="490" r="50" fill="#FFF9F2" fill-opacity="0.9" />
        <circle cx="664" cy="556" r="190" fill="url(#og-mark-soft-white)" />
      </g>

      <circle cx="700" cy="700" r="360" fill="none" stroke="#FFF8F2" stroke-opacity="0.14" stroke-width="2" />
    </symbol>
  </defs>

  <rect width="1200" height="630" fill="url(#og-bg)" />
  <circle cx="248" cy="324" r="314" fill="url(#og-left-glow)" />
  <circle cx="306" cy="308" r="170" fill="url(#og-core-glow)" />

  <g opacity="0.86">
    <circle cx="850" cy="112" r="4" fill="#FFDCE7" />
    <circle cx="972" cy="86" r="5" fill="#FFFFFF" fill-opacity="0.72" />
    <circle cx="1088" cy="138" r="4" fill="#359EEE" />
    <circle cx="1126" cy="458" r="4" fill="#F7B070" />
    <circle cx="924" cy="498" r="3" fill="#FFD77E" />
    <circle cx="202" cy="138" r="3" fill="#FFFFFF" fill-opacity="0.72" />
  </g>

  <use href="#og-mark" transform="translate(18 118) scale(0.285)" />

  <text
    x="430"
    y="288"
    font-family="'Helvetica Neue', Arial, sans-serif"
    font-size="120"
    font-weight="700"
    fill="#FFFFFF"
    letter-spacing="8"
  >
    CURYO
  </text>
  <text
    x="436"
    y="366"
    font-family="'Helvetica Neue', Arial, sans-serif"
    font-size="30"
    font-weight="400"
    fill="#A7B0C7"
    letter-spacing=".2"
  >
    <tspan x="436" dy="0">A Better Web,</tspan>
    <tspan x="436" dy="36">Guided by Human Reputation</tspan>
  </text>
  <rect x="436" y="434" width="430" height="2" rx="1" fill="#1C2740" />
</svg>
