<svg xmlns="http://www.w3.org/2000/svg" viewBox="0 0 190 28">
  <defs>
    <linearGradient id="tmdb-grad" x1="0%" y1="0%" x2="100%" y2="0%">
      <stop offset="0%" style="stop-color:#90cea1"/>
      <stop offset="50%" style="stop-color:#3cbec9"/>
      <stop offset="100%" style="stop-color:#00b3e5"/>
    </linearGradient>
  </defs>
  <g fill="url(#tmdb-grad)">
    <path d="M17.32 8.88h-4.37V1.62H6.07v7.26H1.7v3.79h4.37v12.11h6.88V12.67h4.37V8.88z"/>
    <path d="M40.38 1.62h-5.62l-4.16 9.12-4.16-9.12h-5.62v23.16h6.07V12.48l3.71 8.15h0l3.71-8.15v12.3h6.07V1.62z"/>
    <path d="M61.94 8.88h-7.96V1.62h-6.88v23.16h6.88v-9.19h7.96v9.19h6.88V1.62h-6.88v7.26z"/>
    <path d="M89.99 8.88h-4.37V1.62H78.74v23.16H92.1c5.75 0 9.24-3.12 9.24-8.72s-3.49-6.18-9.24-6.18h-2.11zm1.32 9.83h-1.32v-6.04h1.32c2.43 0 3.7.97 3.7 3.02s-1.27 3.02-3.7 3.02z"/>
  </g>
</svg>
