<svg width="1400" height="1400" viewBox="0 0 1400 1400" fill="none" xmlns="http://www.w3.org/2000/svg">
  <defs>
    <radialGradient id="bg-main" cx="0" cy="0" r="1" gradientUnits="userSpaceOnUse" gradientTransform="translate(1032 338) rotate(146) scale(440 286)">
      <stop stop-color="#F36D72" stop-opacity="0.13"/>
      <stop offset="1" stop-color="#F36D72" stop-opacity="0"/>
    </radialGradient>
    <radialGradient id="bg-side" cx="0" cy="0" r="1" gradientUnits="userSpaceOnUse" gradientTransform="translate(372 344) rotate(48) scale(396 458)">
      <stop stop-color="#28426F" stop-opacity="0.2"/>
      <stop offset="1" stop-color="#28426F" stop-opacity="0"/>
    </radialGradient>
    <radialGradient id="bg-bottom" cx="0" cy="0" r="1" gradientUnits="userSpaceOnUse" gradientTransform="translate(904 1140) rotate(162) scale(470 210)">
      <stop stop-color="#FF7A47" stop-opacity="0.1"/>
      <stop offset="1" stop-color="#FF7A47" stop-opacity="0"/>
    </radialGradient>

    <radialGradient id="orb-base" cx="0" cy="0" r="1" gradientUnits="userSpaceOnUse" gradientTransform="translate(874 472) rotate(136) scale(728 704)">
      <stop stop-color="#FFE1B5"/>
      <stop offset="0.16" stop-color="#FFBA84"/>
      <stop offset="0.34" stop-color="#F57E8A"/>
      <stop offset="0.56" stop-color="#8A82F2"/>
      <stop offset="0.76" stop-color="#41A0F1"/>
      <stop offset="1" stop-color="#112C41"/>
    </radialGradient>
    <radialGradient id="orb-rim" cx="0" cy="0" r="1" gradientUnits="userSpaceOnUse" gradientTransform="translate(500 522) rotate(28) scale(256 552)">
      <stop stop-color="#C9E4FF" stop-opacity="0.72"/>
      <stop offset="0.2" stop-color="#93BEE8" stop-opacity="0.24"/>
      <stop offset="1" stop-color="#93BEE8" stop-opacity="0"/>
    </radialGradient>
    <radialGradient id="soft-white" cx="0" cy="0" r="1" gradientUnits="userSpaceOnUse" gradientTransform="translate(742 504) rotate(136) scale(340 272)">
      <stop stop-color="#FFF4E2" stop-opacity="0.8"/>
      <stop offset="0.52" stop-color="#FFF4E2" stop-opacity="0.24"/>
      <stop offset="1" stop-color="#FFF4E2" stop-opacity="0"/>
    </radialGradient>
    <radialGradient id="coral-bloom" cx="0" cy="0" r="1" gradientUnits="userSpaceOnUse" gradientTransform="translate(910 754) rotate(158) scale(294 236)">
      <stop stop-color="#FF7E64" stop-opacity="0.42"/>
      <stop offset="1" stop-color="#FF7E64" stop-opacity="0"/>
    </radialGradient>
    <radialGradient id="violet-pocket" cx="0" cy="0" r="1" gradientUnits="userSpaceOnUse" gradientTransform="translate(520 926) rotate(-18) scale(356 258)">
      <stop stop-color="#965DC8" stop-opacity="0.34"/>
      <stop offset="1" stop-color="#965DC8" stop-opacity="0"/>
    </radialGradient>
    <radialGradient id="blue-pocket" cx="0" cy="0" r="1" gradientUnits="userSpaceOnUse" gradientTransform="translate(560 840) rotate(8) scale(358 194)">
      <stop stop-color="#44A5F2" stop-opacity="0.28"/>
      <stop offset="0.56" stop-color="#6CA6F2" stop-opacity="0.18"/>
      <stop offset="1" stop-color="#6CA6F2" stop-opacity="0"/>
    </radialGradient>
    <linearGradient id="fold-sheen" x1="290" y1="820" x2="1036" y2="650" gradientUnits="userSpaceOnUse">
      <stop stop-color="#FFF7F0" stop-opacity="0"/>
      <stop offset="0.3" stop-color="#FFF7F0" stop-opacity="0.08"/>
      <stop offset="0.56" stop-color="#FFF7F0" stop-opacity="0.32"/>
      <stop offset="0.82" stop-color="#FFD7B2" stop-opacity="0.16"/>
      <stop offset="1" stop-color="#FFD7B2" stop-opacity="0"/>
    </linearGradient>

    <linearGradient id="flare-gradient" x1="860" y1="260" x2="1050" y2="736" gradientUnits="userSpaceOnUse">
      <stop stop-color="#F45C4D"/>
      <stop offset="0.24" stop-color="#FF8A5D"/>
      <stop offset="0.56" stop-color="#FFC37A"/>
      <stop offset="0.82" stop-color="#FFE1A7"/>
      <stop offset="1" stop-color="#FFF4DB"/>
    </linearGradient>
    <linearGradient id="flare-core" x1="870" y1="280" x2="1036" y2="716" gradientUnits="userSpaceOnUse">
      <stop stop-color="#FF9E78"/>
      <stop offset="0.48" stop-color="#FFF0CF"/>
      <stop offset="1" stop-color="#FFF8ED"/>
    </linearGradient>

    <filter id="blur-24" x="0" y="0" width="1400" height="1400" filterUnits="userSpaceOnUse" color-interpolation-filters="sRGB">
      <feGaussianBlur stdDeviation="24"/>
    </filter>
    <filter id="blur-40" x="0" y="0" width="1400" height="1400" filterUnits="userSpaceOnUse" color-interpolation-filters="sRGB">
      <feGaussianBlur stdDeviation="40"/>
    </filter>
    <clipPath id="orb-clip">
      <circle cx="700" cy="700" r="360"/>
    </clipPath>
  </defs>

  <rect width="1400" height="1400" fill="#080B12"/>
  <rect width="1400" height="1400" fill="url(#bg-side)"/>
  <rect width="1400" height="1400" fill="url(#bg-main)"/>
  <rect width="1400" height="1400" fill="url(#bg-bottom)"/>

  <circle cx="700" cy="700" r="472" stroke="#FFFFFF" stroke-opacity="0.03" stroke-width="2"/>
  <circle cx="700" cy="700" r="448" stroke="#342129" stroke-opacity="0.66" stroke-width="12"/>
  <circle cx="700" cy="700" r="434" stroke="#1A1E28" stroke-opacity="0.96" stroke-width="20"/>
  <circle cx="700" cy="700" r="420" stroke="#FFFFFF" stroke-opacity="0.055" stroke-width="2"/>
  <circle cx="700" cy="700" r="408" stroke="#FFFFFF" stroke-opacity="0.038" stroke-width="1.4"/>
  <circle cx="700" cy="700" r="448" stroke="#F3A16E" stroke-opacity="0.08" stroke-width="6" stroke-linecap="round" stroke-dasharray="598 2218" transform="rotate(-136 700 700)"/>
  <circle cx="700" cy="700" r="434" stroke="#FFFFFF" stroke-opacity="0.04" stroke-width="2.2" stroke-linecap="round" stroke-dasharray="536 2130" transform="rotate(-136 700 700)"/>

  <g filter="url(#blur-40)">
    <circle cx="700" cy="700" r="420" stroke="#F45C4D" stroke-opacity="0.54" stroke-width="28" stroke-linecap="round" stroke-dasharray="688 1952" transform="rotate(-66 700 700)"/>
  </g>
  <circle cx="700" cy="700" r="420" stroke="#6D352A" stroke-opacity="0.42" stroke-width="10" stroke-linecap="round" stroke-dasharray="688 1952" transform="rotate(-66 700 700)"/>
  <circle cx="700" cy="700" r="420" stroke="url(#flare-gradient)" stroke-width="8" stroke-linecap="round" stroke-dasharray="688 1952" transform="rotate(-66 700 700)"/>
  <circle cx="700" cy="700" r="420" stroke="url(#flare-core)" stroke-width="2.4" stroke-linecap="round" stroke-dasharray="688 1952" transform="rotate(-66 700 700)"/>
  <circle cx="1072" cy="897" r="23" fill="#FF8D65" fill-opacity="0.18"/>
  <circle cx="1072" cy="897" r="9" fill="#FFF3DF"/>

  <circle cx="700" cy="700" r="360" fill="url(#orb-base)"/>
  <circle cx="700" cy="700" r="360" fill="url(#orb-rim)"/>
  <g clip-path="url(#orb-clip)">
    <g filter="url(#blur-40)">
      <ellipse cx="700" cy="528" rx="292" ry="192" fill="url(#soft-white)"/>
      <ellipse cx="910" cy="700" rx="270" ry="232" fill="url(#coral-bloom)"/>
      <ellipse cx="504" cy="926" rx="300" ry="224" fill="url(#violet-pocket)"/>
      <ellipse cx="612" cy="818" rx="344" ry="194" fill="url(#blue-pocket)"/>
    </g>

    <path d="M330 822C464 734 582 684 704 670C810 658 902 686 1018 760C944 812 868 844 788 858C680 876 560 868 442 840C404 832 368 826 330 822Z" fill="url(#fold-sheen)"/>
    <path d="M350 838C466 760 574 724 694 714C808 704 906 726 1012 776C932 814 852 838 766 848C642 864 520 858 402 840C384 838 366 838 350 838Z" fill="#FFF4E2" fill-opacity="0.11"/>
    <path d="M404 542C518 494 634 492 752 530C842 560 938 626 1038 724" stroke="#FFF7F1" stroke-opacity="0.16" stroke-width="22" stroke-linecap="round"/>
    <path d="M344 930C456 908 574 916 706 956C820 990 910 1040 988 1110" stroke="#D5B6D5" stroke-opacity="0.09" stroke-width="24" stroke-linecap="round"/>
    <circle cx="1118" cy="490" r="50" fill="#FFF9F2" fill-opacity="0.9"/>
    <circle cx="664" cy="556" r="190" fill="url(#soft-white)"/>
  </g>

  <circle cx="700" cy="700" r="360" fill="none" stroke="#FFF8F2" stroke-opacity="0.14" stroke-width="2"/>
</svg>
