<svg width="1600" height="1000" viewBox="0 0 1600 1000" fill="none" xmlns="http://www.w3.org/2000/svg">
  <defs>
    <linearGradient id="bgA" x1="180" y1="120" x2="1440" y2="940" gradientUnits="userSpaceOnUse">
      <stop stop-color="#17171B"/>
      <stop offset="1" stop-color="#0B0D13"/>
    </linearGradient>
    <radialGradient id="panelGlow" cx="0" cy="0" r="1" gradientUnits="userSpaceOnUse" gradientTransform="translate(1110 645) rotate(132.446) scale(360 301)">
      <stop stop-color="#FE7D48" stop-opacity="0.42"/>
      <stop offset="0.45" stop-color="#FE7D48" stop-opacity="0.08"/>
      <stop offset="1" stop-color="#FE7D48" stop-opacity="0"/>
    </radialGradient>
    <radialGradient id="planetOuter" cx="0" cy="0" r="1" gradientUnits="userSpaceOnUse" gradientTransform="translate(1128 484) rotate(129.307) scale(564 564)">
      <stop stop-color="#FF8F62"/>
      <stop offset="0.36" stop-color="#B84D2A"/>
      <stop offset="0.72" stop-color="#5B1A0D"/>
      <stop offset="1" stop-color="#1C0F12"/>
    </radialGradient>
    <radialGradient id="planetInner" cx="0" cy="0" r="1" gradientUnits="userSpaceOnUse" gradientTransform="translate(1210 408) rotate(134.498) scale(268 214)">
      <stop stop-color="#FFB489" stop-opacity="0.88"/>
      <stop offset="1" stop-color="#FFB489" stop-opacity="0"/>
    </radialGradient>
    <radialGradient id="shadowFade" cx="0" cy="0" r="1" gradientUnits="userSpaceOnUse" gradientTransform="translate(986 754) rotate(-37.164) scale(524 222)">
      <stop stop-color="#000000" stop-opacity="0.56"/>
      <stop offset="1" stop-color="#000000" stop-opacity="0"/>
    </radialGradient>
    <linearGradient id="flare" x1="905" y1="645" x2="1338" y2="771" gradientUnits="userSpaceOnUse">
      <stop stop-color="#FF8E5E"/>
      <stop offset="0.5" stop-color="#FFC58A"/>
      <stop offset="1" stop-color="#FF6B4D"/>
    </linearGradient>
    <radialGradient id="percentRing" cx="0" cy="0" r="1" gradientUnits="userSpaceOnUse" gradientTransform="translate(291 746) rotate(90) scale(101)">
      <stop stop-color="#FFFFFF" stop-opacity="0.12"/>
      <stop offset="1" stop-color="#FFFFFF" stop-opacity="0"/>
    </radialGradient>
    <filter id="blurXL" x="765" y="528" width="657" height="353" filterUnits="userSpaceOnUse" color-interpolation-filters="sRGB">
      <feGaussianBlur stdDeviation="42"/>
    </filter>
    <filter id="blurSoft" x="766" y="271" width="825" height="640" filterUnits="userSpaceOnUse" color-interpolation-filters="sRGB">
      <feGaussianBlur stdDeviation="14"/>
    </filter>
    <filter id="shadowCard" x="127" y="357" width="393" height="169" filterUnits="userSpaceOnUse" color-interpolation-filters="sRGB">
      <feDropShadow dx="0" dy="18" stdDeviation="18" flood-color="#000000" flood-opacity="0.34"/>
    </filter>
  </defs>

  <rect width="1600" height="1000" rx="0" fill="#05060A"/>
  <rect x="54" y="42" width="1492" height="888" rx="34" fill="url(#bgA)"/>
  <rect x="54" y="42" width="1492" height="888" rx="34" stroke="rgba(255,255,255,0.05)" stroke-width="2"/>

  <circle cx="1118" cy="496" r="393" fill="url(#planetOuter)"/>
  <circle cx="1118" cy="496" r="393" fill="url(#planetInner)"/>
  <circle cx="1118" cy="496" r="505" stroke="rgba(255,255,255,0.04)" stroke-width="2"/>
  <circle cx="1118" cy="496" r="342" stroke="rgba(255,255,255,0.06)" stroke-width="2"/>

  <g filter="url(#blurXL)">
    <path d="M910 663C973 617 1129 603 1338 734" stroke="#FF754B" stroke-width="24" stroke-linecap="round"/>
  </g>
  <g filter="url(#blurSoft)">
    <path d="M904 670C973 615 1128 603 1334 734" stroke="url(#flare)" stroke-width="8" stroke-linecap="round"/>
  </g>
  <path d="M904 670C973 615 1128 603 1334 734" stroke="url(#flare)" stroke-width="5" stroke-linecap="round"/>

  <circle cx="1118" cy="496" r="393" fill="url(#shadowFade)"/>
  <circle cx="1220" cy="554" r="13" fill="rgba(255,255,255,0.05)"/>
  <circle cx="1055" cy="356" r="8" fill="rgba(255,255,255,0.04)"/>
  <circle cx="1264" cy="401" r="7" fill="rgba(255,255,255,0.05)"/>
  <circle cx="1178" cy="665" r="9" fill="rgba(255,255,255,0.035)"/>
  <circle cx="1148" cy="506" r="39" stroke="rgba(255,255,255,0.16)" stroke-width="2"/>
  <path d="M1136 510V495H1151" stroke="white" stroke-width="4" stroke-linecap="round" stroke-linejoin="round"/>
  <path d="M1148 536H1162V522" stroke="white" stroke-width="4" stroke-linecap="round" stroke-linejoin="round"/>

  <g opacity="0.92">
    <rect x="149" y="132" width="58" height="58" rx="19" fill="rgba(255,255,255,0.02)" stroke="rgba(255,255,255,0.12)" stroke-width="2"/>
    <circle cx="178" cy="160" r="9" stroke="white" stroke-width="4"/>
    <path d="M184 166L192 174" stroke="white" stroke-width="4" stroke-linecap="round"/>
    <rect x="221" y="132" width="58" height="58" rx="19" fill="rgba(255,255,255,0.02)" stroke="rgba(255,255,255,0.12)" stroke-width="2"/>
    <path d="M242 150V173" stroke="white" stroke-width="4" stroke-linecap="round"/>
    <path d="M259 148V171" stroke="white" stroke-width="4" stroke-linecap="round"/>
    <circle cx="242" cy="157" r="4" fill="white"/>
    <circle cx="259" cy="163" r="4" fill="white"/>
  </g>

  <text x="150" y="282" fill="rgba(255,255,255,0.42)" font-size="22" font-family="Arial, Helvetica, sans-serif">Quality Signals Backed by Human Reputation</text>
  <text x="150" y="350" fill="white" font-size="60" font-weight="700" font-family="Arial, Helvetica, sans-serif">Find the clearest</text>
  <text x="150" y="420" fill="white" font-size="60" font-weight="700" font-family="Arial, Helvetica, sans-serif">signal for what</text>
  <text x="150" y="490" fill="white" font-size="60" font-weight="700" font-family="Arial, Helvetica, sans-serif">deserves attention.</text>

  <g filter="url(#shadowCard)">
    <rect x="150" y="545" width="344" height="118" rx="24" fill="#090A0F"/>
    <rect x="150" y="545" width="344" height="118" rx="24" stroke="rgba(255,255,255,0.07)" stroke-width="2"/>
  </g>
  <circle cx="206" cy="604" r="27" fill="#11131A"/>
  <circle cx="206" cy="604" r="18" fill="url(#flare)"/>
  <path d="M194 611C200 602 210 597 221 598" stroke="white" stroke-width="3" stroke-linecap="round"/>
  <text x="254" y="583" fill="rgba(255,255,255,0.4)" font-size="20" font-family="Arial, Helvetica, sans-serif">Signal rising now</text>
  <text x="254" y="621" fill="white" font-size="29" font-weight="600" font-family="Arial, Helvetica, sans-serif">Verified humans are</text>
  <text x="254" y="656" fill="white" font-size="29" font-weight="600" font-family="Arial, Helvetica, sans-serif">pushing this to 84/100.</text>
  <path d="M450 572L469 553" stroke="white" stroke-width="4" stroke-linecap="round"/>
  <path d="M451 553H469V571" stroke="white" stroke-width="4" stroke-linecap="round"/>

  <circle cx="286" cy="816" r="102" fill="url(#percentRing)"/>
  <circle cx="286" cy="816" r="73" stroke="rgba(255,255,255,0.12)" stroke-width="2"/>
  <circle cx="286" cy="816" r="73" stroke="url(#flare)" stroke-width="5" stroke-dasharray="280 178" stroke-linecap="round" transform="rotate(-98 286 816)"/>
  <circle cx="286" cy="816" r="122" stroke="rgba(255,255,255,0.05)" stroke-width="2"/>
  <g fill="rgba(255,255,255,0.28)">
    <circle cx="237" cy="739" r="2.2"/>
    <circle cx="346" cy="760" r="1.9"/>
    <circle cx="383" cy="823" r="2.1"/>
    <circle cx="325" cy="889" r="2.4"/>
    <circle cx="235" cy="902" r="2"/>
    <circle cx="190" cy="833" r="1.8"/>
    <circle cx="205" cy="760" r="2.1"/>
    <circle cx="364" cy="861" r="1.8"/>
    <circle cx="259" cy="710" r="1.8"/>
    <circle cx="179" cy="786" r="2"/>
    <circle cx="388" cy="793" r="1.8"/>
    <circle cx="218" cy="873" r="1.9"/>
  </g>
  <text x="249" y="826" fill="white" font-size="50" font-weight="700" font-family="Arial, Helvetica, sans-serif">84%</text>
  <text x="418" y="774" fill="rgba(255,255,255,0.35)" font-size="24" font-family="Arial, Helvetica, sans-serif">Current rating</text>
  <text x="418" y="836" fill="white" font-size="58" font-weight="700" font-family="Arial, Helvetica, sans-serif">Quality Signal</text>
  <text x="418" y="886" fill="rgba(255,255,255,0.56)" font-size="26" font-family="Arial, Helvetica, sans-serif">42 verified humans backing this round</text>

  <text x="1328" y="888" fill="rgba(255,255,255,0.72)" font-size="28" font-family="Arial, Helvetica, sans-serif">Live ring</text>
  <rect x="1446" y="863" width="60" height="34" rx="17" fill="rgba(255,255,255,0.08)" stroke="rgba(255,255,255,0.16)" stroke-width="2"/>
  <circle cx="1482" cy="880" r="13" fill="white"/>
</svg>
