<svg width="1024" height="1024" viewBox="0 0 1024 1024" fill="none" xmlns="http://www.w3.org/2000/svg">
  <defs>
    <radialGradient id="bg-glow-left" cx="0" cy="0" r="1" gradientUnits="userSpaceOnUse" gradientTransform="translate(244 236) rotate(50) scale(286 334)">
      <stop stop-color="#26334C" stop-opacity="0.18"/>
      <stop offset="1" stop-color="#26334C" stop-opacity="0"/>
    </radialGradient>
    <radialGradient id="bg-glow-right" cx="0" cy="0" r="1" gradientUnits="userSpaceOnUse" gradientTransform="translate(804 248) rotate(144) scale(322 254)">
      <stop stop-color="#FF744D" stop-opacity="0.16"/>
      <stop offset="1" stop-color="#FF744D" stop-opacity="0"/>
    </radialGradient>
    <radialGradient id="bg-glow-bottom" cx="0" cy="0" r="1" gradientUnits="userSpaceOnUse" gradientTransform="translate(704 876) rotate(161) scale(414 180)">
      <stop stop-color="#FF9347" stop-opacity="0.14"/>
      <stop offset="1" stop-color="#FF9347" stop-opacity="0"/>
    </radialGradient>

    <radialGradient id="sphere-base" cx="0" cy="0" r="1" gradientUnits="userSpaceOnUse" gradientTransform="translate(616 350) rotate(136) scale(430 408)">
      <stop stop-color="#FFF2DC"/>
      <stop offset="0.17" stop-color="#FFC88C"/>
      <stop offset="0.4" stop-color="#FF8E58"/>
      <stop offset="0.72" stop-color="#D94A3F"/>
      <stop offset="1" stop-color="#4F1D24"/>
    </radialGradient>
    <linearGradient id="facet-gold" x1="324" y1="414" x2="680" y2="674" gradientUnits="userSpaceOnUse">
      <stop stop-color="#FFF3DF" stop-opacity="0.34"/>
      <stop offset="1" stop-color="#FFF3DF" stop-opacity="0"/>
    </linearGradient>
    <linearGradient id="facet-orange" x1="438" y1="266" x2="744" y2="562" gradientUnits="userSpaceOnUse">
      <stop stop-color="#FFC279" stop-opacity="0.26"/>
      <stop offset="1" stop-color="#FFC279" stop-opacity="0"/>
    </linearGradient>
    <linearGradient id="facet-red" x1="240" y1="542" x2="604" y2="764" gradientUnits="userSpaceOnUse">
      <stop stop-color="#8F2C31" stop-opacity="0.28"/>
      <stop offset="1" stop-color="#8F2C31" stop-opacity="0"/>
    </linearGradient>
    <linearGradient id="flare-gradient" x1="674" y1="146" x2="906" y2="704" gradientUnits="userSpaceOnUse">
      <stop stop-color="#F65F45"/>
      <stop offset="0.24" stop-color="#FF8D5A"/>
      <stop offset="0.56" stop-color="#FFC36F"/>
      <stop offset="0.82" stop-color="#FFE1A5"/>
      <stop offset="1" stop-color="#FFF5E0"/>
    </linearGradient>
    <linearGradient id="flare-core" x1="684" y1="160" x2="892" y2="690" gradientUnits="userSpaceOnUse">
      <stop stop-color="#FFB287"/>
      <stop offset="0.48" stop-color="#FFF0CF"/>
      <stop offset="1" stop-color="#FFF8ED"/>
    </linearGradient>
    <filter id="soft-blur-18" x="0" y="0" width="1024" height="1024" filterUnits="userSpaceOnUse" color-interpolation-filters="sRGB">
      <feGaussianBlur stdDeviation="18"/>
    </filter>
    <filter id="soft-blur-28" x="0" y="0" width="1024" height="1024" filterUnits="userSpaceOnUse" color-interpolation-filters="sRGB">
      <feGaussianBlur stdDeviation="28"/>
    </filter>
    <clipPath id="sphere-clip">
      <circle cx="512" cy="512" r="344"/>
    </clipPath>
  </defs>

  <rect width="1024" height="1024" rx="40" fill="#080B12"/>
  <rect width="1024" height="1024" rx="40" fill="url(#bg-glow-left)"/>
  <rect width="1024" height="1024" rx="40" fill="url(#bg-glow-right)"/>
  <rect width="1024" height="1024" rx="40" fill="url(#bg-glow-bottom)"/>

  <circle cx="512" cy="512" r="458" stroke="#FFFFFF" stroke-opacity="0.03" stroke-width="2"/>
  <circle cx="512" cy="512" r="434" stroke="#342129" stroke-opacity="0.66" stroke-width="12"/>
  <circle cx="512" cy="512" r="420" stroke="#1A1E28" stroke-opacity="0.96" stroke-width="20"/>
  <circle cx="512" cy="512" r="406" stroke="#FFFFFF" stroke-opacity="0.055" stroke-width="2"/>
  <circle cx="512" cy="512" r="394" stroke="#FFFFFF" stroke-opacity="0.038" stroke-width="1.4"/>

  <g filter="url(#soft-blur-28)">
    <circle cx="512" cy="512" r="406" stroke="#F45C4D" stroke-opacity="0.56" stroke-width="28" stroke-linecap="round" stroke-dasharray="666 1885" transform="rotate(-66 512 512)"/>
  </g>
  <circle cx="512" cy="512" r="406" stroke="#6D352A" stroke-opacity="0.42" stroke-width="10" stroke-linecap="round" stroke-dasharray="666 1885" transform="rotate(-66 512 512)"/>
  <circle cx="512" cy="512" r="406" stroke="url(#flare-gradient)" stroke-width="8" stroke-linecap="round" stroke-dasharray="666 1885" transform="rotate(-66 512 512)"/>
  <circle cx="512" cy="512" r="406" stroke="url(#flare-core)" stroke-width="2.4" stroke-linecap="round" stroke-dasharray="666 1885" transform="rotate(-66 512 512)"/>
  <circle cx="871" cy="703" r="23" fill="#FF8D65" fill-opacity="0.18"/>
  <circle cx="871" cy="703" r="9" fill="#FFF3DF"/>

  <circle cx="512" cy="512" r="344" fill="url(#sphere-base)"/>
  <g clip-path="url(#sphere-clip)">
    <g filter="url(#soft-blur-18)">
      <ellipse cx="608" cy="334" rx="176" ry="118" fill="#FFF4DB" fill-opacity="0.24"/>
      <ellipse cx="386" cy="646" rx="216" ry="156" fill="#742229" fill-opacity="0.24"/>
      <ellipse cx="662" cy="632" rx="234" ry="160" fill="#FFAA62" fill-opacity="0.18"/>
    </g>
    <path d="M508 248L744 412L608 640L352 566L330 348L508 248Z" fill="url(#facet-orange)"/>
    <path d="M272 542L498 404L664 544L472 786L272 542Z" fill="url(#facet-red)"/>
    <path d="M438 290L650 376L588 628L334 534L438 290Z" fill="url(#facet-gold)"/>
    <path d="M352 354L506 284L654 346L706 470L644 606L486 666L332 620L286 486L352 354Z" stroke="#FFF1DB" stroke-opacity="0.14" stroke-width="14" stroke-linejoin="round"/>
    <path d="M334 534L500 406L652 540" stroke="#FFF4E2" stroke-opacity="0.12" stroke-width="10" stroke-linecap="round"/>
    <path d="M508 286L500 406L488 664" stroke="#FFD8A4" stroke-opacity="0.14" stroke-width="10" stroke-linecap="round"/>
    <circle cx="602" cy="418" r="24" fill="#FFF5E6" fill-opacity="0.16"/>
    <circle cx="434" cy="604" r="18" fill="#FFD4A8" fill-opacity="0.08"/>
  </g>

  <g filter="url(#soft-blur-28)">
    <ellipse cx="642" cy="344" rx="148" ry="102" fill="#FFF4E2" fill-opacity="0.18"/>
  </g>
  <circle cx="512" cy="512" r="344" fill="none" stroke="#FFFFFF" stroke-opacity="0.14" stroke-width="1.4"/>
</svg>
