<svg width="1600" height="1000" viewBox="0 0 1600 1000" fill="none" xmlns="http://www.w3.org/2000/svg">
  <defs>
    <linearGradient id="discover-bg" x1="110" y1="72" x2="1492" y2="940" gradientUnits="userSpaceOnUse">
      <stop stop-color="#0A0C12"/>
      <stop offset="0.58" stop-color="#10141F"/>
      <stop offset="1" stop-color="#0A0E16"/>
    </linearGradient>
    <radialGradient id="discover-left-glow" cx="0" cy="0" r="1" gradientUnits="userSpaceOnUse" gradientTransform="translate(384 268) rotate(57.37) scale(340 430)">
      <stop stop-color="#16233F" stop-opacity="0.3"/>
      <stop offset="1" stop-color="#16233F" stop-opacity="0"/>
    </radialGradient>
    <radialGradient id="discover-bottom-glow" cx="0" cy="0" r="1" gradientUnits="userSpaceOnUse" gradientTransform="translate(1182 840) rotate(158.683) scale(452 208)">
      <stop stop-color="#FF7A47" stop-opacity="0.14"/>
      <stop offset="1" stop-color="#FF7A47" stop-opacity="0"/>
    </radialGradient>
    <clipPath id="discover-planet-clip">
      <circle cx="1180" cy="392" r="248"/>
    </clipPath>
    <radialGradient id="discover-planet-base" cx="0" cy="0" r="1" gradientUnits="userSpaceOnUse" gradientTransform="translate(1236 314) rotate(131.82) scale(362 352)">
      <stop stop-color="#FFD39A"/>
      <stop offset="0.2" stop-color="#FFB06E"/>
      <stop offset="0.38" stop-color="#EE6C72"/>
      <stop offset="0.58" stop-color="#8B79EE"/>
      <stop offset="0.78" stop-color="#2F8BDC"/>
      <stop offset="1" stop-color="#062C39"/>
    </radialGradient>
    <radialGradient id="discover-planet-shadow" cx="0" cy="0" r="1" gradientUnits="userSpaceOnUse" gradientTransform="translate(1088 520) rotate(-34.216) scale(268 180)">
      <stop stop-color="#091221" stop-opacity="0.82"/>
      <stop offset="1" stop-color="#091221" stop-opacity="0"/>
    </radialGradient>
    <radialGradient id="discover-rim-light" cx="0" cy="0" r="1" gradientUnits="userSpaceOnUse" gradientTransform="translate(1266 254) rotate(133.234) scale(208 142)">
      <stop stop-color="#FFFFFF" stop-opacity="0.55"/>
      <stop offset="0.46" stop-color="#FFFFFF" stop-opacity="0.12"/>
      <stop offset="1" stop-color="#FFFFFF" stop-opacity="0"/>
    </radialGradient>
    <linearGradient id="discover-fire" x1="958" y1="488" x2="1362" y2="608" gradientUnits="userSpaceOnUse">
      <stop stop-color="#FF714A"/>
      <stop offset="0.3" stop-color="#FFB063"/>
      <stop offset="0.56" stop-color="#FFE3AB"/>
      <stop offset="1" stop-color="#FF6E57"/>
    </linearGradient>
    <linearGradient id="discover-fire-core" x1="970" y1="494" x2="1350" y2="602" gradientUnits="userSpaceOnUse">
      <stop stop-color="#FFD6A3"/>
      <stop offset="0.5" stop-color="#FFF1D8"/>
      <stop offset="1" stop-color="#FFCFA7"/>
    </linearGradient>
    <filter id="discover-fire-blur" x="878" y="412" width="570" height="286" filterUnits="userSpaceOnUse" color-interpolation-filters="sRGB">
      <feGaussianBlur stdDeviation="28"/>
    </filter>
    <filter id="discover-fire-soft" x="900" y="432" width="530" height="242" filterUnits="userSpaceOnUse" color-interpolation-filters="sRGB">
      <feGaussianBlur stdDeviation="9"/>
    </filter>
    <filter id="discover-card-shadow" x="100" y="228" width="1132" height="640" filterUnits="userSpaceOnUse" color-interpolation-filters="sRGB">
      <feDropShadow dx="0" dy="22" stdDeviation="22" flood-color="#000000" flood-opacity="0.34"/>
    </filter>
    <filter id="discover-highlight-blur" x="988" y="116" width="434" height="304" filterUnits="userSpaceOnUse" color-interpolation-filters="sRGB">
      <feGaussianBlur stdDeviation="24"/>
    </filter>
  </defs>

  <rect width="1600" height="1000" fill="#05060A"/>
  <rect x="52" y="42" width="1496" height="900" rx="36" fill="url(#discover-bg)"/>
  <rect x="52" y="42" width="1496" height="900" rx="36" stroke="rgba(255,255,255,0.05)" stroke-width="2"/>
  <rect width="1600" height="1000" fill="url(#discover-left-glow)"/>
  <rect width="1600" height="1000" fill="url(#discover-bottom-glow)"/>

  <g filter="url(#discover-card-shadow)">
    <rect x="124" y="124" width="988" height="78" rx="24" fill="rgba(10,12,18,0.9)"/>
    <rect x="124" y="124" width="988" height="78" rx="24" stroke="rgba(255,255,255,0.06)" stroke-width="2"/>
  </g>
  <g font-family="Arial, Helvetica, sans-serif">
    <rect x="156" y="145" width="84" height="36" rx="18" fill="#359EEE"/>
    <text x="184" y="169" fill="#0B0D12" font-size="20" font-weight="700">All</text>
    <rect x="252" y="145" width="118" height="36" rx="18" fill="#1D212B" stroke="rgba(255,255,255,0.08)" stroke-width="2"/>
    <text x="285" y="169" fill="white" font-size="20">For You</text>
    <rect x="384" y="145" width="118" height="36" rx="18" fill="#1D212B" stroke="rgba(255,255,255,0.08)" stroke-width="2"/>
    <text x="414" y="169" fill="white" font-size="20">Trending</text>
    <rect x="516" y="145" width="128" height="36" rx="18" fill="#1D212B" stroke="rgba(255,255,255,0.08)" stroke-width="2"/>
    <text x="548" y="169" fill="white" font-size="20">Contested</text>
    <rect x="910" y="145" width="162" height="36" rx="18" fill="#121620" stroke="rgba(255,255,255,0.08)" stroke-width="2"/>
    <text x="948" y="169" fill="rgba(255,255,255,0.84)" font-size="20">7 day streak</text>
  </g>

  <text x="128" y="256" fill="rgba(255,255,255,0.44)" font-size="22" font-family="Arial, Helvetica, sans-serif">Discover</text>
  <text x="128" y="308" fill="white" font-size="50" font-weight="700" font-family="Arial, Helvetica, sans-serif">Live quality signals</text>
  <text x="128" y="350" fill="rgba(255,255,255,0.58)" font-size="24" font-family="Arial, Helvetica, sans-serif">Browse what deserves attention and vote before the signal settles.</text>

  <rect x="128" y="390" width="764" height="288" rx="30" fill="rgba(8,10,15,0.76)" stroke="rgba(255,255,255,0.06)" stroke-width="2"/>
  <rect x="154" y="416" width="432" height="236" rx="24" fill="rgba(255,255,255,0.04)" stroke="rgba(255,255,255,0.06)" stroke-width="2"/>
  <rect x="174" y="438" width="392" height="170" rx="20" fill="#121520"/>
  <path d="M174 438H566V526C506 540 458 556 394 556C328 556 274 542 174 586V438Z" fill="rgba(255,255,255,0.02)"/>
  <text x="192" y="632" fill="rgba(255,255,255,0.46)" font-size="18" font-family="Arial, Helvetica, sans-serif">Independent film review</text>

  <rect x="612" y="416" width="254" height="236" rx="24" fill="rgba(255,255,255,0.04)" stroke="rgba(255,255,255,0.06)" stroke-width="2"/>
  <text x="636" y="452" fill="rgba(255,255,255,0.44)" font-size="18" font-family="Arial, Helvetica, sans-serif">Public signal</text>
  <text x="636" y="530" fill="white" font-size="88" font-weight="700" font-family="Arial, Helvetica, sans-serif">84</text>
  <text x="744" y="528" fill="rgba(255,255,255,0.58)" font-size="24" font-family="Arial, Helvetica, sans-serif">/100</text>
  <rect x="636" y="556" width="116" height="34" rx="17" fill="rgba(53,158,238,0.12)" stroke="rgba(53,158,238,0.3)" stroke-width="2"/>
  <text x="664" y="579" fill="#7FC7FF" font-size="18" font-weight="700" font-family="Arial, Helvetica, sans-serif">Blind Phase</text>
  <text x="636" y="618" fill="rgba(255,255,255,0.72)" font-size="20" font-family="Arial, Helvetica, sans-serif">12 committed</text>
  <text x="748" y="618" fill="rgba(255,255,255,0.4)" font-size="20" font-family="Arial, Helvetica, sans-serif">4 revealed</text>
  <text x="636" y="646" fill="rgba(255,255,255,0.5)" font-size="18" font-family="Arial, Helvetica, sans-serif">Vote early to lock in blind-phase weight.</text>

  <circle cx="1180" cy="392" r="324" stroke="rgba(255,255,255,0.04)" stroke-width="2"/>
  <circle cx="1180" cy="392" r="274" stroke="rgba(255,255,255,0.06)" stroke-width="2"/>
  <circle cx="1180" cy="392" r="296" stroke="rgba(23,25,33,0.9)" stroke-width="22"/>

  <circle cx="1180" cy="392" r="248" fill="url(#discover-planet-base)"/>
  <g clip-path="url(#discover-planet-clip)">
    <ellipse cx="1088" cy="284" rx="136" ry="102" fill="#3CA2EB" fill-opacity="0.56"/>
    <ellipse cx="1236" cy="238" rx="174" ry="114" fill="#F16E71" fill-opacity="0.42"/>
    <ellipse cx="1286" cy="334" rx="166" ry="108" fill="#FFD27A" fill-opacity="0.38"/>
    <ellipse cx="1194" cy="488" rx="210" ry="110" fill="#08C8A2" fill-opacity="0.32"/>
    <ellipse cx="1080" cy="496" rx="182" ry="128" fill="#10273A" fill-opacity="0.54"/>
    <path d="M960 354C1036 318 1102 324 1174 346C1242 368 1312 386 1392 378" stroke="#FFFFFF" stroke-opacity="0.08" stroke-width="14" stroke-linecap="round"/>
    <path d="M950 440C1022 408 1098 412 1172 442C1242 470 1304 490 1384 482" stroke="#FFFFFF" stroke-opacity="0.08" stroke-width="12" stroke-linecap="round"/>
    <path d="M970 520C1030 492 1096 492 1170 518C1244 544 1308 560 1370 554" stroke="#FFFFFF" stroke-opacity="0.06" stroke-width="14" stroke-linecap="round"/>
    <circle cx="1246" cy="410" r="9" fill="rgba(255,255,255,0.08)"/>
    <circle cx="1138" cy="536" r="7" fill="rgba(255,255,255,0.06)"/>
    <circle cx="1112" cy="314" r="6" fill="rgba(255,255,255,0.06)"/>
  </g>
  <circle cx="1180" cy="392" r="248" fill="url(#discover-planet-shadow)"/>
  <g filter="url(#discover-highlight-blur)">
    <ellipse cx="1224" cy="248" rx="112" ry="74" fill="#FFF2D8" fill-opacity="0.38"/>
  </g>
  <circle cx="1180" cy="392" r="248" fill="url(#discover-rim-light)"/>

  <g filter="url(#discover-fire-blur)">
    <path d="M972 514C1060 450 1208 446 1360 596" stroke="#FF7648" stroke-opacity="0.42" stroke-width="28" stroke-linecap="round"/>
  </g>
  <g filter="url(#discover-fire-soft)">
    <path d="M968 516C1058 450 1210 446 1364 596" stroke="url(#discover-fire)" stroke-width="10" stroke-linecap="round"/>
  </g>
  <path d="M968 516C1058 450 1210 446 1364 596" stroke="url(#discover-fire)" stroke-width="5" stroke-linecap="round"/>
  <path d="M980 520C1066 462 1208 460 1350 588" stroke="url(#discover-fire-core)" stroke-width="2.2" stroke-linecap="round"/>
  <ellipse cx="994" cy="512" rx="18" ry="8" fill="#FF9060" fill-opacity="0.86"/>
  <ellipse cx="1028" cy="488" rx="22" ry="10" fill="#FFB26D" fill-opacity="0.72"/>
  <ellipse cx="1116" cy="470" rx="16" ry="7" fill="#FFD09A" fill-opacity="0.42"/>
  <ellipse cx="1248" cy="526" rx="20" ry="9" fill="#FF8D58" fill-opacity="0.58"/>
  <ellipse cx="1324" cy="566" rx="18" ry="8" fill="#FF8858" fill-opacity="0.78"/>

  <rect x="128" y="724" width="1268" height="122" rx="28" fill="rgba(10,12,18,0.84)" stroke="rgba(255,255,255,0.06)" stroke-width="2"/>
  <text x="160" y="766" fill="rgba(255,255,255,0.44)" font-size="18" font-family="Arial, Helvetica, sans-serif">Up next queue</text>
  <g font-family="Arial, Helvetica, sans-serif">
    <rect x="156" y="782" width="214" height="44" rx="18" fill="rgba(255,255,255,0.04)" stroke="rgba(255,255,255,0.06)" stroke-width="2"/>
    <text x="180" y="810" fill="white" font-size="22">Creator</text>
    <text x="324" y="810" fill="rgba(255,255,255,0.52)" font-size="20">78</text>

    <rect x="388" y="782" width="214" height="44" rx="18" fill="rgba(255,255,255,0.04)" stroke="rgba(255,255,255,0.06)" stroke-width="2"/>
    <text x="412" y="810" fill="white" font-size="22">Research</text>
    <text x="558" y="810" fill="rgba(255,255,255,0.52)" font-size="20">66</text>

    <rect x="620" y="782" width="214" height="44" rx="18" fill="rgba(53,158,238,0.1)" stroke="rgba(53,158,238,0.34)" stroke-width="2"/>
    <text x="644" y="810" fill="white" font-size="22">Selected</text>
    <text x="790" y="810" fill="#8ACBFF" font-size="20">84</text>

    <rect x="852" y="782" width="214" height="44" rx="18" fill="rgba(255,255,255,0.04)" stroke="rgba(255,255,255,0.06)" stroke-width="2"/>
    <text x="876" y="810" fill="white" font-size="22">AI Bench</text>
    <text x="1022" y="810" fill="rgba(255,255,255,0.52)" font-size="20">71</text>
  </g>
</svg>
