<svg width="1600" height="1000" viewBox="0 0 1600 1000" fill="none" xmlns="http://www.w3.org/2000/svg">
  <defs>
    <linearGradient id="sf-shell" x1="92" y1="48" x2="1508" y2="938" gradientUnits="userSpaceOnUse">
      <stop stop-color="#17161B"/>
      <stop offset="1" stop-color="#141317"/>
    </linearGradient>
    <radialGradient id="sf-bg-top" cx="0" cy="0" r="1" gradientUnits="userSpaceOnUse" gradientTransform="translate(1296 154) rotate(137.348) scale(450 330)">
      <stop stop-color="#7A240F" stop-opacity="0.24"/>
      <stop offset="1" stop-color="#7A240F" stop-opacity="0"/>
    </radialGradient>
    <radialGradient id="sf-bg-bottom" cx="0" cy="0" r="1" gradientUnits="userSpaceOnUse" gradientTransform="translate(1086 926) rotate(167.857) scale(660 260)">
      <stop stop-color="#C7632E" stop-opacity="0.15"/>
      <stop offset="1" stop-color="#C7632E" stop-opacity="0"/>
    </radialGradient>
    <radialGradient id="sf-left-wash" cx="0" cy="0" r="1" gradientUnits="userSpaceOnUse" gradientTransform="translate(262 796) rotate(25.085) scale(444 318)">
      <stop stop-color="#5D140A" stop-opacity="0.16"/>
      <stop offset="1" stop-color="#5D140A" stop-opacity="0"/>
    </radialGradient>
    <radialGradient id="sf-planet-aura" cx="0" cy="0" r="1" gradientUnits="userSpaceOnUse" gradientTransform="translate(1136 426) rotate(90) scale(394)">
      <stop stop-color="#F06D23" stop-opacity="0.13"/>
      <stop offset="0.64" stop-color="#B84117" stop-opacity="0.08"/>
      <stop offset="1" stop-color="#B84117" stop-opacity="0"/>
    </radialGradient>

    <filter id="sf-shell-shadow" x="30" y="16" width="1540" height="950" filterUnits="userSpaceOnUse" color-interpolation-filters="sRGB">
      <feDropShadow dx="0" dy="30" stdDeviation="28" flood-color="#000000" flood-opacity="0.34"/>
    </filter>
    <filter id="sf-card-shadow" x="104" y="498" width="426" height="188" filterUnits="userSpaceOnUse" color-interpolation-filters="sRGB">
      <feDropShadow dx="0" dy="18" stdDeviation="18" flood-color="#000000" flood-opacity="0.36"/>
    </filter>
    <filter id="sf-ring-glow" x="758" y="82" width="756" height="710" filterUnits="userSpaceOnUse" color-interpolation-filters="sRGB">
      <feGaussianBlur stdDeviation="24"/>
    </filter>
    <filter id="sf-ring-soft" x="826" y="102" width="660" height="640" filterUnits="userSpaceOnUse" color-interpolation-filters="sRGB">
      <feGaussianBlur stdDeviation="9"/>
    </filter>
    <filter id="sf-flare-haze" x="1168" y="88" width="332" height="492" filterUnits="userSpaceOnUse" color-interpolation-filters="sRGB">
      <feGaussianBlur stdDeviation="22"/>
    </filter>
    <filter id="sf-planet-soft" x="776" y="128" width="728" height="656" filterUnits="userSpaceOnUse" color-interpolation-filters="sRGB">
      <feGaussianBlur stdDeviation="16"/>
    </filter>
    <filter id="sf-planet-dust" x="836" y="148" width="568" height="568" filterUnits="userSpaceOnUse" color-interpolation-filters="sRGB">
      <feTurbulence type="fractalNoise" baseFrequency="0.018 0.024" numOctaves="3" seed="7" stitchTiles="stitch" result="noise"/>
      <feColorMatrix in="noise" type="matrix" values="0.72 0.72 0.72 0 0.18 0.24 0.24 0.24 0 0.07 0.08 0.08 0.08 0 0.02 0 0 0 0.34 0"/>
    </filter>
    <filter id="sf-planet-pits" x="836" y="148" width="568" height="568" filterUnits="userSpaceOnUse" color-interpolation-filters="sRGB">
      <feTurbulence type="fractalNoise" baseFrequency="0.008 0.012" numOctaves="2" seed="13" stitchTiles="stitch" result="noise"/>
      <feColorMatrix in="noise" type="matrix" values="0.18 0.18 0.18 0 0.03 0.08 0.08 0.08 0 0.01 0.04 0.04 0.04 0 0.01 0 0 0 0.22 0"/>
    </filter>
    <filter id="sf-rim-blur" x="822" y="146" width="616" height="566" filterUnits="userSpaceOnUse" color-interpolation-filters="sRGB">
      <feGaussianBlur stdDeviation="12"/>
    </filter>

    <clipPath id="sf-planet-clip">
      <circle cx="1120" cy="432" r="246"/>
    </clipPath>

    <radialGradient id="sf-planet-base" cx="0" cy="0" r="1" gradientUnits="userSpaceOnUse" gradientTransform="translate(1196 318) rotate(129.022) scale(356 348)">
      <stop stop-color="#F8B46A"/>
      <stop offset="0.22" stop-color="#F5792F"/>
      <stop offset="0.46" stop-color="#DE4A17"/>
      <stop offset="0.74" stop-color="#932412"/>
      <stop offset="1" stop-color="#33120F"/>
    </radialGradient>
    <radialGradient id="sf-planet-rim" cx="0" cy="0" r="1" gradientUnits="userSpaceOnUse" gradientTransform="translate(1198 298) rotate(132.274) scale(214 152)">
      <stop stop-color="#FFF0D9" stop-opacity="0.62"/>
      <stop offset="0.44" stop-color="#FFDDB4" stop-opacity="0.24"/>
      <stop offset="1" stop-color="#FFDDB4" stop-opacity="0"/>
    </radialGradient>
    <radialGradient id="sf-planet-shadow" cx="0" cy="0" r="1" gradientUnits="userSpaceOnUse" gradientTransform="translate(1036 582) rotate(-30.38) scale(270 182)">
      <stop stop-color="#1B0B09" stop-opacity="0.56"/>
      <stop offset="1" stop-color="#1B0B09" stop-opacity="0"/>
    </radialGradient>
    <radialGradient id="sf-metric-bg" cx="0" cy="0" r="1" gradientUnits="userSpaceOnUse" gradientTransform="translate(302 812) rotate(90) scale(112)">
      <stop stop-color="#FFFFFF" stop-opacity="0.06"/>
      <stop offset="1" stop-color="#FFFFFF" stop-opacity="0"/>
    </radialGradient>

    <linearGradient id="sf-orbit-main" x1="1018" y1="186" x2="1452" y2="520" gradientUnits="userSpaceOnUse">
      <stop stop-color="#7A1C0A"/>
      <stop offset="0.2" stop-color="#A82A0F"/>
      <stop offset="0.5" stop-color="#E76623"/>
      <stop offset="0.78" stop-color="#FFB36A"/>
      <stop offset="1" stop-color="#FFF0D8"/>
    </linearGradient>
    <linearGradient id="sf-orbit-core" x1="1040" y1="192" x2="1432" y2="510" gradientUnits="userSpaceOnUse">
      <stop stop-color="#B33114"/>
      <stop offset="0.52" stop-color="#FFD09B"/>
      <stop offset="1" stop-color="#FFF7EC"/>
    </linearGradient>
  </defs>

  <rect width="1600" height="1000" fill="#020202"/>
  <rect width="1600" height="1000" fill="url(#sf-bg-top)"/>
  <rect width="1600" height="1000" fill="url(#sf-bg-bottom)"/>
  <rect width="1600" height="1000" fill="url(#sf-left-wash)"/>

  <g filter="url(#sf-shell-shadow)">
    <rect x="64" y="46" width="1472" height="896" rx="36" fill="url(#sf-shell)"/>
    <rect x="64" y="46" width="1472" height="896" rx="36" stroke="#E4DCD8" stroke-opacity="0.05" stroke-width="2"/>
  </g>

  <rect x="154" y="142" width="58" height="58" rx="18" fill="#FFFFFF" fill-opacity="0.02" stroke="#E4DCD8" stroke-opacity="0.16" stroke-width="2"/>
  <circle cx="183" cy="171" r="8.5" stroke="#F4EDE8" stroke-width="4"/>
  <path d="M189 177L197 185" stroke="#F4EDE8" stroke-width="4" stroke-linecap="round"/>
  <rect x="224" y="142" width="58" height="58" rx="18" fill="#FFFFFF" fill-opacity="0.02" stroke="#E4DCD8" stroke-opacity="0.16" stroke-width="2"/>
  <path d="M244 158V182" stroke="#F4EDE8" stroke-width="4" stroke-linecap="round"/>
  <path d="M262 156V180" stroke="#F4EDE8" stroke-width="4" stroke-linecap="round"/>
  <circle cx="244" cy="165" r="4" fill="#F4EDE8"/>
  <circle cx="262" cy="171" r="4" fill="#F4EDE8"/>

  <text x="154" y="324" fill="#7F7F80" font-size="22" font-family="'Avenir Next', Avenir, 'Helvetica Neue', Arial, sans-serif" font-weight="600">Welcome to Curyo Signal System</text>
  <text x="154" y="398" fill="#F7F3EF" font-size="62" font-family="'Avenir Next', Avenir, 'Helvetica Neue', Arial, sans-serif" font-weight="700">Find a clearer place</text>
  <text x="154" y="470" fill="#F7F3EF" font-size="62" font-family="'Avenir Next', Avenir, 'Helvetica Neue', Arial, sans-serif" font-weight="700">for human-backed</text>
  <text x="154" y="542" fill="#F7F3EF" font-size="62" font-family="'Avenir Next', Avenir, 'Helvetica Neue', Arial, sans-serif" font-weight="700">quality signals.</text>

  <g filter="url(#sf-card-shadow)">
    <rect x="154" y="544" width="326" height="128" rx="26" fill="#08090D"/>
    <rect x="154" y="544" width="326" height="128" rx="26" stroke="#E4DCD8" stroke-opacity="0.06" stroke-width="2"/>
  </g>
  <circle cx="214" cy="608" r="24" fill="#1B1C20"/>
  <circle cx="214" cy="608" r="16" fill="#AA4F2B"/>
  <path d="M204 616C209 608 217 603 226 604" stroke="#FFF3E7" stroke-width="3" stroke-linecap="round"/>
  <text x="264" y="586" fill="#7F7F80" font-size="20" font-family="'Avenir Next', Avenir, 'Helvetica Neue', Arial, sans-serif" font-weight="600">Top of the Round</text>
  <text x="264" y="622" fill="#F7F3EF" font-size="24" font-family="'Avenir Next', Avenir, 'Helvetica Neue', Arial, sans-serif" font-weight="600">Verified humans are</text>
  <text x="264" y="652" fill="#F7F3EF" font-size="24" font-family="'Avenir Next', Avenir, 'Helvetica Neue', Arial, sans-serif" font-weight="600">pushing this to 84/100.</text>
  <path d="M420 582L438 564" stroke="#FFF3E7" stroke-width="4" stroke-linecap="round"/>
  <path d="M421 564H438V581" stroke="#FFF3E7" stroke-width="4" stroke-linecap="round"/>

  <circle cx="1120" cy="432" r="392" fill="url(#sf-planet-aura)"/>
  <circle cx="1120" cy="432" r="360" stroke="#F4EDE8" stroke-opacity="0.03" stroke-width="2"/>
  <circle cx="1120" cy="432" r="338" stroke="#2D2728" stroke-opacity="0.95" stroke-width="34"/>
  <circle cx="1120" cy="432" r="338" stroke="#6E301B" stroke-opacity="0.14" stroke-width="8"/>
  <circle cx="1120" cy="432" r="318" stroke="#F4EDE8" stroke-opacity="0.04" stroke-width="2"/>
  <circle cx="1120" cy="432" r="300" stroke="#F4EDE8" stroke-opacity="0.05" stroke-width="1.6"/>

  <circle cx="1120" cy="432" r="318" stroke="#B14B24" stroke-opacity="0.08" stroke-width="4"/>

  <g filter="url(#sf-ring-glow)">
    <path d="M1229 133A318 318 0 0 1 1426 520" stroke="#AF2D12" stroke-opacity="0.72" stroke-width="28" stroke-linecap="round"/>
  </g>
  <g filter="url(#sf-ring-soft)">
    <path d="M1229 133A318 318 0 0 1 1426 520" stroke="url(#sf-orbit-main)" stroke-width="8.5" stroke-linecap="round"/>
  </g>
  <path d="M1229 133A318 318 0 0 1 1426 520" stroke="url(#sf-orbit-main)" stroke-width="4.8" stroke-linecap="round"/>
  <path d="M1238 140A310 310 0 0 1 1416 510" stroke="url(#sf-orbit-core)" stroke-width="1.9" stroke-linecap="round"/>
  <path d="M1086 116A318 318 0 0 1 1229 133" stroke="#A93214" stroke-opacity="0.34" stroke-width="4.4" stroke-linecap="round"/>
  <path d="M1100 122A310 310 0 0 1 1236 140" stroke="#FF7635" stroke-opacity="0.26" stroke-width="2" stroke-linecap="round"/>
  <g filter="url(#sf-flare-haze)">
    <ellipse cx="1424" cy="520" rx="22" ry="88" transform="rotate(8 1424 520)" fill="#F16420" fill-opacity="0.2"/>
  </g>

  <circle cx="1120" cy="432" r="246" fill="url(#sf-planet-base)"/>
  <g clip-path="url(#sf-planet-clip)">
    <g filter="url(#sf-planet-soft)">
      <ellipse cx="1208" cy="278" rx="140" ry="98" fill="#FFD5A0" fill-opacity="0.42"/>
      <ellipse cx="1048" cy="316" rx="182" ry="132" fill="#F15D1F" fill-opacity="0.24"/>
      <ellipse cx="1018" cy="560" rx="214" ry="154" fill="#34130F" fill-opacity="0.18"/>
      <ellipse cx="1276" cy="516" rx="130" ry="108" fill="#6E2113" fill-opacity="0.08"/>
      <ellipse cx="1168" cy="404" rx="220" ry="124" fill="#F07629" fill-opacity="0.24"/>
      <ellipse cx="1228" cy="458" rx="146" ry="104" fill="#C93A15" fill-opacity="0.12"/>
    </g>
    <rect x="862" y="174" width="516" height="516" filter="url(#sf-planet-dust)" opacity="0.24"/>
    <rect x="862" y="174" width="516" height="516" filter="url(#sf-planet-pits)" opacity="0.14"/>
    <path d="M914 276C998 236 1088 236 1172 270C1252 302 1326 310 1392 294" stroke="#FFD5A2" stroke-opacity="0.12" stroke-width="14" stroke-linecap="round"/>
    <path d="M902 364C998 326 1092 336 1182 372C1264 404 1338 414 1404 402" stroke="#FFC98A" stroke-opacity="0.09" stroke-width="11" stroke-linecap="round"/>
    <path d="M900 500C996 466 1086 474 1172 510C1248 542 1310 548 1370 536" stroke="#FFC98A" stroke-opacity="0.07" stroke-width="9" stroke-linecap="round"/>
    <path d="M944 238C1028 226 1110 246 1180 280C1248 314 1300 332 1348 326" stroke="#4A2015" stroke-opacity="0.38" stroke-width="8" stroke-linecap="round"/>
    <path d="M944 390C1016 372 1084 378 1148 404C1216 432 1270 438 1320 430" stroke="#4C1D14" stroke-opacity="0.3" stroke-width="7" stroke-linecap="round"/>
    <path d="M972 584C1028 564 1086 566 1140 584C1192 602 1236 604 1276 596" stroke="#34150F" stroke-opacity="0.4" stroke-width="10" stroke-linecap="round"/>
    <ellipse cx="1024" cy="338" rx="20" ry="11" fill="#5A2215" fill-opacity="0.28"/>
    <ellipse cx="1306" cy="372" rx="22" ry="12" fill="#432015" fill-opacity="0.34"/>
    <ellipse cx="1182" cy="292" rx="16" ry="9" fill="#FFE2BC" fill-opacity="0.14"/>
    <ellipse cx="1328" cy="570" rx="18" ry="11" fill="#30120E" fill-opacity="0.42"/>
    <ellipse cx="984" cy="486" rx="14" ry="9" fill="#32130E" fill-opacity="0.36"/>
  </g>
  <circle cx="1120" cy="432" r="246" fill="url(#sf-planet-shadow)"/>
  <g filter="url(#sf-rim-blur)">
    <ellipse cx="1198" cy="282" rx="112" ry="60" fill="#FFF0D6" fill-opacity="0.18"/>
  </g>
  <circle cx="1120" cy="432" r="246" fill="url(#sf-planet-rim)"/>

  <circle cx="1120" cy="432" r="40" stroke="#F4EDE8" stroke-opacity="0.18" stroke-width="2"/>
  <path d="M1108 436V422H1122" stroke="#F7F3EF" stroke-width="4" stroke-linecap="round" stroke-linejoin="round"/>
  <path d="M1120 462H1134V448" stroke="#F7F3EF" stroke-width="4" stroke-linecap="round" stroke-linejoin="round"/>

  <circle cx="302" cy="812" r="112" fill="url(#sf-metric-bg)"/>
  <circle cx="302" cy="812" r="76" stroke="#E4DCD8" stroke-opacity="0.12" stroke-width="2"/>
  <circle cx="302" cy="812" r="76" stroke="#D96F39" stroke-width="5" stroke-dasharray="304 172" stroke-linecap="round" transform="rotate(-96 302 812)"/>
  <circle cx="302" cy="812" r="118" stroke="#E4DCD8" stroke-opacity="0.05" stroke-width="2"/>
  <text x="262" y="826" fill="#F7F3EF" font-size="50" font-family="'Avenir Next', Avenir, 'Helvetica Neue', Arial, sans-serif" font-weight="700">84%</text>
  <text x="428" y="778" fill="#7F7F80" font-size="24" font-family="'Avenir Next', Avenir, 'Helvetica Neue', Arial, sans-serif">Current Metrics</text>
  <text x="428" y="842" fill="#F7F3EF" font-size="56" font-family="'Avenir Next', Avenir, 'Helvetica Neue', Arial, sans-serif" font-weight="600">Quality Signal</text>
  <text x="428" y="886" fill="#E4DCD8" fill-opacity="0.66" font-size="24" font-family="'Avenir Next', Avenir, 'Helvetica Neue', Arial, sans-serif">Browse what verified humans are converging on.</text>

  <text x="1308" y="884" fill="#F7F3EF" font-size="22" font-family="'Avenir Next', Avenir, 'Helvetica Neue', Arial, sans-serif">Live Signals</text>
  <rect x="1438" y="860" width="58" height="30" rx="15" fill="#FFFFFF" fill-opacity="0.08" stroke="#E4DCD8" stroke-opacity="0.18" stroke-width="2"/>
  <circle cx="1478" cy="875" r="11" fill="#F7F3EF"/>
</svg>
