<svg width="1600" height="1000" viewBox="0 0 1600 1000" fill="none" xmlns="http://www.w3.org/2000/svg">
  <defs>
    <linearGradient id="landing-shell" x1="72" y1="48" x2="1514" y2="936" gradientUnits="userSpaceOnUse">
      <stop stop-color="#0B0D12"/>
      <stop offset="0.58" stop-color="#10141D"/>
      <stop offset="1" stop-color="#0A0E15"/>
    </linearGradient>
    <linearGradient id="landing-inner-wash" x1="94" y1="72" x2="1500" y2="930" gradientUnits="userSpaceOnUse">
      <stop stop-color="#0B0F16" stop-opacity="0.86"/>
      <stop offset="0.56" stop-color="#101521" stop-opacity="0.44"/>
      <stop offset="1" stop-color="#0B0E16" stop-opacity="0.18"/>
    </linearGradient>
    <radialGradient id="landing-left-glow" cx="0" cy="0" r="1" gradientUnits="userSpaceOnUse" gradientTransform="translate(260 214) rotate(50.281) scale(388 448)">
      <stop stop-color="#294577" stop-opacity="0.24"/>
      <stop offset="1" stop-color="#294577" stop-opacity="0"/>
    </radialGradient>
    <radialGradient id="landing-bottom-glow" cx="0" cy="0" r="1" gradientUnits="userSpaceOnUse" gradientTransform="translate(1126 888) rotate(163.629) scale(554 266)">
      <stop stop-color="#FF7A47" stop-opacity="0.14"/>
      <stop offset="1" stop-color="#FF7A47" stop-opacity="0"/>
    </radialGradient>
    <radialGradient id="landing-right-glow" cx="0" cy="0" r="1" gradientUnits="userSpaceOnUse" gradientTransform="translate(1320 220) rotate(143.104) scale(408 330)">
      <stop stop-color="#F66C6F" stop-opacity="0.16"/>
      <stop offset="1" stop-color="#F66C6F" stop-opacity="0"/>
    </radialGradient>
    <radialGradient id="landing-shell-left-glow" cx="0" cy="0" r="1" gradientUnits="userSpaceOnUse" gradientTransform="translate(364 244) rotate(56.624) scale(356 444)">
      <stop stop-color="#1A2A4A" stop-opacity="0.26"/>
      <stop offset="1" stop-color="#1A2A4A" stop-opacity="0"/>
    </radialGradient>
    <radialGradient id="landing-shell-bottom-glow" cx="0" cy="0" r="1" gradientUnits="userSpaceOnUse" gradientTransform="translate(1188 864) rotate(158.683) scale(468 214)">
      <stop stop-color="#FF7A47" stop-opacity="0.12"/>
      <stop offset="1" stop-color="#FF7A47" stop-opacity="0"/>
    </radialGradient>
    <radialGradient id="landing-shell-right-glow" cx="0" cy="0" r="1" gradientUnits="userSpaceOnUse" gradientTransform="translate(1298 208) rotate(144.192) scale(366 286)">
      <stop stop-color="#D46A79" stop-opacity="0.1"/>
      <stop offset="1" stop-color="#D46A79" stop-opacity="0"/>
    </radialGradient>

    <filter id="shell-shadow" x="28" y="18" width="1544" height="948" filterUnits="userSpaceOnUse" color-interpolation-filters="sRGB">
      <feDropShadow dx="0" dy="26" stdDeviation="26" flood-color="#000000" flood-opacity="0.34"/>
    </filter>
    <filter id="metric-shadow" x="94" y="556" width="832" height="260" filterUnits="userSpaceOnUse" color-interpolation-filters="sRGB">
      <feDropShadow dx="0" dy="18" stdDeviation="20" flood-color="#000000" flood-opacity="0.28"/>
    </filter>
    <filter id="orbit-glow" x="718" y="26" width="812" height="812" filterUnits="userSpaceOnUse" color-interpolation-filters="sRGB">
      <feGaussianBlur stdDeviation="26"/>
    </filter>
    <filter id="orbit-soft" x="754" y="62" width="740" height="740" filterUnits="userSpaceOnUse" color-interpolation-filters="sRGB">
      <feGaussianBlur stdDeviation="10"/>
    </filter>
    <filter id="metric-orbit-glow" x="120" y="560" width="256" height="242" filterUnits="userSpaceOnUse" color-interpolation-filters="sRGB">
      <feGaussianBlur stdDeviation="16"/>
    </filter>
    <filter id="metric-orbit-soft" x="134" y="574" width="228" height="214" filterUnits="userSpaceOnUse" color-interpolation-filters="sRGB">
      <feGaussianBlur stdDeviation="6"/>
    </filter>
    <filter id="planet-highlight-blur" x="874" y="102" width="592" height="432" filterUnits="userSpaceOnUse" color-interpolation-filters="sRGB">
      <feGaussianBlur stdDeviation="28"/>
    </filter>
    <filter id="planet-surface-soft" x="756" y="102" width="756" height="680" filterUnits="userSpaceOnUse" color-interpolation-filters="sRGB">
      <feGaussianBlur stdDeviation="12"/>
    </filter>

    <clipPath id="planet-clip">
      <circle cx="1122" cy="430" r="318"/>
    </clipPath>
    <clipPath id="shell-clip">
      <rect x="52" y="40" width="1496" height="900" rx="36"/>
    </clipPath>

    <radialGradient id="planet-base" cx="0" cy="0" r="1" gradientUnits="userSpaceOnUse" gradientTransform="translate(1204 314) rotate(130.79) scale(460 448)">
      <stop stop-color="#FFD49B"/>
      <stop offset="0.18" stop-color="#FFB278"/>
      <stop offset="0.36" stop-color="#F16A73"/>
      <stop offset="0.58" stop-color="#7B78EA"/>
      <stop offset="0.77" stop-color="#3395E8"/>
      <stop offset="1" stop-color="#0A2D3F"/>
    </radialGradient>
    <radialGradient id="planet-shadow" cx="0" cy="0" r="1" gradientUnits="userSpaceOnUse" gradientTransform="translate(992 606) rotate(-33.282) scale(328 212)">
      <stop stop-color="#0C1322" stop-opacity="0.72"/>
      <stop offset="1" stop-color="#0C1322" stop-opacity="0"/>
    </radialGradient>
    <radialGradient id="planet-rim" cx="0" cy="0" r="1" gradientUnits="userSpaceOnUse" gradientTransform="translate(1238 246) rotate(131.88) scale(254 176)">
      <stop stop-color="#FFFFFF" stop-opacity="0.58"/>
      <stop offset="0.44" stop-color="#FFFFFF" stop-opacity="0.14"/>
      <stop offset="1" stop-color="#FFFFFF" stop-opacity="0"/>
    </radialGradient>
    <radialGradient id="metric-glow" cx="0" cy="0" r="1" gradientUnits="userSpaceOnUse" gradientTransform="translate(248 684) rotate(90) scale(126)">
      <stop stop-color="#FFFFFF" stop-opacity="0.08"/>
      <stop offset="1" stop-color="#FFFFFF" stop-opacity="0"/>
    </radialGradient>

    <linearGradient id="orbit-flare" x1="1198" y1="94" x2="1450" y2="544" gradientUnits="userSpaceOnUse">
      <stop stop-color="#F45D4F"/>
      <stop offset="0.28" stop-color="#FF8C5F"/>
      <stop offset="0.56" stop-color="#FFC37A"/>
      <stop offset="0.82" stop-color="#FFE0A1"/>
      <stop offset="1" stop-color="#FFF2D8"/>
    </linearGradient>
    <linearGradient id="orbit-core" x1="1208" y1="104" x2="1436" y2="536" gradientUnits="userSpaceOnUse">
      <stop stop-color="#FF9B75"/>
      <stop offset="0.52" stop-color="#FFF0CF"/>
      <stop offset="1" stop-color="#FFF7EA"/>
    </linearGradient>
    <linearGradient id="metric-flare" x1="164" y1="604" x2="338" y2="748" gradientUnits="userSpaceOnUse">
      <stop stop-color="#F45D4F"/>
      <stop offset="0.3" stop-color="#FF8C5F"/>
      <stop offset="0.6" stop-color="#FFC37A"/>
      <stop offset="1" stop-color="#FFF0D8"/>
    </linearGradient>
    <linearGradient id="metric-core" x1="172" y1="614" x2="330" y2="740" gradientUnits="userSpaceOnUse">
      <stop stop-color="#FF9B75"/>
      <stop offset="0.52" stop-color="#FFF0CF"/>
      <stop offset="1" stop-color="#FFF7EA"/>
    </linearGradient>
  </defs>

  <rect width="1600" height="1000" fill="#05060A"/>
  <rect width="1600" height="1000" fill="url(#landing-left-glow)"/>
  <rect width="1600" height="1000" fill="url(#landing-right-glow)"/>
  <rect width="1600" height="1000" fill="url(#landing-bottom-glow)"/>

  <g filter="url(#shell-shadow)">
    <rect x="52" y="40" width="1496" height="900" rx="36" fill="url(#landing-shell)"/>
    <rect x="52" y="40" width="1496" height="900" rx="36" stroke="#FFFFFF" stroke-opacity="0.05" stroke-width="2"/>
  </g>
  <g clip-path="url(#shell-clip)">
    <rect x="52" y="40" width="1496" height="900" fill="url(#landing-inner-wash)"/>
    <rect x="52" y="40" width="1496" height="900" fill="url(#landing-shell-left-glow)"/>
    <rect x="52" y="40" width="1496" height="900" fill="url(#landing-shell-right-glow)"/>
    <rect x="52" y="40" width="1496" height="900" fill="url(#landing-shell-bottom-glow)"/>
  </g>

  <circle cx="1122" cy="430" r="392" stroke="#FFFFFF" stroke-opacity="0.035" stroke-width="2"/>
  <circle cx="1122" cy="430" r="362" stroke="#1C1E29" stroke-opacity="0.94" stroke-width="26"/>
  <circle cx="1122" cy="430" r="342" stroke="#FFFFFF" stroke-opacity="0.05" stroke-width="1.8"/>
  <circle cx="1122" cy="430" r="324" stroke="#FFFFFF" stroke-opacity="0.04" stroke-width="1.4"/>

  <circle cx="1122" cy="430" r="352" stroke="#6D3428" stroke-opacity="0.16" stroke-width="6"/>
  <circle cx="1122" cy="430" r="352" stroke="#FFFFFF" stroke-opacity="0.03" stroke-width="2"/>
  <path d="M954 138A344 344 0 0 1 1118 84" stroke="#F7A36F" stroke-opacity="0.12" stroke-width="4" stroke-linecap="round"/>
  <path d="M972 146A336 336 0 0 1 1128 98" stroke="#FFFFFF" stroke-opacity="0.06" stroke-width="2" stroke-linecap="round"/>
  <g filter="url(#orbit-glow)">
    <path d="M1242 108A344 344 0 0 1 1458 548" stroke="#F4614F" stroke-opacity="0.56" stroke-width="28" stroke-linecap="round"/>
  </g>
  <g filter="url(#orbit-soft)">
    <path d="M1242 108A344 344 0 0 1 1458 548" stroke="url(#orbit-flare)" stroke-width="9" stroke-linecap="round"/>
  </g>
  <path d="M1242 108A344 344 0 0 1 1458 548" stroke="url(#orbit-flare)" stroke-width="4.8" stroke-linecap="round"/>
  <path d="M1252 116A336 336 0 0 1 1448 538" stroke="url(#orbit-core)" stroke-width="2" stroke-linecap="round"/>
  <circle cx="1456" cy="548" r="12" fill="#FFF1D8"/>
  <circle cx="1456" cy="548" r="24" fill="#FF8D65" fill-opacity="0.18"/>

  <circle cx="1122" cy="430" r="318" fill="url(#planet-base)"/>
  <g clip-path="url(#planet-clip)">
    <g filter="url(#planet-surface-soft)">
      <ellipse cx="968" cy="276" rx="194" ry="152" fill="#399DF0" fill-opacity="0.56"/>
      <ellipse cx="1166" cy="214" rx="222" ry="154" fill="#F57680" fill-opacity="0.4"/>
      <ellipse cx="1238" cy="338" rx="220" ry="146" fill="#FFD388" fill-opacity="0.36"/>
      <ellipse cx="1138" cy="536" rx="286" ry="148" fill="#0CC7A2" fill-opacity="0.28"/>
      <ellipse cx="958" cy="564" rx="260" ry="178" fill="#13263D" fill-opacity="0.56"/>
      <ellipse cx="1182" cy="620" rx="144" ry="108" fill="#121B30" fill-opacity="0.2"/>
    </g>
    <path d="M810 236C906 190 998 196 1090 236C1182 274 1264 294 1378 286" stroke="#FFFFFF" stroke-opacity="0.08" stroke-width="16" stroke-linecap="round"/>
    <path d="M796 332C894 286 992 296 1088 332C1174 364 1252 382 1364 376" stroke="#FFFFFF" stroke-opacity="0.08" stroke-width="13" stroke-linecap="round"/>
    <path d="M786 450C886 404 986 414 1086 448C1178 478 1260 498 1360 494" stroke="#FFFFFF" stroke-opacity="0.06" stroke-width="11" stroke-linecap="round"/>
    <path d="M810 588C892 548 984 548 1084 578C1172 604 1258 622 1358 610" stroke="#FFFFFF" stroke-opacity="0.06" stroke-width="14" stroke-linecap="round"/>
    <path d="M742 408C844 352 952 354 1062 382C1148 404 1232 430 1338 414C1392 406 1430 392 1458 374" fill="none" stroke="#F68767" stroke-opacity="0.18" stroke-width="26" stroke-linecap="round"/>
    <path d="M732 548C820 504 918 500 1028 528C1120 550 1206 580 1318 582C1380 584 1426 572 1462 550" fill="none" stroke="#17304B" stroke-opacity="0.36" stroke-width="34" stroke-linecap="round"/>
    <circle cx="1184" cy="506" r="10" fill="#FFFFFF" fill-opacity="0.08"/>
    <circle cx="1018" cy="378" r="7" fill="#FFFFFF" fill-opacity="0.06"/>
    <circle cx="1248" cy="326" r="8" fill="#FFFFFF" fill-opacity="0.08"/>
    <circle cx="1096" cy="620" r="8" fill="#FFFFFF" fill-opacity="0.05"/>
  </g>
  <circle cx="1122" cy="430" r="318" fill="url(#planet-shadow)"/>
  <g filter="url(#planet-highlight-blur)">
    <ellipse cx="1180" cy="252" rx="146" ry="92" fill="#FFF3DB" fill-opacity="0.34"/>
  </g>
  <circle cx="1122" cy="430" r="318" fill="url(#planet-rim)"/>

  <text x="148" y="212" fill="#FFFFFF" fill-opacity="0.46" font-size="24" font-family="'Avenir Next', Avenir, 'Helvetica Neue', Arial, sans-serif" font-weight="500">A Better Web, Guided by Human Reputation</text>
  <text x="148" y="316" fill="#FFFFFF" font-size="112" font-weight="700" font-family="'Avenir Next', Avenir, 'Helvetica Neue', Arial, sans-serif" letter-spacing="1">CURYO</text>
  <text x="148" y="388" fill="#FFFFFF" fill-opacity="0.8" font-size="34" font-family="'Avenir Next', Avenir, 'Helvetica Neue', Arial, sans-serif">Find the clearest signal for what</text>
  <text x="148" y="432" fill="#FFFFFF" fill-opacity="0.8" font-size="34" font-family="'Avenir Next', Avenir, 'Helvetica Neue', Arial, sans-serif">deserves attention.</text>

  <rect x="148" y="466" width="152" height="58" rx="18" fill="#FFFFFF"/>
  <text x="191" y="504" fill="#0B0D12" font-size="24" font-weight="700" font-family="'Avenir Next', Avenir, 'Helvetica Neue', Arial, sans-serif">Discover</text>
  <rect x="316" y="466" width="164" height="58" rx="18" fill="#21242C"/>
  <rect x="316" y="466" width="164" height="58" rx="18" stroke="#FFFFFF" stroke-opacity="0.08" stroke-width="2"/>
  <text x="356" y="504" fill="#FFFFFF" font-size="24" font-weight="600" font-family="'Avenir Next', Avenir, 'Helvetica Neue', Arial, sans-serif">Learn More</text>

  <g filter="url(#metric-shadow)">
    <rect x="118" y="590" width="772" height="180" rx="30" fill="#090B10" fill-opacity="0.7"/>
    <rect x="118" y="590" width="772" height="180" rx="30" stroke="#FFFFFF" stroke-opacity="0.06" stroke-width="2"/>
  </g>

  <circle cx="248" cy="680" r="108" fill="url(#metric-glow)"/>
  <circle cx="248" cy="680" r="104" stroke="#FFFFFF" stroke-opacity="0.04" stroke-width="2"/>
  <circle cx="248" cy="680" r="96" stroke="#6D3428" stroke-opacity="0.14" stroke-width="4"/>
  <circle cx="248" cy="680" r="84" stroke="#FFFFFF" stroke-opacity="0.06" stroke-width="2"/>
  <g filter="url(#metric-orbit-glow)">
    <path d="M171.4 615.7A100 100 0 1 1 152.7 710.2" stroke="#F4614F" stroke-opacity="0.42" stroke-width="14"/>
  </g>
  <g filter="url(#metric-orbit-soft)">
    <path d="M171.4 615.7A100 100 0 1 1 152.7 710.2" stroke="url(#metric-flare)" stroke-width="6"/>
  </g>
  <path d="M171.4 615.7A100 100 0 1 1 152.7 710.2" stroke="url(#metric-flare)" stroke-width="3.8"/>
  <path d="M171.4 615.7A100 100 0 1 1 152.7 710.2" stroke="url(#metric-core)" stroke-width="1.5"/>
  <circle cx="171.4" cy="615.7" r="8" fill="#FFF1D8"/>
  <circle cx="171.4" cy="615.7" r="16" fill="#FF8D65" fill-opacity="0.18"/>
  <text x="176" y="706" fill="#FFFFFF" font-size="96" font-weight="700" font-family="'Avenir Next', Avenir, 'Helvetica Neue', Arial, sans-serif">84%</text>

  <text x="414" y="652" fill="#FFFFFF" fill-opacity="0.42" font-size="24" font-family="'Avenir Next', Avenir, 'Helvetica Neue', Arial, sans-serif">Current rating</text>
  <text x="414" y="714" fill="#FFFFFF" font-size="60" font-weight="700" font-family="'Avenir Next', Avenir, 'Helvetica Neue', Arial, sans-serif">Quality Signal</text>
  <text x="414" y="754" fill="#FFFFFF" fill-opacity="0.58" font-size="24" font-family="'Avenir Next', Avenir, 'Helvetica Neue', Arial, sans-serif">42 verified humans backing this round</text>
  <text x="414" y="792" fill="#FFFFFF" fill-opacity="0.42" font-size="20" font-family="'Avenir Next', Avenir, 'Helvetica Neue', Arial, sans-serif">The orbit flare fills to match the live score.</text>
</svg>
