<svg width="1024" height="1024" viewBox="0 0 1024 1024" fill="none" xmlns="http://www.w3.org/2000/svg">
  <defs>
    <radialGradient id="bg-glow-left" cx="0" cy="0" r="1" gradientUnits="userSpaceOnUse" gradientTransform="translate(244 236) rotate(50) scale(286 334)">
      <stop stop-color="#243048" stop-opacity="0.2"/>
      <stop offset="1" stop-color="#243048" stop-opacity="0"/>
    </radialGradient>
    <radialGradient id="bg-glow-right" cx="0" cy="0" r="1" gradientUnits="userSpaceOnUse" gradientTransform="translate(804 248) rotate(144) scale(322 254)">
      <stop stop-color="#FF724A" stop-opacity="0.16"/>
      <stop offset="1" stop-color="#FF724A" stop-opacity="0"/>
    </radialGradient>
    <radialGradient id="bg-glow-bottom" cx="0" cy="0" r="1" gradientUnits="userSpaceOnUse" gradientTransform="translate(704 876) rotate(161) scale(414 180)">
      <stop stop-color="#FF9347" stop-opacity="0.12"/>
      <stop offset="1" stop-color="#FF9347" stop-opacity="0"/>
    </radialGradient>

    <radialGradient id="sphere-base" cx="0" cy="0" r="1" gradientUnits="userSpaceOnUse" gradientTransform="translate(602 350) rotate(132) scale(418 406)">
      <stop stop-color="#FFF2DE"/>
      <stop offset="0.18" stop-color="#FFC58A"/>
      <stop offset="0.38" stop-color="#FF8D58"/>
      <stop offset="0.68" stop-color="#DD4A3E"/>
      <stop offset="1" stop-color="#4C1A22"/>
    </radialGradient>
    <radialGradient id="sphere-center" cx="0" cy="0" r="1" gradientUnits="userSpaceOnUse" gradientTransform="translate(512 512) scale(196)">
      <stop stop-color="#FFF8ED" stop-opacity="0.62"/>
      <stop offset="0.36" stop-color="#FFD491" stop-opacity="0.34"/>
      <stop offset="1" stop-color="#FFD491" stop-opacity="0"/>
    </radialGradient>
    <linearGradient id="flare-gradient" x1="674" y1="146" x2="906" y2="704" gradientUnits="userSpaceOnUse">
      <stop stop-color="#F65F45"/>
      <stop offset="0.24" stop-color="#FF8D5A"/>
      <stop offset="0.56" stop-color="#FFC36F"/>
      <stop offset="0.82" stop-color="#FFE1A5"/>
      <stop offset="1" stop-color="#FFF5E0"/>
    </linearGradient>
    <linearGradient id="flare-core" x1="684" y1="160" x2="892" y2="690" gradientUnits="userSpaceOnUse">
      <stop stop-color="#FFB287"/>
      <stop offset="0.48" stop-color="#FFF0CF"/>
      <stop offset="1" stop-color="#FFF8ED"/>
    </linearGradient>
    <filter id="soft-blur-18" x="0" y="0" width="1024" height="1024" filterUnits="userSpaceOnUse" color-interpolation-filters="sRGB">
      <feGaussianBlur stdDeviation="18"/>
    </filter>
    <filter id="soft-blur-28" x="0" y="0" width="1024" height="1024" filterUnits="userSpaceOnUse" color-interpolation-filters="sRGB">
      <feGaussianBlur stdDeviation="28"/>
    </filter>
    <clipPath id="sphere-clip">
      <circle cx="512" cy="512" r="344"/>
    </clipPath>
  </defs>

  <rect width="1024" height="1024" rx="40" fill="#080B12"/>
  <rect width="1024" height="1024" rx="40" fill="url(#bg-glow-left)"/>
  <rect width="1024" height="1024" rx="40" fill="url(#bg-glow-right)"/>
  <rect width="1024" height="1024" rx="40" fill="url(#bg-glow-bottom)"/>

  <circle cx="512" cy="512" r="458" stroke="#FFFFFF" stroke-opacity="0.03" stroke-width="2"/>
  <circle cx="512" cy="512" r="434" stroke="#342129" stroke-opacity="0.66" stroke-width="12"/>
  <circle cx="512" cy="512" r="420" stroke="#1A1E28" stroke-opacity="0.96" stroke-width="20"/>
  <circle cx="512" cy="512" r="406" stroke="#FFFFFF" stroke-opacity="0.055" stroke-width="2"/>
  <circle cx="512" cy="512" r="394" stroke="#FFFFFF" stroke-opacity="0.038" stroke-width="1.4"/>

  <g filter="url(#soft-blur-28)">
    <circle cx="512" cy="512" r="406" stroke="#F45C4D" stroke-opacity="0.56" stroke-width="28" stroke-linecap="round" stroke-dasharray="666 1885" transform="rotate(-66 512 512)"/>
  </g>
  <circle cx="512" cy="512" r="406" stroke="#6D352A" stroke-opacity="0.42" stroke-width="10" stroke-linecap="round" stroke-dasharray="666 1885" transform="rotate(-66 512 512)"/>
  <circle cx="512" cy="512" r="406" stroke="url(#flare-gradient)" stroke-width="8" stroke-linecap="round" stroke-dasharray="666 1885" transform="rotate(-66 512 512)"/>
  <circle cx="512" cy="512" r="406" stroke="url(#flare-core)" stroke-width="2.4" stroke-linecap="round" stroke-dasharray="666 1885" transform="rotate(-66 512 512)"/>
  <circle cx="871" cy="703" r="23" fill="#FF8D65" fill-opacity="0.18"/>
  <circle cx="871" cy="703" r="9" fill="#FFF3DF"/>

  <circle cx="512" cy="512" r="344" fill="url(#sphere-base)"/>
  <g clip-path="url(#sphere-clip)">
    <g filter="url(#soft-blur-18)">
      <ellipse cx="618" cy="332" rx="174" ry="118" fill="#FFF4DD" fill-opacity="0.28"/>
      <ellipse cx="396" cy="646" rx="210" ry="150" fill="#78252C" fill-opacity="0.24"/>
      <ellipse cx="660" cy="622" rx="236" ry="158" fill="#FFAA62" fill-opacity="0.2"/>
    </g>
    <circle cx="512" cy="512" r="214" stroke="#FFF2E1" stroke-opacity="0.24" stroke-width="12"/>
    <circle cx="512" cy="512" r="166" stroke="#FFD7A8" stroke-opacity="0.22" stroke-width="9"/>
    <circle cx="512" cy="512" r="120" stroke="#FFB075" stroke-opacity="0.18" stroke-width="6"/>
    <circle cx="512" cy="512" r="80" stroke="#FFF4E0" stroke-opacity="0.18" stroke-width="3.6"/>
    <path d="M340 404C398 358 474 332 560 332C618 332 666 344 712 368" stroke="#FFF3DE" stroke-opacity="0.14" stroke-width="16" stroke-linecap="round"/>
    <path d="M344 618C398 656 450 676 516 676C584 676 654 646 710 594" stroke="#FFCA92" stroke-opacity="0.16" stroke-width="18" stroke-linecap="round"/>
    <circle cx="512" cy="512" r="166" fill="url(#sphere-center)"/>
    <circle cx="512" cy="512" r="20" fill="#FFF7EA" fill-opacity="0.18"/>
    <circle cx="442" cy="428" r="14" fill="#FFF1DA" fill-opacity="0.1"/>
    <circle cx="606" cy="562" r="14" fill="#FFF1DA" fill-opacity="0.1"/>
  </g>

  <g filter="url(#soft-blur-28)">
    <ellipse cx="642" cy="344" rx="148" ry="102" fill="#FFF4E2" fill-opacity="0.18"/>
  </g>
  <circle cx="512" cy="512" r="344" fill="none" stroke="#FFFFFF" stroke-opacity="0.14" stroke-width="1.4"/>
</svg>
