<svg width="1024" height="1024" viewBox="0 0 1024 1024" fill="none" xmlns="http://www.w3.org/2000/svg">
  <defs>
    <radialGradient id="bg-glow-left" cx="0" cy="0" r="1" gradientUnits="userSpaceOnUse" gradientTransform="translate(244 236) rotate(50) scale(286 334)">
      <stop stop-color="#2F3A56" stop-opacity="0.22"/>
      <stop offset="1" stop-color="#2F3A56" stop-opacity="0"/>
    </radialGradient>
    <radialGradient id="bg-glow-right" cx="0" cy="0" r="1" gradientUnits="userSpaceOnUse" gradientTransform="translate(804 248) rotate(144) scale(322 254)">
      <stop stop-color="#FF704D" stop-opacity="0.16"/>
      <stop offset="1" stop-color="#FF704D" stop-opacity="0"/>
    </radialGradient>
    <radialGradient id="bg-glow-bottom" cx="0" cy="0" r="1" gradientUnits="userSpaceOnUse" gradientTransform="translate(704 876) rotate(161) scale(414 180)">
      <stop stop-color="#FF9347" stop-opacity="0.12"/>
      <stop offset="1" stop-color="#FF9347" stop-opacity="0"/>
    </radialGradient>

    <radialGradient id="sphere-base" cx="0" cy="0" r="1" gradientUnits="userSpaceOnUse" gradientTransform="translate(644 356) rotate(138) scale(432 404)">
      <stop stop-color="#FFF1D8"/>
      <stop offset="0.18" stop-color="#FFC891"/>
      <stop offset="0.42" stop-color="#FF8B57"/>
      <stop offset="0.7" stop-color="#E14942"/>
      <stop offset="1" stop-color="#511D25"/>
    </radialGradient>
    <radialGradient id="sphere-core" cx="0" cy="0" r="1" gradientUnits="userSpaceOnUse" gradientTransform="translate(602 448) rotate(138) scale(220 180)">
      <stop stop-color="#FFF7E8" stop-opacity="0.9"/>
      <stop offset="0.32" stop-color="#FFD38A" stop-opacity="0.56"/>
      <stop offset="1" stop-color="#FFD38A" stop-opacity="0"/>
    </radialGradient>
    <radialGradient id="sphere-rim" cx="0" cy="0" r="1" gradientUnits="userSpaceOnUse" gradientTransform="translate(354 698) rotate(-20) scale(244 160)">
      <stop stop-color="#662833" stop-opacity="0.42"/>
      <stop offset="1" stop-color="#662833" stop-opacity="0"/>
    </radialGradient>
    <linearGradient id="lens-band" x1="280" y1="564" x2="760" y2="386" gradientUnits="userSpaceOnUse">
      <stop stop-color="#FFD7A0" stop-opacity="0"/>
      <stop offset="0.2" stop-color="#FFD7A0" stop-opacity="0.26"/>
      <stop offset="0.5" stop-color="#FFF3DA" stop-opacity="0.5"/>
      <stop offset="0.78" stop-color="#FFBC8A" stop-opacity="0.28"/>
      <stop offset="1" stop-color="#FFBC8A" stop-opacity="0"/>
    </linearGradient>
    <linearGradient id="flare-gradient" x1="674" y1="146" x2="906" y2="704" gradientUnits="userSpaceOnUse">
      <stop stop-color="#F65F45"/>
      <stop offset="0.24" stop-color="#FF8D5A"/>
      <stop offset="0.56" stop-color="#FFC36F"/>
      <stop offset="0.82" stop-color="#FFE1A5"/>
      <stop offset="1" stop-color="#FFF5E0"/>
    </linearGradient>
    <linearGradient id="flare-core" x1="684" y1="160" x2="892" y2="690" gradientUnits="userSpaceOnUse">
      <stop stop-color="#FFB287"/>
      <stop offset="0.48" stop-color="#FFF0CF"/>
      <stop offset="1" stop-color="#FFF8ED"/>
    </linearGradient>

    <filter id="soft-blur-18" x="0" y="0" width="1024" height="1024" filterUnits="userSpaceOnUse" color-interpolation-filters="sRGB">
      <feGaussianBlur stdDeviation="18"/>
    </filter>
    <filter id="soft-blur-28" x="0" y="0" width="1024" height="1024" filterUnits="userSpaceOnUse" color-interpolation-filters="sRGB">
      <feGaussianBlur stdDeviation="28"/>
    </filter>

    <clipPath id="sphere-clip">
      <circle cx="512" cy="512" r="344"/>
    </clipPath>
  </defs>

  <rect width="1024" height="1024" rx="40" fill="#080B12"/>
  <rect width="1024" height="1024" rx="40" fill="url(#bg-glow-left)"/>
  <rect width="1024" height="1024" rx="40" fill="url(#bg-glow-right)"/>
  <rect width="1024" height="1024" rx="40" fill="url(#bg-glow-bottom)"/>

  <circle cx="512" cy="512" r="458" stroke="#FFFFFF" stroke-opacity="0.03" stroke-width="2"/>
  <circle cx="512" cy="512" r="434" stroke="#342129" stroke-opacity="0.66" stroke-width="12"/>
  <circle cx="512" cy="512" r="420" stroke="#1A1E28" stroke-opacity="0.96" stroke-width="20"/>
  <circle cx="512" cy="512" r="406" stroke="#FFFFFF" stroke-opacity="0.055" stroke-width="2"/>
  <circle cx="512" cy="512" r="394" stroke="#FFFFFF" stroke-opacity="0.038" stroke-width="1.4"/>

  <circle cx="512" cy="512" r="434" stroke="#F3A16E" stroke-opacity="0.08" stroke-width="6" stroke-linecap="round" stroke-dasharray="580 2147" transform="rotate(-136 512 512)"/>
  <circle cx="512" cy="512" r="420" stroke="#FFFFFF" stroke-opacity="0.04" stroke-width="2.2" stroke-linecap="round" stroke-dasharray="520 2119" transform="rotate(-136 512 512)"/>

  <g filter="url(#soft-blur-28)">
    <circle cx="512" cy="512" r="406" stroke="#F45C4D" stroke-opacity="0.58" stroke-width="28" stroke-linecap="round" stroke-dasharray="666 1885" transform="rotate(-66 512 512)"/>
  </g>
  <circle cx="512" cy="512" r="406" stroke="#6D352A" stroke-opacity="0.42" stroke-width="10" stroke-linecap="round" stroke-dasharray="666 1885" transform="rotate(-66 512 512)"/>
  <circle cx="512" cy="512" r="406" stroke="url(#flare-gradient)" stroke-width="8" stroke-linecap="round" stroke-dasharray="666 1885" transform="rotate(-66 512 512)"/>
  <circle cx="512" cy="512" r="406" stroke="url(#flare-core)" stroke-width="2.4" stroke-linecap="round" stroke-dasharray="666 1885" transform="rotate(-66 512 512)"/>
  <circle cx="871" cy="703" r="23" fill="#FF8D65" fill-opacity="0.18"/>
  <circle cx="871" cy="703" r="9" fill="#FFF3DF"/>

  <circle cx="512" cy="512" r="344" fill="url(#sphere-base)"/>
  <g clip-path="url(#sphere-clip)">
    <circle cx="512" cy="512" r="344" fill="url(#sphere-rim)"/>
    <g filter="url(#soft-blur-18)">
      <ellipse cx="614" cy="332" rx="180" ry="126" fill="#FFF4DA" fill-opacity="0.36"/>
      <ellipse cx="438" cy="640" rx="236" ry="166" fill="#832B31" fill-opacity="0.26"/>
      <ellipse cx="658" cy="600" rx="220" ry="144" fill="#FFAA62" fill-opacity="0.22"/>
      <ellipse cx="382" cy="426" rx="160" ry="138" fill="#FF7B53" fill-opacity="0.22"/>
    </g>
    <path d="M214 592C314 544 406 498 490 450C578 400 656 372 796 350" stroke="url(#lens-band)" stroke-width="74" stroke-linecap="round"/>
    <path d="M256 648C380 590 514 546 672 500" stroke="#FFF3D7" stroke-opacity="0.08" stroke-width="18" stroke-linecap="round"/>
    <path d="M280 372C370 394 450 430 554 492C632 538 708 574 804 606" stroke="#FFF2DE" stroke-opacity="0.08" stroke-width="16" stroke-linecap="round"/>
    <circle cx="560" cy="484" r="176" fill="url(#sphere-core)"/>
    <circle cx="620" cy="420" r="22" fill="#FFF7E9" fill-opacity="0.18"/>
    <circle cx="404" cy="608" r="18" fill="#FFD4A8" fill-opacity="0.08"/>
  </g>

  <g filter="url(#soft-blur-28)">
    <ellipse cx="644" cy="340" rx="154" ry="106" fill="#FFF4E2" fill-opacity="0.2"/>
  </g>
  <circle cx="512" cy="512" r="344" fill="none" stroke="#FFFFFF" stroke-opacity="0.14" stroke-width="1.4"/>
</svg>
