<svg width="1600" height="1000" viewBox="0 0 1600 1000" fill="none" xmlns="http://www.w3.org/2000/svg">
  <defs>
    <linearGradient id="landing-shell" x1="72" y1="48" x2="1514" y2="936" gradientUnits="userSpaceOnUse">
      <stop stop-color="#0B0D12"/>
      <stop offset="0.58" stop-color="#10141D"/>
      <stop offset="1" stop-color="#0A0E15"/>
    </linearGradient>
    <radialGradient id="landing-left-glow" cx="0" cy="0" r="1" gradientUnits="userSpaceOnUse" gradientTransform="translate(260 214) rotate(50.281) scale(388 448)">
      <stop stop-color="#294577" stop-opacity="0.24"/>
      <stop offset="1" stop-color="#294577" stop-opacity="0"/>
    </radialGradient>
    <radialGradient id="landing-bottom-glow" cx="0" cy="0" r="1" gradientUnits="userSpaceOnUse" gradientTransform="translate(1126 888) rotate(163.629) scale(554 266)">
      <stop stop-color="#FF7A47" stop-opacity="0.14"/>
      <stop offset="1" stop-color="#FF7A47" stop-opacity="0"/>
    </radialGradient>
    <radialGradient id="landing-right-glow" cx="0" cy="0" r="1" gradientUnits="userSpaceOnUse" gradientTransform="translate(1320 220) rotate(143.104) scale(408 330)">
      <stop stop-color="#F66C6F" stop-opacity="0.16"/>
      <stop offset="1" stop-color="#F66C6F" stop-opacity="0"/>
    </radialGradient>

    <filter id="shell-shadow" x="28" y="18" width="1544" height="948" filterUnits="userSpaceOnUse" color-interpolation-filters="sRGB">
      <feDropShadow dx="0" dy="26" stdDeviation="26" flood-color="#000000" flood-opacity="0.34"/>
    </filter>
    <filter id="note-shadow" x="114" y="490" width="458" height="188" filterUnits="userSpaceOnUse" color-interpolation-filters="sRGB">
      <feDropShadow dx="0" dy="18" stdDeviation="18" flood-color="#000000" flood-opacity="0.32"/>
    </filter>
    <filter id="metric-shadow" x="94" y="704" width="824" height="250" filterUnits="userSpaceOnUse" color-interpolation-filters="sRGB">
      <feDropShadow dx="0" dy="18" stdDeviation="20" flood-color="#000000" flood-opacity="0.28"/>
    </filter>
    <filter id="orbit-glow" x="782" y="48" width="752" height="720" filterUnits="userSpaceOnUse" color-interpolation-filters="sRGB">
      <feGaussianBlur stdDeviation="26"/>
    </filter>
    <filter id="orbit-soft" x="830" y="84" width="672" height="652" filterUnits="userSpaceOnUse" color-interpolation-filters="sRGB">
      <feGaussianBlur stdDeviation="10"/>
    </filter>
    <filter id="planet-highlight-blur" x="874" y="102" width="592" height="432" filterUnits="userSpaceOnUse" color-interpolation-filters="sRGB">
      <feGaussianBlur stdDeviation="28"/>
    </filter>
    <filter id="planet-surface-soft" x="756" y="102" width="756" height="680" filterUnits="userSpaceOnUse" color-interpolation-filters="sRGB">
      <feGaussianBlur stdDeviation="12"/>
    </filter>

    <clipPath id="planet-clip">
      <circle cx="1122" cy="430" r="318"/>
    </clipPath>

    <radialGradient id="planet-base" cx="0" cy="0" r="1" gradientUnits="userSpaceOnUse" gradientTransform="translate(1204 314) rotate(130.79) scale(460 448)">
      <stop stop-color="#FFD49B"/>
      <stop offset="0.18" stop-color="#FFB278"/>
      <stop offset="0.36" stop-color="#F16A73"/>
      <stop offset="0.58" stop-color="#7B78EA"/>
      <stop offset="0.77" stop-color="#3395E8"/>
      <stop offset="1" stop-color="#0A2D3F"/>
    </radialGradient>
    <radialGradient id="planet-shadow" cx="0" cy="0" r="1" gradientUnits="userSpaceOnUse" gradientTransform="translate(992 606) rotate(-33.282) scale(328 212)">
      <stop stop-color="#0C1322" stop-opacity="0.72"/>
      <stop offset="1" stop-color="#0C1322" stop-opacity="0"/>
    </radialGradient>
    <radialGradient id="planet-rim" cx="0" cy="0" r="1" gradientUnits="userSpaceOnUse" gradientTransform="translate(1238 246) rotate(131.88) scale(254 176)">
      <stop stop-color="#FFFFFF" stop-opacity="0.58"/>
      <stop offset="0.44" stop-color="#FFFFFF" stop-opacity="0.14"/>
      <stop offset="1" stop-color="#FFFFFF" stop-opacity="0"/>
    </radialGradient>
    <radialGradient id="metric-glow" cx="0" cy="0" r="1" gradientUnits="userSpaceOnUse" gradientTransform="translate(262 826) rotate(90) scale(136)">
      <stop stop-color="#FFFFFF" stop-opacity="0.08"/>
      <stop offset="1" stop-color="#FFFFFF" stop-opacity="0"/>
    </radialGradient>

    <linearGradient id="orbit-flare" x1="1198" y1="94" x2="1450" y2="544" gradientUnits="userSpaceOnUse">
      <stop stop-color="#F45D4F"/>
      <stop offset="0.28" stop-color="#FF8C5F"/>
      <stop offset="0.56" stop-color="#FFC37A"/>
      <stop offset="0.82" stop-color="#FFE0A1"/>
      <stop offset="1" stop-color="#FFF2D8"/>
    </linearGradient>
    <linearGradient id="orbit-core" x1="1208" y1="104" x2="1436" y2="536" gradientUnits="userSpaceOnUse">
      <stop stop-color="#FF9B75"/>
      <stop offset="0.52" stop-color="#FFF0CF"/>
      <stop offset="1" stop-color="#FFF7EA"/>
    </linearGradient>
  </defs>

  <rect width="1600" height="1000" fill="#05060A"/>
  <rect width="1600" height="1000" fill="url(#landing-left-glow)"/>
  <rect width="1600" height="1000" fill="url(#landing-right-glow)"/>
  <rect width="1600" height="1000" fill="url(#landing-bottom-glow)"/>

  <g filter="url(#shell-shadow)">
    <rect x="52" y="40" width="1496" height="900" rx="36" fill="url(#landing-shell)"/>
    <rect x="52" y="40" width="1496" height="900" rx="36" stroke="#FFFFFF" stroke-opacity="0.05" stroke-width="2"/>
  </g>

  <circle cx="1122" cy="430" r="392" stroke="#FFFFFF" stroke-opacity="0.035" stroke-width="2"/>
  <circle cx="1122" cy="430" r="362" stroke="#1C1E29" stroke-opacity="0.94" stroke-width="26"/>
  <circle cx="1122" cy="430" r="342" stroke="#FFFFFF" stroke-opacity="0.05" stroke-width="1.8"/>
  <circle cx="1122" cy="430" r="324" stroke="#FFFFFF" stroke-opacity="0.04" stroke-width="1.4"/>

  <path d="M954 138A344 344 0 0 1 1118 84" stroke="#F7A36F" stroke-opacity="0.12" stroke-width="4" stroke-linecap="round"/>
  <path d="M972 146A336 336 0 0 1 1128 98" stroke="#FFFFFF" stroke-opacity="0.06" stroke-width="2" stroke-linecap="round"/>
  <g filter="url(#orbit-glow)">
    <path d="M1242 108A344 344 0 0 1 1458 548" stroke="#F4614F" stroke-opacity="0.56" stroke-width="28" stroke-linecap="round"/>
  </g>
  <g filter="url(#orbit-soft)">
    <path d="M1242 108A344 344 0 0 1 1458 548" stroke="url(#orbit-flare)" stroke-width="9" stroke-linecap="round"/>
  </g>
  <path d="M1242 108A344 344 0 0 1 1458 548" stroke="url(#orbit-flare)" stroke-width="4.8" stroke-linecap="round"/>
  <path d="M1252 116A336 336 0 0 1 1448 538" stroke="url(#orbit-core)" stroke-width="2" stroke-linecap="round"/>
  <circle cx="1456" cy="548" r="12" fill="#FFF1D8"/>
  <circle cx="1456" cy="548" r="26" fill="#FF8D65" fill-opacity="0.2"/>

  <circle cx="1122" cy="430" r="318" fill="url(#planet-base)"/>
  <g clip-path="url(#planet-clip)">
    <g filter="url(#planet-surface-soft)">
      <ellipse cx="968" cy="276" rx="194" ry="152" fill="#399DF0" fill-opacity="0.56"/>
      <ellipse cx="1166" cy="214" rx="222" ry="154" fill="#F57680" fill-opacity="0.4"/>
      <ellipse cx="1238" cy="338" rx="220" ry="146" fill="#FFD388" fill-opacity="0.36"/>
      <ellipse cx="1138" cy="536" rx="286" ry="148" fill="#0CC7A2" fill-opacity="0.28"/>
      <ellipse cx="958" cy="564" rx="260" ry="178" fill="#13263D" fill-opacity="0.56"/>
      <ellipse cx="1182" cy="620" rx="144" ry="108" fill="#121B30" fill-opacity="0.2"/>
    </g>
    <path d="M810 236C906 190 998 196 1090 236C1182 274 1264 294 1378 286" stroke="#FFFFFF" stroke-opacity="0.08" stroke-width="16" stroke-linecap="round"/>
    <path d="M796 332C894 286 992 296 1088 332C1174 364 1252 382 1364 376" stroke="#FFFFFF" stroke-opacity="0.08" stroke-width="13" stroke-linecap="round"/>
    <path d="M786 450C886 404 986 414 1086 448C1178 478 1260 498 1360 494" stroke="#FFFFFF" stroke-opacity="0.06" stroke-width="11" stroke-linecap="round"/>
    <path d="M810 588C892 548 984 548 1084 578C1172 604 1258 622 1358 610" stroke="#FFFFFF" stroke-opacity="0.06" stroke-width="14" stroke-linecap="round"/>
    <path d="M742 408C844 352 952 354 1062 382C1148 404 1232 430 1338 414C1392 406 1430 392 1458 374" fill="none" stroke="#F68767" stroke-opacity="0.18" stroke-width="26" stroke-linecap="round"/>
    <path d="M732 548C820 504 918 500 1028 528C1120 550 1206 580 1318 582C1380 584 1426 572 1462 550" fill="none" stroke="#17304B" stroke-opacity="0.36" stroke-width="34" stroke-linecap="round"/>
    <circle cx="1184" cy="506" r="10" fill="#FFFFFF" fill-opacity="0.08"/>
    <circle cx="1018" cy="378" r="7" fill="#FFFFFF" fill-opacity="0.06"/>
    <circle cx="1248" cy="326" r="8" fill="#FFFFFF" fill-opacity="0.08"/>
    <circle cx="1096" cy="620" r="8" fill="#FFFFFF" fill-opacity="0.05"/>
  </g>
  <circle cx="1122" cy="430" r="318" fill="url(#planet-shadow)"/>
  <g filter="url(#planet-highlight-blur)">
    <ellipse cx="1180" cy="252" rx="146" ry="92" fill="#FFF3DB" fill-opacity="0.34"/>
  </g>
  <circle cx="1122" cy="430" r="318" fill="url(#planet-rim)"/>

  <text x="148" y="212" fill="#FFFFFF" fill-opacity="0.46" font-size="24" font-family="'Avenir Next', Avenir, 'Helvetica Neue', Arial, sans-serif" font-weight="500">Quality Signals Backed by Human Reputation</text>
  <text x="148" y="316" fill="#FFFFFF" font-size="112" font-weight="700" font-family="'Avenir Next', Avenir, 'Helvetica Neue', Arial, sans-serif" letter-spacing="1">CURYO</text>
  <text x="148" y="388" fill="#FFFFFF" fill-opacity="0.8" font-size="34" font-family="'Avenir Next', Avenir, 'Helvetica Neue', Arial, sans-serif">Find the clearest signal for what</text>
  <text x="148" y="432" fill="#FFFFFF" fill-opacity="0.8" font-size="34" font-family="'Avenir Next', Avenir, 'Helvetica Neue', Arial, sans-serif">deserves attention.</text>

  <rect x="148" y="466" width="152" height="58" rx="18" fill="#FFFFFF"/>
  <text x="191" y="504" fill="#0B0D12" font-size="24" font-weight="700" font-family="'Avenir Next', Avenir, 'Helvetica Neue', Arial, sans-serif">Discover</text>
  <rect x="316" y="466" width="164" height="58" rx="18" fill="#21242C"/>
  <rect x="316" y="466" width="164" height="58" rx="18" stroke="#FFFFFF" stroke-opacity="0.08" stroke-width="2"/>
  <text x="356" y="504" fill="#FFFFFF" font-size="24" font-weight="600" font-family="'Avenir Next', Avenir, 'Helvetica Neue', Arial, sans-serif">Learn More</text>

  <g filter="url(#note-shadow)">
    <rect x="132" y="522" width="422" height="124" rx="28" fill="#07090D" fill-opacity="0.9"/>
    <rect x="132" y="522" width="422" height="124" rx="28" stroke="#FFFFFF" stroke-opacity="0.06" stroke-width="2"/>
  </g>
  <circle cx="196" cy="584" r="23" fill="#1C1F28"/>
  <circle cx="196" cy="584" r="15" fill="#FF9D6E"/>
  <path d="M188 590C193 584 200 580 208 581" stroke="#FFF2E2" stroke-width="3" stroke-linecap="round"/>
  <text x="236" y="564" fill="#FFFFFF" fill-opacity="0.44" font-size="20" font-family="'Avenir Next', Avenir, 'Helvetica Neue', Arial, sans-serif">Top of the Round</text>
  <text x="236" y="600" fill="#FFFFFF" font-size="24" font-weight="600" font-family="'Avenir Next', Avenir, 'Helvetica Neue', Arial, sans-serif">Verified humans are pushing</text>
  <text x="236" y="630" fill="#FFFFFF" font-size="24" font-weight="600" font-family="'Avenir Next', Avenir, 'Helvetica Neue', Arial, sans-serif">this signal to 84/100.</text>
  <path d="M492 558L510 540" stroke="#FFFFFF" stroke-width="4" stroke-linecap="round"/>
  <path d="M493 540H510V557" stroke="#FFFFFF" stroke-width="4" stroke-linecap="round"/>

  <g filter="url(#metric-shadow)">
    <rect x="118" y="736" width="760" height="176" rx="30" fill="#090B10" fill-opacity="0.7"/>
    <rect x="118" y="736" width="760" height="176" rx="30" stroke="#FFFFFF" stroke-opacity="0.06" stroke-width="2"/>
  </g>

  <circle cx="262" cy="824" r="116" fill="url(#metric-glow)"/>
  <circle cx="262" cy="824" r="78" stroke="#FFFFFF" stroke-opacity="0.12" stroke-width="2"/>
  <path d="M230.9 747A83 83 0 0 1 323.7 768.5L316.2 775.2A73 73 0 0 0 234.7 756.3Z" fill="#FFB870"/>
  <path d="M339 792.9A83 83 0 0 1 335.3 863L326.5 858.3A73 73 0 0 0 329.7 796.7Z" fill="#F46D79"/>
  <path d="M317.5 885.7A83 83 0 0 1 241.9 904.5L244.3 894.8A73 73 0 0 0 310.8 878.2Z" fill="#7C79EA"/>
  <path d="M215.6 892.8A83 83 0 0 1 179.2 818.2L189.2 818.9A73 73 0 0 0 221.2 884.5Z" fill="#2E99E7"/>
  <path d="M187.4 787.6A83 83 0 0 1 236.4 745.1L239.4 754.6A73 73 0 0 0 196.4 792Z" fill="#14C8A1"/>
  <circle cx="262" cy="824" r="118" stroke="#FFFFFF" stroke-opacity="0.05" stroke-width="2"/>
  <text x="220" y="838" fill="#FFFFFF" font-size="54" font-weight="700" font-family="'Avenir Next', Avenir, 'Helvetica Neue', Arial, sans-serif">84%</text>

  <text x="406" y="790" fill="#FFFFFF" fill-opacity="0.42" font-size="24" font-family="'Avenir Next', Avenir, 'Helvetica Neue', Arial, sans-serif">Current rating</text>
  <text x="406" y="850" fill="#FFFFFF" font-size="56" font-weight="700" font-family="'Avenir Next', Avenir, 'Helvetica Neue', Arial, sans-serif">Quality Signal</text>
  <text x="406" y="892" fill="#FFFFFF" fill-opacity="0.58" font-size="24" font-family="'Avenir Next', Avenir, 'Helvetica Neue', Arial, sans-serif">42 verified humans backing this round</text>
</svg>
