<svg width="1740" height="1160" viewBox="0 0 1740 1160" fill="none" xmlns="http://www.w3.org/2000/svg">
  <defs>
    <linearGradient id="experimental-board-bg" x1="70" y1="40" x2="1670" y2="1120" gradientUnits="userSpaceOnUse">
      <stop stop-color="#05070D"/>
      <stop offset="0.48" stop-color="#0A111B"/>
      <stop offset="1" stop-color="#070B12"/>
    </linearGradient>
    <radialGradient id="experimental-board-left" cx="0" cy="0" r="1" gradientUnits="userSpaceOnUse" gradientTransform="translate(250 180) rotate(42) scale(360 260)">
      <stop stop-color="#7A67FF" stop-opacity="0.18"/>
      <stop offset="1" stop-color="#7A67FF" stop-opacity="0"/>
    </radialGradient>
    <radialGradient id="experimental-board-right" cx="0" cy="0" r="1" gradientUnits="userSpaceOnUse" gradientTransform="translate(1490 180) rotate(144) scale(380 250)">
      <stop stop-color="#8EFFC8" stop-opacity="0.14"/>
      <stop offset="1" stop-color="#8EFFC8" stop-opacity="0"/>
    </radialGradient>
    
      <linearGradient id="aurora-relay-panel-panel-bg" x1="80" y1="120" x2="840" y2="600" gradientUnits="userSpaceOnUse">
        <stop stop-color="#050914"/>
        <stop offset="1" stop-color="#111735"/>
      </linearGradient>
      <radialGradient id="aurora-relay-panel-panel-glow" cx="0" cy="0" r="1" gradientUnits="userSpaceOnUse" gradientTransform="translate(248 290) rotate(28) scale(188 148)">
        <stop stop-color="#65F3C7" stop-opacity="0.24"/>
        <stop offset="1" stop-color="#65F3C7" stop-opacity="0"/>
      </radialGradient>
      <radialGradient id="aurora-relay-panel-panel-glow-soft" cx="0" cy="0" r="1" gradientUnits="userSpaceOnUse" gradientTransform="translate(690 228) rotate(154) scale(216 138)">
        <stop stop-color="#6A67FF" stop-opacity="0.3"/>
        <stop offset="1" stop-color="#6A67FF" stop-opacity="0"/>
      </radialGradient>
      
    <radialGradient id="aurora-relay-panel-planet-base" cx="0" cy="0" r="1" gradientUnits="userSpaceOnUse" gradientTransform="translate(636 360) rotate(130) scale(514 494)">
      <stop stop-color="#F2FFFB"/><stop offset="0.16" stop-color="#8FECD9"/><stop offset="0.34" stop-color="#5BBDE9"/><stop offset="0.57" stop-color="#6C7CF9"/><stop offset="0.8" stop-color="#6A32A4"/><stop offset="1" stop-color="#081020"/>
    </radialGradient>
    <radialGradient id="aurora-relay-panel-planet-shadow" cx="0" cy="0" r="1" gradientUnits="userSpaceOnUse" gradientTransform="translate(382 664) rotate(-28) scale(248 162)">
      <stop stop-color="#050A13" stop-opacity="0.8"/>
      <stop offset="1" stop-color="#050A13" stop-opacity="0"/>
    </radialGradient>
    <radialGradient id="aurora-relay-panel-planet-highlight" cx="0" cy="0" r="1" gradientUnits="userSpaceOnUse" gradientTransform="translate(668 336) rotate(138) scale(198 132)">
      <stop stop-color="#F8FFFF" stop-opacity="0.76"/>
      <stop offset="0.5" stop-color="#F8FFFF" stop-opacity="0.26"/>
      <stop offset="1" stop-color="#F8FFFF" stop-opacity="0"/>
    </radialGradient>
    <radialGradient id="aurora-relay-panel-planet-atmosphere" cx="0" cy="0" r="1" gradientUnits="userSpaceOnUse" gradientTransform="translate(740 292) rotate(150) scale(228 92)">
      <stop stop-color="#BEFFF0" stop-opacity="0.24"/>
      <stop offset="1" stop-color="#BEFFF0" stop-opacity="0"/>
    </radialGradient>
    <linearGradient id="aurora-relay-panel-flare-gradient" x1="674" y1="146" x2="906" y2="704" gradientUnits="userSpaceOnUse">
      <stop stop-color="#41E6C0"/><stop offset="0.26" stop-color="#74F4D5"/><stop offset="0.58" stop-color="#B4FFD8"/><stop offset="0.84" stop-color="#E9FFF1"/><stop offset="1" stop-color="#FFFFFF"/>
    </linearGradient>
    <linearGradient id="aurora-relay-panel-flare-core" x1="684" y1="160" x2="892" y2="690" gradientUnits="userSpaceOnUse">
      <stop stop-color="#96FFE7"/><stop offset="0.52" stop-color="#F1FFF9"/><stop offset="1" stop-color="#FFFFFF"/>
    </linearGradient>
    <filter id="aurora-relay-panel-soft-blur-20" x="0" y="0" width="1024" height="1024" filterUnits="userSpaceOnUse" color-interpolation-filters="sRGB">
      <feGaussianBlur stdDeviation="20"/>
    </filter>
    <filter id="aurora-relay-panel-soft-blur-28" x="0" y="0" width="1024" height="1024" filterUnits="userSpaceOnUse" color-interpolation-filters="sRGB">
      <feGaussianBlur stdDeviation="28"/>
    </filter>
    <clipPath id="aurora-relay-panel-planet-clip">
      <circle cx="512" cy="512" r="344"/>
    </clipPath>
  
    
      <linearGradient id="rose-eclipse-panel-panel-bg" x1="910" y1="120" x2="1670" y2="600" gradientUnits="userSpaceOnUse">
        <stop stop-color="#14070F"/>
        <stop offset="1" stop-color="#26121D"/>
      </linearGradient>
      <radialGradient id="rose-eclipse-panel-panel-glow" cx="0" cy="0" r="1" gradientUnits="userSpaceOnUse" gradientTransform="translate(1078 290) rotate(28) scale(188 148)">
        <stop stop-color="#FF64B8" stop-opacity="0.24"/>
        <stop offset="1" stop-color="#FF64B8" stop-opacity="0"/>
      </radialGradient>
      <radialGradient id="rose-eclipse-panel-panel-glow-soft" cx="0" cy="0" r="1" gradientUnits="userSpaceOnUse" gradientTransform="translate(1520 228) rotate(154) scale(216 138)">
        <stop stop-color="#9566FF" stop-opacity="0.3"/>
        <stop offset="1" stop-color="#9566FF" stop-opacity="0"/>
      </radialGradient>
      
    <radialGradient id="rose-eclipse-panel-planet-base" cx="0" cy="0" r="1" gradientUnits="userSpaceOnUse" gradientTransform="translate(636 360) rotate(130) scale(514 494)">
      <stop stop-color="#FFF3FB"/><stop offset="0.16" stop-color="#FFB4D7"/><stop offset="0.34" stop-color="#FF718F"/><stop offset="0.58" stop-color="#A85BE7"/><stop offset="0.8" stop-color="#5A1F53"/><stop offset="1" stop-color="#140913"/>
    </radialGradient>
    <radialGradient id="rose-eclipse-panel-planet-shadow" cx="0" cy="0" r="1" gradientUnits="userSpaceOnUse" gradientTransform="translate(382 664) rotate(-28) scale(248 162)">
      <stop stop-color="#130611" stop-opacity="0.84"/>
      <stop offset="1" stop-color="#130611" stop-opacity="0"/>
    </radialGradient>
    <radialGradient id="rose-eclipse-panel-planet-highlight" cx="0" cy="0" r="1" gradientUnits="userSpaceOnUse" gradientTransform="translate(668 336) rotate(138) scale(198 132)">
      <stop stop-color="#FFF6FB" stop-opacity="0.72"/>
      <stop offset="0.5" stop-color="#FFF6FB" stop-opacity="0.24"/>
      <stop offset="1" stop-color="#FFF6FB" stop-opacity="0"/>
    </radialGradient>
    <radialGradient id="rose-eclipse-panel-planet-atmosphere" cx="0" cy="0" r="1" gradientUnits="userSpaceOnUse" gradientTransform="translate(740 292) rotate(150) scale(228 92)">
      <stop stop-color="#FFC8E3" stop-opacity="0.2"/>
      <stop offset="1" stop-color="#FFC8E3" stop-opacity="0"/>
    </radialGradient>
    <linearGradient id="rose-eclipse-panel-flare-gradient" x1="674" y1="146" x2="906" y2="704" gradientUnits="userSpaceOnUse">
      <stop stop-color="#FF4FA6"/><stop offset="0.22" stop-color="#FF68B9"/><stop offset="0.5" stop-color="#FF95CA"/><stop offset="0.82" stop-color="#FFD5D8"/><stop offset="1" stop-color="#FFF2E8"/>
    </linearGradient>
    <linearGradient id="rose-eclipse-panel-flare-core" x1="684" y1="160" x2="892" y2="690" gradientUnits="userSpaceOnUse">
      <stop stop-color="#FF9ED3"/><stop offset="0.52" stop-color="#FFE8F5"/><stop offset="1" stop-color="#FFF9F0"/>
    </linearGradient>
    <filter id="rose-eclipse-panel-soft-blur-20" x="0" y="0" width="1024" height="1024" filterUnits="userSpaceOnUse" color-interpolation-filters="sRGB">
      <feGaussianBlur stdDeviation="20"/>
    </filter>
    <filter id="rose-eclipse-panel-soft-blur-28" x="0" y="0" width="1024" height="1024" filterUnits="userSpaceOnUse" color-interpolation-filters="sRGB">
      <feGaussianBlur stdDeviation="28"/>
    </filter>
    <clipPath id="rose-eclipse-panel-planet-clip">
      <circle cx="512" cy="512" r="344"/>
    </clipPath>
  
    
      <linearGradient id="verdant-current-panel-panel-bg" x1="80" y1="640" x2="840" y2="1120" gradientUnits="userSpaceOnUse">
        <stop stop-color="#08130F"/>
        <stop offset="1" stop-color="#11211A"/>
      </linearGradient>
      <radialGradient id="verdant-current-panel-panel-glow" cx="0" cy="0" r="1" gradientUnits="userSpaceOnUse" gradientTransform="translate(248 810) rotate(28) scale(188 148)">
        <stop stop-color="#59D8B0" stop-opacity="0.24"/>
        <stop offset="1" stop-color="#59D8B0" stop-opacity="0"/>
      </radialGradient>
      <radialGradient id="verdant-current-panel-panel-glow-soft" cx="0" cy="0" r="1" gradientUnits="userSpaceOnUse" gradientTransform="translate(690 748) rotate(154) scale(216 138)">
        <stop stop-color="#B7FF54" stop-opacity="0.3"/>
        <stop offset="1" stop-color="#B7FF54" stop-opacity="0"/>
      </radialGradient>
      
    <radialGradient id="verdant-current-panel-planet-base" cx="0" cy="0" r="1" gradientUnits="userSpaceOnUse" gradientTransform="translate(636 360) rotate(130) scale(514 494)">
      <stop stop-color="#F7FFF4"/><stop offset="0.16" stop-color="#AEEFD2"/><stop offset="0.36" stop-color="#53B892"/><stop offset="0.58" stop-color="#2E7564"/><stop offset="0.8" stop-color="#123329"/><stop offset="1" stop-color="#07120E"/>
    </radialGradient>
    <radialGradient id="verdant-current-panel-planet-shadow" cx="0" cy="0" r="1" gradientUnits="userSpaceOnUse" gradientTransform="translate(382 664) rotate(-28) scale(248 162)">
      <stop stop-color="#06110D" stop-opacity="0.84"/>
      <stop offset="1" stop-color="#06110D" stop-opacity="0"/>
    </radialGradient>
    <radialGradient id="verdant-current-panel-planet-highlight" cx="0" cy="0" r="1" gradientUnits="userSpaceOnUse" gradientTransform="translate(668 336) rotate(138) scale(198 132)">
      <stop stop-color="#F8FFF7" stop-opacity="0.7"/>
      <stop offset="0.5" stop-color="#F8FFF7" stop-opacity="0.24"/>
      <stop offset="1" stop-color="#F8FFF7" stop-opacity="0"/>
    </radialGradient>
    <radialGradient id="verdant-current-panel-planet-atmosphere" cx="0" cy="0" r="1" gradientUnits="userSpaceOnUse" gradientTransform="translate(740 292) rotate(150) scale(228 92)">
      <stop stop-color="#C9FFD4" stop-opacity="0.18"/>
      <stop offset="1" stop-color="#C9FFD4" stop-opacity="0"/>
    </radialGradient>
    <linearGradient id="verdant-current-panel-flare-gradient" x1="674" y1="146" x2="906" y2="704" gradientUnits="userSpaceOnUse">
      <stop stop-color="#BBFF39"/><stop offset="0.22" stop-color="#D8FF5C"/><stop offset="0.52" stop-color="#F5FF96"/><stop offset="0.82" stop-color="#FFF3BF"/><stop offset="1" stop-color="#FFFBEA"/>
    </linearGradient>
    <linearGradient id="verdant-current-panel-flare-core" x1="684" y1="160" x2="892" y2="690" gradientUnits="userSpaceOnUse">
      <stop stop-color="#E2FF8A"/><stop offset="0.52" stop-color="#FFF9D9"/><stop offset="1" stop-color="#FFFFF3"/>
    </linearGradient>
    <filter id="verdant-current-panel-soft-blur-20" x="0" y="0" width="1024" height="1024" filterUnits="userSpaceOnUse" color-interpolation-filters="sRGB">
      <feGaussianBlur stdDeviation="20"/>
    </filter>
    <filter id="verdant-current-panel-soft-blur-28" x="0" y="0" width="1024" height="1024" filterUnits="userSpaceOnUse" color-interpolation-filters="sRGB">
      <feGaussianBlur stdDeviation="28"/>
    </filter>
    <clipPath id="verdant-current-panel-planet-clip">
      <circle cx="512" cy="512" r="344"/>
    </clipPath>
  
    
      <linearGradient id="graphite-echo-panel-panel-bg" x1="910" y1="640" x2="1670" y2="1120" gradientUnits="userSpaceOnUse">
        <stop stop-color="#080A0E"/>
        <stop offset="1" stop-color="#141A23"/>
      </linearGradient>
      <radialGradient id="graphite-echo-panel-panel-glow" cx="0" cy="0" r="1" gradientUnits="userSpaceOnUse" gradientTransform="translate(1078 810) rotate(28) scale(188 148)">
        <stop stop-color="#7DBDFF" stop-opacity="0.24"/>
        <stop offset="1" stop-color="#7DBDFF" stop-opacity="0"/>
      </radialGradient>
      <radialGradient id="graphite-echo-panel-panel-glow-soft" cx="0" cy="0" r="1" gradientUnits="userSpaceOnUse" gradientTransform="translate(1520 748) rotate(154) scale(216 138)">
        <stop stop-color="#E9EEF7" stop-opacity="0.3"/>
        <stop offset="1" stop-color="#E9EEF7" stop-opacity="0"/>
      </radialGradient>
      
    <radialGradient id="graphite-echo-panel-planet-base" cx="0" cy="0" r="1" gradientUnits="userSpaceOnUse" gradientTransform="translate(636 360) rotate(130) scale(514 494)">
      <stop stop-color="#F8FBFF"/><stop offset="0.18" stop-color="#D7E1EC"/><stop offset="0.38" stop-color="#A4B1C4"/><stop offset="0.6" stop-color="#54657F"/><stop offset="0.82" stop-color="#1B2533"/><stop offset="1" stop-color="#090E16"/>
    </radialGradient>
    <radialGradient id="graphite-echo-panel-planet-shadow" cx="0" cy="0" r="1" gradientUnits="userSpaceOnUse" gradientTransform="translate(382 664) rotate(-28) scale(248 162)">
      <stop stop-color="#060A10" stop-opacity="0.86"/>
      <stop offset="1" stop-color="#060A10" stop-opacity="0"/>
    </radialGradient>
    <radialGradient id="graphite-echo-panel-planet-highlight" cx="0" cy="0" r="1" gradientUnits="userSpaceOnUse" gradientTransform="translate(668 336) rotate(138) scale(198 132)">
      <stop stop-color="#FFFFFF" stop-opacity="0.7"/>
      <stop offset="0.5" stop-color="#FFFFFF" stop-opacity="0.24"/>
      <stop offset="1" stop-color="#FFFFFF" stop-opacity="0"/>
    </radialGradient>
    <radialGradient id="graphite-echo-panel-planet-atmosphere" cx="0" cy="0" r="1" gradientUnits="userSpaceOnUse" gradientTransform="translate(740 292) rotate(150) scale(228 92)">
      <stop stop-color="#D8F2FF" stop-opacity="0.14"/>
      <stop offset="1" stop-color="#D8F2FF" stop-opacity="0"/>
    </radialGradient>
    <linearGradient id="graphite-echo-panel-flare-gradient" x1="674" y1="146" x2="906" y2="704" gradientUnits="userSpaceOnUse">
      <stop stop-color="#56CFFF"/><stop offset="0.24" stop-color="#8FE3FF"/><stop offset="0.54" stop-color="#D0F5FF"/><stop offset="0.84" stop-color="#F2FBFF"/><stop offset="1" stop-color="#FFFFFF"/>
    </linearGradient>
    <linearGradient id="graphite-echo-panel-flare-core" x1="684" y1="160" x2="892" y2="690" gradientUnits="userSpaceOnUse">
      <stop stop-color="#B7EEFF"/><stop offset="0.52" stop-color="#F8FEFF"/><stop offset="1" stop-color="#FFFFFF"/>
    </linearGradient>
    <filter id="graphite-echo-panel-soft-blur-20" x="0" y="0" width="1024" height="1024" filterUnits="userSpaceOnUse" color-interpolation-filters="sRGB">
      <feGaussianBlur stdDeviation="20"/>
    </filter>
    <filter id="graphite-echo-panel-soft-blur-28" x="0" y="0" width="1024" height="1024" filterUnits="userSpaceOnUse" color-interpolation-filters="sRGB">
      <feGaussianBlur stdDeviation="28"/>
    </filter>
    <clipPath id="graphite-echo-panel-planet-clip">
      <circle cx="512" cy="512" r="344"/>
    </clipPath>
  
    
  </defs>

  <rect width="1740" height="1160" fill="url(#experimental-board-bg)"/>
  <rect width="1740" height="1160" fill="url(#experimental-board-left)"/>
  <rect width="1740" height="1160" fill="url(#experimental-board-right)"/>

  <text x="80" y="62" fill="#FFFFFF" font-size="44" font-weight="700" font-family="'Sora', 'Avenir Next', 'Helvetica Neue', Arial, sans-serif">Alternative Planet + Flare Directions</text>
  <text x="80" y="100" fill="#D8E0EA" fill-opacity="0.72" font-size="18" font-family="'Sora', 'Avenir Next', 'Helvetica Neue', Arial, sans-serif">Four deliberately different brand systems, including new flare colors, to test how far the logo and UI can move before they become a different identity.</text>

  
      <g>
        <rect x="80" y="120" width="760" height="460" rx="34" fill="url(#aurora-relay-panel-panel-bg)"/>
        <rect x="80" y="120" width="760" height="460" rx="34" fill="url(#aurora-relay-panel-panel-glow)"/>
        <rect x="80" y="120" width="760" height="460" rx="34" fill="url(#aurora-relay-panel-panel-glow-soft)"/>
        <rect x="80" y="120" width="760" height="460" rx="34" stroke="#FFFFFF14" stroke-width="2"/>

        <text x="116" y="174" fill="#D4FFF4" font-size="15" letter-spacing="2.2" font-family="'IBM Plex Mono', 'SFMono-Regular', Menlo, monospace">NEON FUTURE</text>
        <text x="116" y="218" fill="#F5FBFF" font-size="36" font-weight="700" font-family="'Sora', 'Avenir Next', 'Helvetica Neue', Arial, sans-serif">Aurora Relay</text>
        <text x="116" y="252" fill="#A7B5D7" font-size="18" font-family="'Sora', 'Avenir Next', 'Helvetica Neue', Arial, sans-serif">Mint, periwinkle, and ultraviolet push the</text><text x="116" y="274" fill="#A7B5D7" font-size="18" font-family="'Sora', 'Avenir Next', 'Helvetica Neue', Arial, sans-serif">mark into sci-fi territory.</text>

        
    <g transform="translate(110 286) scale(0.26953125)">
      <circle cx="512" cy="512" r="458" stroke="#FFFFFF" stroke-opacity="0.03" stroke-width="2"/>
      <circle cx="512" cy="512" r="434" stroke="#28224E" stroke-opacity="0.7" stroke-width="12"/>
      <circle cx="512" cy="512" r="420" stroke="#131A30" stroke-opacity="0.96" stroke-width="20"/>
      <circle cx="512" cy="512" r="406" stroke="#FFFFFF" stroke-opacity="0.055" stroke-width="2"/>
      <circle cx="512" cy="512" r="394" stroke="#FFFFFF" stroke-opacity="0.038" stroke-width="1.4"/>
      <circle cx="512" cy="512" r="434" stroke="#7AEFD6" stroke-opacity="0.12" stroke-width="6" stroke-linecap="round" stroke-dasharray="580 2147" transform="rotate(-136 512 512)"/>
      <circle cx="512" cy="512" r="420" stroke="#FFFFFF" stroke-opacity="0.04" stroke-width="2.2" stroke-linecap="round" stroke-dasharray="520 2119" transform="rotate(-136 512 512)"/>

      <g filter="url(#aurora-relay-panel-soft-blur-28)">
        <circle cx="512" cy="512" r="406" stroke="#41E6C0" stroke-opacity="0.52" stroke-width="28" stroke-linecap="round" stroke-dasharray="666 1885" transform="rotate(-66 512 512)"/>
      </g>
      <circle cx="512" cy="512" r="406" stroke="#133E35" stroke-opacity="0.42" stroke-width="10" stroke-linecap="round" stroke-dasharray="666 1885" transform="rotate(-66 512 512)"/>
      <circle cx="512" cy="512" r="406" stroke="url(#aurora-relay-panel-flare-gradient)" stroke-width="8" stroke-linecap="round" stroke-dasharray="666 1885" transform="rotate(-66 512 512)"/>
      <circle cx="512" cy="512" r="406" stroke="url(#aurora-relay-panel-flare-core)" stroke-width="2.4" stroke-linecap="round" stroke-dasharray="666 1885" transform="rotate(-66 512 512)"/>
      <circle cx="871" cy="703" r="23" fill="#78FFD8" fill-opacity="0.18"/>
      <circle cx="871" cy="703" r="9" fill="#F3FFFA"/>

      <circle cx="512" cy="512" r="344" fill="url(#aurora-relay-panel-planet-base)"/>
      <g clip-path="url(#aurora-relay-panel-planet-clip)">
        <g filter="url(#aurora-relay-panel-soft-blur-20)">
          <ellipse cx="318" cy="382" rx="206" ry="154" fill="#6AF1D0" fill-opacity="0.34"/><ellipse cx="610" cy="314" rx="248" ry="170" fill="#8AB4FF" fill-opacity="0.28"/><ellipse cx="718" cy="438" rx="236" ry="156" fill="#C88BFF" fill-opacity="0.3"/><ellipse cx="606" cy="660" rx="274" ry="154" fill="#2B4E8A" fill-opacity="0.26"/><ellipse cx="334" cy="706" rx="290" ry="180" fill="#09111F" fill-opacity="0.68"/>
        </g>

        <path d="M132 312C242 264 356 264 476 290C578 312 678 322 814 316" stroke="#FFFFFF" stroke-opacity="0.11" stroke-width="16" stroke-linecap="round"/>
        <path d="M120 418C236 372 354 378 474 406C578 430 676 440 810 434" stroke="#FFFFFF" stroke-opacity="0.1" stroke-width="13" stroke-linecap="round"/>
        <path d="M118 522C236 478 356 486 478 516C582 542 676 552 806 546" stroke="#FFFFFF" stroke-opacity="0.08" stroke-width="11" stroke-linecap="round"/>
        <path d="M132 648C236 612 356 614 478 642C584 668 680 678 810 668" stroke="#FFFFFF" stroke-opacity="0.075" stroke-width="14" stroke-linecap="round"/>
        <path d="M110 760C224 724 350 724 482 748C590 768 684 778 816 770" stroke="#274D86" stroke-opacity="0.3" stroke-width="24" stroke-linecap="round"/>
        <path d="M94 578C206 536 320 538 438 564C540 586 638 604 768 594C828 590 874 578 910 554" stroke="#9DEFE1" stroke-opacity="0.12" stroke-width="24" stroke-linecap="round"/>

        <circle cx="640" cy="430" r="18" fill="#FFF2E2" fill-opacity="0.14"/>
        <circle cx="332" cy="414" r="14" fill="#FFF2E2" fill-opacity="0.08"/>
        <circle cx="596" cy="570" r="20" fill="#FFF2E2" fill-opacity="0.1"/>
        <circle cx="370" cy="804" r="16" fill="#FFF2E2" fill-opacity="0.05"/>
      </g>

      <circle cx="512" cy="512" r="344" fill="url(#aurora-relay-panel-planet-shadow)"/>
      <g filter="url(#aurora-relay-panel-soft-blur-28)">
        <ellipse cx="644" cy="340" rx="154" ry="106" fill="#F8FFFF" fill-opacity="0.28"/>
      </g>
      <circle cx="512" cy="512" r="344" fill="url(#aurora-relay-panel-planet-atmosphere)"/>
      <circle cx="512" cy="512" r="344" fill="url(#aurora-relay-panel-planet-highlight)"/>
      <circle cx="512" cy="512" r="344" fill="none" stroke="#FFFFFF" stroke-opacity="0.2" stroke-width="1.4"/>
    </g>
  

        <rect x="460" y="242" width="332" height="204" rx="26" fill="#0D1530"/>
        <rect x="460" y="242" width="332" height="204" rx="26" stroke="#FFFFFF14" stroke-width="1.5"/>
        <text x="486" y="284" fill="#F5FBFF" font-size="20" font-weight="600" font-family="'Sora', 'Avenir Next', 'Helvetica Neue', Arial, sans-serif">Trust signals for the human web</text>
        <text x="486" y="314" fill="#A7B5D7" font-size="14" font-family="'Sora', 'Avenir Next', 'Helvetica Neue', Arial, sans-serif">Logo, buttons, chips, and cards share the same palette.</text>

        <rect x="486" y="342" width="152" height="42" rx="21" fill="#7AF4D3"/>
        <text x="562" y="369" fill="#04111A" text-anchor="middle" font-size="15" font-weight="700" font-family="'Sora', 'Avenir Next', 'Helvetica Neue', Arial, sans-serif">Vote With Conviction</text>

        <rect x="652" y="342" width="118" height="42" rx="21" fill="#241D56"/>
        <text x="711" y="369" fill="#D9D4FF" text-anchor="middle" font-size="14" font-weight="600" font-family="'Sora', 'Avenir Next', 'Helvetica Neue', Arial, sans-serif">Explore Signals</text>

        <rect x="486" y="402" width="126" height="26" rx="13" fill="#14204A"/>
        <rect x="624" y="402" width="148" height="26" rx="13" fill="#14204A"/>
        <rect x="486" y="438" width="286" height="64" rx="20" fill="#14204A"/>
        <path d="M510 475C550 460 596 460 640 474C678 486 708 484 752 458" stroke="#7AF4D3" stroke-width="6" stroke-linecap="round"/>
        <circle cx="752" cy="458" r="7" fill="#D4FFF4"/>

        <text x="116" y="518" fill="#F5FBFF" font-size="16" font-weight="700" font-family="'Sora', 'Avenir Next', 'Helvetica Neue', Arial, sans-serif">Palette</text>
        <circle cx="124" cy="550" r="13" fill="#EFFFFA"/><circle cx="166" cy="550" r="13" fill="#7AF4D3"/><circle cx="208" cy="550" r="13" fill="#718BFF"/><circle cx="250" cy="550" r="13" fill="#B675FF"/><circle cx="292" cy="550" r="13" fill="#091121"/>
      </g>
    
      <g>
        <rect x="910" y="120" width="760" height="460" rx="34" fill="url(#rose-eclipse-panel-panel-bg)"/>
        <rect x="910" y="120" width="760" height="460" rx="34" fill="url(#rose-eclipse-panel-panel-glow)"/>
        <rect x="910" y="120" width="760" height="460" rx="34" fill="url(#rose-eclipse-panel-panel-glow-soft)"/>
        <rect x="910" y="120" width="760" height="460" rx="34" stroke="#FFFFFF12" stroke-width="2"/>

        <text x="946" y="174" fill="#FFD9F0" font-size="15" letter-spacing="2.2" font-family="'IBM Plex Mono', 'SFMono-Regular', Menlo, monospace">LUXE SURREAL</text>
        <text x="946" y="218" fill="#FFF5FB" font-size="36" font-weight="700" font-family="'Sora', 'Avenir Next', 'Helvetica Neue', Arial, sans-serif">Rose Eclipse</text>
        <text x="946" y="252" fill="#D1AEC8" font-size="18" font-family="'Sora', 'Avenir Next', 'Helvetica Neue', Arial, sans-serif">Plum, rose, and magenta make the identity</text><text x="946" y="274" fill="#D1AEC8" font-size="18" font-family="'Sora', 'Avenir Next', 'Helvetica Neue', Arial, sans-serif">bolder and less tech-blue.</text>

        
    <g transform="translate(940 286) scale(0.26953125)">
      <circle cx="512" cy="512" r="458" stroke="#FFFFFF" stroke-opacity="0.03" stroke-width="2"/>
      <circle cx="512" cy="512" r="434" stroke="#4A2140" stroke-opacity="0.7" stroke-width="12"/>
      <circle cx="512" cy="512" r="420" stroke="#24121D" stroke-opacity="0.96" stroke-width="20"/>
      <circle cx="512" cy="512" r="406" stroke="#FFFFFF" stroke-opacity="0.055" stroke-width="2"/>
      <circle cx="512" cy="512" r="394" stroke="#FFFFFF" stroke-opacity="0.038" stroke-width="1.4"/>
      <circle cx="512" cy="512" r="434" stroke="#FF9BCA" stroke-opacity="0.1" stroke-width="6" stroke-linecap="round" stroke-dasharray="580 2147" transform="rotate(-136 512 512)"/>
      <circle cx="512" cy="512" r="420" stroke="#FFFFFF" stroke-opacity="0.04" stroke-width="2.2" stroke-linecap="round" stroke-dasharray="520 2119" transform="rotate(-136 512 512)"/>

      <g filter="url(#rose-eclipse-panel-soft-blur-28)">
        <circle cx="512" cy="512" r="406" stroke="#FF4FA6" stroke-opacity="0.54" stroke-width="28" stroke-linecap="round" stroke-dasharray="666 1885" transform="rotate(-66 512 512)"/>
      </g>
      <circle cx="512" cy="512" r="406" stroke="#5D1D43" stroke-opacity="0.42" stroke-width="10" stroke-linecap="round" stroke-dasharray="666 1885" transform="rotate(-66 512 512)"/>
      <circle cx="512" cy="512" r="406" stroke="url(#rose-eclipse-panel-flare-gradient)" stroke-width="8" stroke-linecap="round" stroke-dasharray="666 1885" transform="rotate(-66 512 512)"/>
      <circle cx="512" cy="512" r="406" stroke="url(#rose-eclipse-panel-flare-core)" stroke-width="2.4" stroke-linecap="round" stroke-dasharray="666 1885" transform="rotate(-66 512 512)"/>
      <circle cx="871" cy="703" r="23" fill="#FF84C7" fill-opacity="0.18"/>
      <circle cx="871" cy="703" r="9" fill="#FFF1FA"/>

      <circle cx="512" cy="512" r="344" fill="url(#rose-eclipse-panel-planet-base)"/>
      <g clip-path="url(#rose-eclipse-panel-planet-clip)">
        <g filter="url(#rose-eclipse-panel-soft-blur-20)">
          <ellipse cx="330" cy="386" rx="206" ry="156" fill="#FF7EB8" fill-opacity="0.26"/><ellipse cx="606" cy="316" rx="238" ry="168" fill="#FFC8D8" fill-opacity="0.24"/><ellipse cx="706" cy="442" rx="238" ry="156" fill="#B777FF" fill-opacity="0.24"/><ellipse cx="604" cy="658" rx="272" ry="152" fill="#6B284D" fill-opacity="0.28"/><ellipse cx="340" cy="704" rx="286" ry="176" fill="#180A16" fill-opacity="0.7"/>
        </g>

        <path d="M132 312C242 264 356 264 476 290C578 312 678 322 814 316" stroke="#FFFFFF" stroke-opacity="0.11" stroke-width="16" stroke-linecap="round"/>
        <path d="M120 418C236 372 354 378 474 406C578 430 676 440 810 434" stroke="#FFFFFF" stroke-opacity="0.1" stroke-width="13" stroke-linecap="round"/>
        <path d="M118 522C236 478 356 486 478 516C582 542 676 552 806 546" stroke="#FFFFFF" stroke-opacity="0.08" stroke-width="11" stroke-linecap="round"/>
        <path d="M132 648C236 612 356 614 478 642C584 668 680 678 810 668" stroke="#FFFFFF" stroke-opacity="0.075" stroke-width="14" stroke-linecap="round"/>
        <path d="M110 760C224 724 350 724 482 748C590 768 684 778 816 770" stroke="#6D2D61" stroke-opacity="0.28" stroke-width="24" stroke-linecap="round"/>
        <path d="M94 578C206 536 320 538 438 564C540 586 638 604 768 594C828 590 874 578 910 554" stroke="#FFAAC8" stroke-opacity="0.12" stroke-width="24" stroke-linecap="round"/>

        <circle cx="640" cy="430" r="18" fill="#FFF2E2" fill-opacity="0.14"/>
        <circle cx="332" cy="414" r="14" fill="#FFF2E2" fill-opacity="0.08"/>
        <circle cx="596" cy="570" r="20" fill="#FFF2E2" fill-opacity="0.1"/>
        <circle cx="370" cy="804" r="16" fill="#FFF2E2" fill-opacity="0.05"/>
      </g>

      <circle cx="512" cy="512" r="344" fill="url(#rose-eclipse-panel-planet-shadow)"/>
      <g filter="url(#rose-eclipse-panel-soft-blur-28)">
        <ellipse cx="644" cy="340" rx="154" ry="106" fill="#FFF6FB" fill-opacity="0.27"/>
      </g>
      <circle cx="512" cy="512" r="344" fill="url(#rose-eclipse-panel-planet-atmosphere)"/>
      <circle cx="512" cy="512" r="344" fill="url(#rose-eclipse-panel-planet-highlight)"/>
      <circle cx="512" cy="512" r="344" fill="none" stroke="#FFF5FB" stroke-opacity="0.16" stroke-width="1.4"/>
    </g>
  

        <rect x="1290" y="242" width="332" height="204" rx="26" fill="#241121"/>
        <rect x="1290" y="242" width="332" height="204" rx="26" stroke="#FFFFFF12" stroke-width="1.5"/>
        <text x="1316" y="284" fill="#FFF5FB" font-size="20" font-weight="600" font-family="'Sora', 'Avenir Next', 'Helvetica Neue', Arial, sans-serif">Trust signals for the human web</text>
        <text x="1316" y="314" fill="#D1AEC8" font-size="14" font-family="'Sora', 'Avenir Next', 'Helvetica Neue', Arial, sans-serif">Logo, buttons, chips, and cards share the same palette.</text>

        <rect x="1316" y="342" width="152" height="42" rx="21" fill="#FF7FCA"/>
        <text x="1392" y="369" fill="#210916" text-anchor="middle" font-size="15" font-weight="700" font-family="'Sora', 'Avenir Next', 'Helvetica Neue', Arial, sans-serif">Vote With Conviction</text>

        <rect x="1482" y="342" width="118" height="42" rx="21" fill="#431B37"/>
        <text x="1541" y="369" fill="#FFD3EA" text-anchor="middle" font-size="14" font-weight="600" font-family="'Sora', 'Avenir Next', 'Helvetica Neue', Arial, sans-serif">Explore Signals</text>

        <rect x="1316" y="402" width="126" height="26" rx="13" fill="#321831"/>
        <rect x="1454" y="402" width="148" height="26" rx="13" fill="#321831"/>
        <rect x="1316" y="438" width="286" height="64" rx="20" fill="#321831"/>
        <path d="M1340 475C1380 460 1426 460 1470 474C1508 486 1538 484 1582 458" stroke="#FF7FCA" stroke-width="6" stroke-linecap="round"/>
        <circle cx="1582" cy="458" r="7" fill="#FFD9F0"/>

        <text x="946" y="518" fill="#FFF5FB" font-size="16" font-weight="700" font-family="'Sora', 'Avenir Next', 'Helvetica Neue', Arial, sans-serif">Palette</text>
        <circle cx="954" cy="550" r="13" fill="#FFF1F8"/><circle cx="996" cy="550" r="13" fill="#FF9DCE"/><circle cx="1038" cy="550" r="13" fill="#FF5B9D"/><circle cx="1080" cy="550" r="13" fill="#8E63E7"/><circle cx="1122" cy="550" r="13" fill="#1C0B17"/>
      </g>
    
      <g>
        <rect x="80" y="640" width="760" height="460" rx="34" fill="url(#verdant-current-panel-panel-bg)"/>
        <rect x="80" y="640" width="760" height="460" rx="34" fill="url(#verdant-current-panel-panel-glow)"/>
        <rect x="80" y="640" width="760" height="460" rx="34" fill="url(#verdant-current-panel-panel-glow-soft)"/>
        <rect x="80" y="640" width="760" height="460" rx="34" stroke="#FFFFFF12" stroke-width="2"/>

        <text x="116" y="694" fill="#E8FFD8" font-size="15" letter-spacing="2.2" font-family="'IBM Plex Mono', 'SFMono-Regular', Menlo, monospace">ORGANIC TRUST</text>
        <text x="116" y="738" fill="#F4FBF6" font-size="36" font-weight="700" font-family="'Sora', 'Avenir Next', 'Helvetica Neue', Arial, sans-serif">Verdant Current</text>
        <text x="116" y="772" fill="#A7C2B3" font-size="18" font-family="'Sora', 'Avenir Next', 'Helvetica Neue', Arial, sans-serif">Jade and pine calm the system while a citrus</text><text x="116" y="794" fill="#A7C2B3" font-size="18" font-family="'Sora', 'Avenir Next', 'Helvetica Neue', Arial, sans-serif">flare keeps it lively.</text>

        
    <g transform="translate(110 806) scale(0.26953125)">
      <circle cx="512" cy="512" r="458" stroke="#FFFFFF" stroke-opacity="0.03" stroke-width="2"/>
      <circle cx="512" cy="512" r="434" stroke="#324326" stroke-opacity="0.68" stroke-width="12"/>
      <circle cx="512" cy="512" r="420" stroke="#122019" stroke-opacity="0.96" stroke-width="20"/>
      <circle cx="512" cy="512" r="406" stroke="#FFFFFF" stroke-opacity="0.055" stroke-width="2"/>
      <circle cx="512" cy="512" r="394" stroke="#FFFFFF" stroke-opacity="0.038" stroke-width="1.4"/>
      <circle cx="512" cy="512" r="434" stroke="#C7FF63" stroke-opacity="0.12" stroke-width="6" stroke-linecap="round" stroke-dasharray="580 2147" transform="rotate(-136 512 512)"/>
      <circle cx="512" cy="512" r="420" stroke="#FFFFFF" stroke-opacity="0.04" stroke-width="2.2" stroke-linecap="round" stroke-dasharray="520 2119" transform="rotate(-136 512 512)"/>

      <g filter="url(#verdant-current-panel-soft-blur-28)">
        <circle cx="512" cy="512" r="406" stroke="#BBFF39" stroke-opacity="0.52" stroke-width="28" stroke-linecap="round" stroke-dasharray="666 1885" transform="rotate(-66 512 512)"/>
      </g>
      <circle cx="512" cy="512" r="406" stroke="#495C12" stroke-opacity="0.42" stroke-width="10" stroke-linecap="round" stroke-dasharray="666 1885" transform="rotate(-66 512 512)"/>
      <circle cx="512" cy="512" r="406" stroke="url(#verdant-current-panel-flare-gradient)" stroke-width="8" stroke-linecap="round" stroke-dasharray="666 1885" transform="rotate(-66 512 512)"/>
      <circle cx="512" cy="512" r="406" stroke="url(#verdant-current-panel-flare-core)" stroke-width="2.4" stroke-linecap="round" stroke-dasharray="666 1885" transform="rotate(-66 512 512)"/>
      <circle cx="871" cy="703" r="23" fill="#E6FF8C" fill-opacity="0.18"/>
      <circle cx="871" cy="703" r="9" fill="#FFFFF0"/>

      <circle cx="512" cy="512" r="344" fill="url(#verdant-current-panel-planet-base)"/>
      <g clip-path="url(#verdant-current-panel-planet-clip)">
        <g filter="url(#verdant-current-panel-soft-blur-20)">
          <ellipse cx="318" cy="380" rx="206" ry="156" fill="#6EE1BC" fill-opacity="0.24"/><ellipse cx="604" cy="318" rx="248" ry="170" fill="#CFF7C7" fill-opacity="0.2"/><ellipse cx="708" cy="446" rx="236" ry="156" fill="#97DB71" fill-opacity="0.18"/><ellipse cx="602" cy="658" rx="272" ry="154" fill="#214B37" fill-opacity="0.3"/><ellipse cx="338" cy="706" rx="290" ry="180" fill="#07120E" fill-opacity="0.72"/>
        </g>

        <path d="M132 312C242 264 356 264 476 290C578 312 678 322 814 316" stroke="#FFFFFF" stroke-opacity="0.11" stroke-width="16" stroke-linecap="round"/>
        <path d="M120 418C236 372 354 378 474 406C578 430 676 440 810 434" stroke="#FFFFFF" stroke-opacity="0.1" stroke-width="13" stroke-linecap="round"/>
        <path d="M118 522C236 478 356 486 478 516C582 542 676 552 806 546" stroke="#FFFFFF" stroke-opacity="0.08" stroke-width="11" stroke-linecap="round"/>
        <path d="M132 648C236 612 356 614 478 642C584 668 680 678 810 668" stroke="#FFFFFF" stroke-opacity="0.075" stroke-width="14" stroke-linecap="round"/>
        <path d="M110 760C224 724 350 724 482 748C590 768 684 778 816 770" stroke="#214F44" stroke-opacity="0.3" stroke-width="24" stroke-linecap="round"/>
        <path d="M94 578C206 536 320 538 438 564C540 586 638 604 768 594C828 590 874 578 910 554" stroke="#C9F58A" stroke-opacity="0.1" stroke-width="24" stroke-linecap="round"/>

        <circle cx="640" cy="430" r="18" fill="#FFF2E2" fill-opacity="0.14"/>
        <circle cx="332" cy="414" r="14" fill="#FFF2E2" fill-opacity="0.08"/>
        <circle cx="596" cy="570" r="20" fill="#FFF2E2" fill-opacity="0.1"/>
        <circle cx="370" cy="804" r="16" fill="#FFF2E2" fill-opacity="0.05"/>
      </g>

      <circle cx="512" cy="512" r="344" fill="url(#verdant-current-panel-planet-shadow)"/>
      <g filter="url(#verdant-current-panel-soft-blur-28)">
        <ellipse cx="644" cy="340" rx="154" ry="106" fill="#F8FFF7" fill-opacity="0.27"/>
      </g>
      <circle cx="512" cy="512" r="344" fill="url(#verdant-current-panel-planet-atmosphere)"/>
      <circle cx="512" cy="512" r="344" fill="url(#verdant-current-panel-planet-highlight)"/>
      <circle cx="512" cy="512" r="344" fill="none" stroke="#F4FFF8" stroke-opacity="0.15" stroke-width="1.4"/>
    </g>
  

        <rect x="460" y="762" width="332" height="204" rx="26" fill="#0F1F18"/>
        <rect x="460" y="762" width="332" height="204" rx="26" stroke="#FFFFFF12" stroke-width="1.5"/>
        <text x="486" y="804" fill="#F4FBF6" font-size="20" font-weight="600" font-family="'Sora', 'Avenir Next', 'Helvetica Neue', Arial, sans-serif">Trust signals for the human web</text>
        <text x="486" y="834" fill="#A7C2B3" font-size="14" font-family="'Sora', 'Avenir Next', 'Helvetica Neue', Arial, sans-serif">Logo, buttons, chips, and cards share the same palette.</text>

        <rect x="486" y="862" width="152" height="42" rx="21" fill="#84DBB4"/>
        <text x="562" y="889" fill="#08140F" text-anchor="middle" font-size="15" font-weight="700" font-family="'Sora', 'Avenir Next', 'Helvetica Neue', Arial, sans-serif">Vote With Conviction</text>

        <rect x="652" y="862" width="118" height="42" rx="21" fill="#24402E"/>
        <text x="711" y="889" fill="#D9FFB8" text-anchor="middle" font-size="14" font-weight="600" font-family="'Sora', 'Avenir Next', 'Helvetica Neue', Arial, sans-serif">Explore Signals</text>

        <rect x="486" y="922" width="126" height="26" rx="13" fill="#163127"/>
        <rect x="624" y="922" width="148" height="26" rx="13" fill="#163127"/>
        <rect x="486" y="958" width="286" height="64" rx="20" fill="#163127"/>
        <path d="M510 995C550 980 596 980 640 994C678 1006 708 1004 752 978" stroke="#84DBB4" stroke-width="6" stroke-linecap="round"/>
        <circle cx="752" cy="978" r="7" fill="#E8FFD8"/>

        <text x="116" y="1038" fill="#F4FBF6" font-size="16" font-weight="700" font-family="'Sora', 'Avenir Next', 'Helvetica Neue', Arial, sans-serif">Palette</text>
        <circle cx="124" cy="1070" r="13" fill="#F5FFF2"/><circle cx="166" cy="1070" r="13" fill="#A1F0CC"/><circle cx="208" cy="1070" r="13" fill="#48B08B"/><circle cx="250" cy="1070" r="13" fill="#C9FF53"/><circle cx="292" cy="1070" r="13" fill="#07120E"/>
      </g>
    
      <g>
        <rect x="910" y="640" width="760" height="460" rx="34" fill="url(#graphite-echo-panel-panel-bg)"/>
        <rect x="910" y="640" width="760" height="460" rx="34" fill="url(#graphite-echo-panel-panel-glow)"/>
        <rect x="910" y="640" width="760" height="460" rx="34" fill="url(#graphite-echo-panel-panel-glow-soft)"/>
        <rect x="910" y="640" width="760" height="460" rx="34" stroke="#FFFFFF14" stroke-width="2"/>

        <text x="946" y="694" fill="#BEE9FF" font-size="15" letter-spacing="2.2" font-family="'IBM Plex Mono', 'SFMono-Regular', Menlo, monospace">EDITORIAL MONO</text>
        <text x="946" y="738" fill="#F6F8FC" font-size="36" font-weight="700" font-family="'Sora', 'Avenir Next', 'Helvetica Neue', Arial, sans-serif">Graphite Echo</text>
        <text x="946" y="772" fill="#AEB8C8" font-size="18" font-family="'Sora', 'Avenir Next', 'Helvetica Neue', Arial, sans-serif">Graphite and ice create a stark editorial</text><text x="946" y="794" fill="#AEB8C8" font-size="18" font-family="'Sora', 'Avenir Next', 'Helvetica Neue', Arial, sans-serif">system with a cyan flare.</text>

        
    <g transform="translate(940 806) scale(0.26953125)">
      <circle cx="512" cy="512" r="458" stroke="#FFFFFF" stroke-opacity="0.03" stroke-width="2"/>
      <circle cx="512" cy="512" r="434" stroke="#2D3947" stroke-opacity="0.68" stroke-width="12"/>
      <circle cx="512" cy="512" r="420" stroke="#151B25" stroke-opacity="0.96" stroke-width="20"/>
      <circle cx="512" cy="512" r="406" stroke="#FFFFFF" stroke-opacity="0.055" stroke-width="2"/>
      <circle cx="512" cy="512" r="394" stroke="#FFFFFF" stroke-opacity="0.038" stroke-width="1.4"/>
      <circle cx="512" cy="512" r="434" stroke="#CBE9FF" stroke-opacity="0.08" stroke-width="6" stroke-linecap="round" stroke-dasharray="580 2147" transform="rotate(-136 512 512)"/>
      <circle cx="512" cy="512" r="420" stroke="#FFFFFF" stroke-opacity="0.04" stroke-width="2.2" stroke-linecap="round" stroke-dasharray="520 2119" transform="rotate(-136 512 512)"/>

      <g filter="url(#graphite-echo-panel-soft-blur-28)">
        <circle cx="512" cy="512" r="406" stroke="#6BD7FF" stroke-opacity="0.5" stroke-width="28" stroke-linecap="round" stroke-dasharray="666 1885" transform="rotate(-66 512 512)"/>
      </g>
      <circle cx="512" cy="512" r="406" stroke="#21455F" stroke-opacity="0.42" stroke-width="10" stroke-linecap="round" stroke-dasharray="666 1885" transform="rotate(-66 512 512)"/>
      <circle cx="512" cy="512" r="406" stroke="url(#graphite-echo-panel-flare-gradient)" stroke-width="8" stroke-linecap="round" stroke-dasharray="666 1885" transform="rotate(-66 512 512)"/>
      <circle cx="512" cy="512" r="406" stroke="url(#graphite-echo-panel-flare-core)" stroke-width="2.4" stroke-linecap="round" stroke-dasharray="666 1885" transform="rotate(-66 512 512)"/>
      <circle cx="871" cy="703" r="23" fill="#B6EEFF" fill-opacity="0.18"/>
      <circle cx="871" cy="703" r="9" fill="#FFFFFF"/>

      <circle cx="512" cy="512" r="344" fill="url(#graphite-echo-panel-planet-base)"/>
      <g clip-path="url(#graphite-echo-panel-planet-clip)">
        <g filter="url(#graphite-echo-panel-soft-blur-20)">
          <ellipse cx="326" cy="382" rx="204" ry="154" fill="#C6D6E8" fill-opacity="0.18"/><ellipse cx="602" cy="314" rx="244" ry="168" fill="#FFFFFF" fill-opacity="0.2"/><ellipse cx="710" cy="442" rx="236" ry="156" fill="#7CD9FF" fill-opacity="0.2"/><ellipse cx="602" cy="658" rx="272" ry="152" fill="#304253" fill-opacity="0.3"/><ellipse cx="336" cy="706" rx="288" ry="180" fill="#09101A" fill-opacity="0.74"/>
        </g>

        <path d="M132 312C242 264 356 264 476 290C578 312 678 322 814 316" stroke="#FFFFFF" stroke-opacity="0.11" stroke-width="16" stroke-linecap="round"/>
        <path d="M120 418C236 372 354 378 474 406C578 430 676 440 810 434" stroke="#FFFFFF" stroke-opacity="0.1" stroke-width="13" stroke-linecap="round"/>
        <path d="M118 522C236 478 356 486 478 516C582 542 676 552 806 546" stroke="#FFFFFF" stroke-opacity="0.08" stroke-width="11" stroke-linecap="round"/>
        <path d="M132 648C236 612 356 614 478 642C584 668 680 678 810 668" stroke="#FFFFFF" stroke-opacity="0.075" stroke-width="14" stroke-linecap="round"/>
        <path d="M110 760C224 724 350 724 482 748C590 768 684 778 816 770" stroke="#3C5067" stroke-opacity="0.3" stroke-width="24" stroke-linecap="round"/>
        <path d="M94 578C206 536 320 538 438 564C540 586 638 604 768 594C828 590 874 578 910 554" stroke="#EAF5FF" stroke-opacity="0.08" stroke-width="24" stroke-linecap="round"/>

        <circle cx="640" cy="430" r="18" fill="#FFF2E2" fill-opacity="0.14"/>
        <circle cx="332" cy="414" r="14" fill="#FFF2E2" fill-opacity="0.08"/>
        <circle cx="596" cy="570" r="20" fill="#FFF2E2" fill-opacity="0.1"/>
        <circle cx="370" cy="804" r="16" fill="#FFF2E2" fill-opacity="0.05"/>
      </g>

      <circle cx="512" cy="512" r="344" fill="url(#graphite-echo-panel-planet-shadow)"/>
      <g filter="url(#graphite-echo-panel-soft-blur-28)">
        <ellipse cx="644" cy="340" rx="154" ry="106" fill="#FFFFFF" fill-opacity="0.27"/>
      </g>
      <circle cx="512" cy="512" r="344" fill="url(#graphite-echo-panel-planet-atmosphere)"/>
      <circle cx="512" cy="512" r="344" fill="url(#graphite-echo-panel-planet-highlight)"/>
      <circle cx="512" cy="512" r="344" fill="none" stroke="#FFFFFF" stroke-opacity="0.18" stroke-width="1.4"/>
    </g>
  

        <rect x="1290" y="762" width="332" height="204" rx="26" fill="#121821"/>
        <rect x="1290" y="762" width="332" height="204" rx="26" stroke="#FFFFFF14" stroke-width="1.5"/>
        <text x="1316" y="804" fill="#F6F8FC" font-size="20" font-weight="600" font-family="'Sora', 'Avenir Next', 'Helvetica Neue', Arial, sans-serif">Trust signals for the human web</text>
        <text x="1316" y="834" fill="#AEB8C8" font-size="14" font-family="'Sora', 'Avenir Next', 'Helvetica Neue', Arial, sans-serif">Logo, buttons, chips, and cards share the same palette.</text>

        <rect x="1316" y="862" width="152" height="42" rx="21" fill="#DCE8F7"/>
        <text x="1392" y="889" fill="#0A111A" text-anchor="middle" font-size="15" font-weight="700" font-family="'Sora', 'Avenir Next', 'Helvetica Neue', Arial, sans-serif">Vote With Conviction</text>

        <rect x="1482" y="862" width="118" height="42" rx="21" fill="#2A3443"/>
        <text x="1541" y="889" fill="#E3EEF9" text-anchor="middle" font-size="14" font-weight="600" font-family="'Sora', 'Avenir Next', 'Helvetica Neue', Arial, sans-serif">Explore Signals</text>

        <rect x="1316" y="922" width="126" height="26" rx="13" fill="#1B2431"/>
        <rect x="1454" y="922" width="148" height="26" rx="13" fill="#1B2431"/>
        <rect x="1316" y="958" width="286" height="64" rx="20" fill="#1B2431"/>
        <path d="M1340 995C1380 980 1426 980 1470 994C1508 1006 1538 1004 1582 978" stroke="#DCE8F7" stroke-width="6" stroke-linecap="round"/>
        <circle cx="1582" cy="978" r="7" fill="#BEE9FF"/>

        <text x="946" y="1038" fill="#F6F8FC" font-size="16" font-weight="700" font-family="'Sora', 'Avenir Next', 'Helvetica Neue', Arial, sans-serif">Palette</text>
        <circle cx="954" cy="1070" r="13" fill="#F6FAFF"/><circle cx="996" cy="1070" r="13" fill="#DCE8F7"/><circle cx="1038" cy="1070" r="13" fill="#9BAEC6"/><circle cx="1080" cy="1070" r="13" fill="#72D9FF"/><circle cx="1122" cy="1070" r="13" fill="#0A0F17"/>
      </g>
    
</svg>
