<svg width="1024" height="1024" viewBox="0 0 1024 1024" fill="none" xmlns="http://www.w3.org/2000/svg">
  <defs>
    <radialGradient id="bg-glow-left" cx="0" cy="0" r="1" gradientUnits="userSpaceOnUse" gradientTransform="translate(244 236) rotate(50) scale(286 334)">
      <stop stop-color="#28426F" stop-opacity="0.22"/>
      <stop offset="1" stop-color="#28426F" stop-opacity="0"/>
    </radialGradient>
    <radialGradient id="bg-glow-right" cx="0" cy="0" r="1" gradientUnits="userSpaceOnUse" gradientTransform="translate(804 248) rotate(144) scale(322 254)">
      <stop stop-color="#F36D72" stop-opacity="0.12"/>
      <stop offset="1" stop-color="#F36D72" stop-opacity="0"/>
    </radialGradient>
    <radialGradient id="bg-glow-bottom" cx="0" cy="0" r="1" gradientUnits="userSpaceOnUse" gradientTransform="translate(704 876) rotate(161) scale(414 180)">
      <stop stop-color="#FF7A47" stop-opacity="0.1"/>
      <stop offset="1" stop-color="#FF7A47" stop-opacity="0"/>
    </radialGradient>

    <radialGradient id="planet-base" cx="0" cy="0" r="1" gradientUnits="userSpaceOnUse" gradientTransform="translate(636 360) rotate(130) scale(514 494)">
      <stop stop-color="#FFE1B5"/>
      <stop offset="0.16" stop-color="#FFBA84"/>
      <stop offset="0.34" stop-color="#F57E8A"/>
      <stop offset="0.56" stop-color="#8A82F2"/>
      <stop offset="0.76" stop-color="#41A0F1"/>
      <stop offset="1" stop-color="#112C41"/>
    </radialGradient>
    <radialGradient id="planet-shadow" cx="0" cy="0" r="1" gradientUnits="userSpaceOnUse" gradientTransform="translate(382 664) rotate(-28) scale(248 162)">
      <stop stop-color="#0B1322" stop-opacity="0.74"/>
      <stop offset="1" stop-color="#0B1322" stop-opacity="0"/>
    </radialGradient>
    <radialGradient id="planet-highlight" cx="0" cy="0" r="1" gradientUnits="userSpaceOnUse" gradientTransform="translate(670 338) rotate(138) scale(192 126)">
      <stop stop-color="#FFF4E2" stop-opacity="0.64"/>
      <stop offset="0.48" stop-color="#FFF4E2" stop-opacity="0.22"/>
      <stop offset="1" stop-color="#FFF4E2" stop-opacity="0"/>
    </radialGradient>

    <linearGradient id="flare-gradient" x1="674" y1="146" x2="906" y2="704" gradientUnits="userSpaceOnUse">
      <stop stop-color="#F45C4D"/>
      <stop offset="0.24" stop-color="#FF8A5D"/>
      <stop offset="0.56" stop-color="#FFC37A"/>
      <stop offset="0.82" stop-color="#FFE1A7"/>
      <stop offset="1" stop-color="#FFF4DB"/>
    </linearGradient>
    <linearGradient id="flare-core" x1="684" y1="160" x2="892" y2="690" gradientUnits="userSpaceOnUse">
      <stop stop-color="#FF9E78"/>
      <stop offset="0.48" stop-color="#FFF0CF"/>
      <stop offset="1" stop-color="#FFF8ED"/>
    </linearGradient>

    <filter id="soft-blur-20" x="0" y="0" width="1024" height="1024" filterUnits="userSpaceOnUse" color-interpolation-filters="sRGB">
      <feGaussianBlur stdDeviation="20"/>
    </filter>
    <filter id="soft-blur-28" x="0" y="0" width="1024" height="1024" filterUnits="userSpaceOnUse" color-interpolation-filters="sRGB">
      <feGaussianBlur stdDeviation="28"/>
    </filter>

    <clipPath id="planet-clip">
      <circle cx="512" cy="512" r="344"/>
    </clipPath>
  </defs>

  <rect width="1024" height="1024" rx="40" fill="#080B12"/>
  <rect width="1024" height="1024" rx="40" fill="url(#bg-glow-left)"/>
  <rect width="1024" height="1024" rx="40" fill="url(#bg-glow-right)"/>
  <rect width="1024" height="1024" rx="40" fill="url(#bg-glow-bottom)"/>

  <circle cx="512" cy="512" r="458" stroke="#FFFFFF" stroke-opacity="0.03" stroke-width="2"/>
  <circle cx="512" cy="512" r="434" stroke="#342129" stroke-opacity="0.66" stroke-width="12"/>
  <circle cx="512" cy="512" r="420" stroke="#1A1E28" stroke-opacity="0.96" stroke-width="20"/>
  <circle cx="512" cy="512" r="406" stroke="#FFFFFF" stroke-opacity="0.055" stroke-width="2"/>
  <circle cx="512" cy="512" r="394" stroke="#FFFFFF" stroke-opacity="0.038" stroke-width="1.4"/>

  <path d="M194 196A436 436 0 0 1 578 116" stroke="#F3A16E" stroke-opacity="0.08" stroke-width="6" stroke-linecap="round"/>
  <path d="M214 212A422 422 0 0 1 590 132" stroke="#FFFFFF" stroke-opacity="0.04" stroke-width="2.2" stroke-linecap="round"/>

  <g filter="url(#soft-blur-28)">
    <path d="M677 141A406 406 0 0 1 871 703" stroke="#F45C4D" stroke-opacity="0.54" stroke-width="28" stroke-linecap="round"/>
  </g>
  <path d="M677 141A406 406 0 0 1 871 703" stroke="#6D352A" stroke-opacity="0.42" stroke-width="10" stroke-linecap="round"/>
  <path d="M677 141A406 406 0 0 1 871 703" stroke="url(#flare-gradient)" stroke-width="8" stroke-linecap="round"/>
  <path d="M677 141A406 406 0 0 1 871 703" stroke="url(#flare-core)" stroke-width="2.4" stroke-linecap="round"/>
  <circle cx="871" cy="703" r="23" fill="#FF8D65" fill-opacity="0.18"/>
  <circle cx="871" cy="703" r="9" fill="#FFF3DF"/>

  <circle cx="512" cy="512" r="344" fill="url(#planet-base)"/>
  <g clip-path="url(#planet-clip)">
    <g filter="url(#soft-blur-20)">
      <ellipse cx="338" cy="386" rx="214" ry="164" fill="#3E9FF0" fill-opacity="0.42"/>
      <ellipse cx="602" cy="312" rx="248" ry="174" fill="#F28593" fill-opacity="0.34"/>
      <ellipse cx="698" cy="438" rx="244" ry="160" fill="#FFD79A" fill-opacity="0.24"/>
      <ellipse cx="606" cy="648" rx="270" ry="150" fill="#11C6A4" fill-opacity="0.2"/>
      <ellipse cx="346" cy="694" rx="286" ry="174" fill="#13263D" fill-opacity="0.62"/>
      <ellipse cx="700" cy="760" rx="150" ry="110" fill="#35A5F6" fill-opacity="0.18"/>
    </g>

    <path d="M132 312C242 264 356 264 476 290C578 312 678 322 814 316" stroke="#FFFFFF" stroke-opacity="0.11" stroke-width="16" stroke-linecap="round"/>
    <path d="M120 418C236 372 354 378 474 406C578 430 676 440 810 434" stroke="#FFFFFF" stroke-opacity="0.1" stroke-width="13" stroke-linecap="round"/>
    <path d="M118 522C236 478 356 486 478 516C582 542 676 552 806 546" stroke="#FFFFFF" stroke-opacity="0.08" stroke-width="11" stroke-linecap="round"/>
    <path d="M132 648C236 612 356 614 478 642C584 668 680 678 810 668" stroke="#FFFFFF" stroke-opacity="0.075" stroke-width="14" stroke-linecap="round"/>
    <path d="M110 760C224 724 350 724 482 748C590 768 684 778 816 770" stroke="#2C4E72" stroke-opacity="0.28" stroke-width="24" stroke-linecap="round"/>

    <path d="M94 578C206 536 320 538 438 564C540 586 638 604 768 594C828 590 874 578 910 554" stroke="#F6A17C" stroke-opacity="0.12" stroke-width="24" stroke-linecap="round"/>

    <circle cx="640" cy="430" r="18" fill="#FFF2E2" fill-opacity="0.14"/>
    <circle cx="332" cy="414" r="14" fill="#FFF2E2" fill-opacity="0.08"/>
    <circle cx="596" cy="570" r="20" fill="#FFF2E2" fill-opacity="0.1"/>
    <circle cx="370" cy="804" r="16" fill="#FFF2E2" fill-opacity="0.05"/>
  </g>

  <circle cx="512" cy="512" r="344" fill="url(#planet-shadow)"/>
  <g filter="url(#soft-blur-28)">
    <ellipse cx="644" cy="340" rx="154" ry="106" fill="#FFF4E2" fill-opacity="0.22"/>
  </g>
  <circle cx="512" cy="512" r="344" fill="url(#planet-highlight)"/>
  <circle cx="512" cy="512" r="344" fill="none" stroke="#FFFFFF" stroke-opacity="0.15" stroke-width="1.4"/>
</svg>
